<mxfile host="65bd71144e" pages="14">
    <diagram id="UeIit79_a0k4H9fqS9ch" name="one-file">
        <mxGraphModel dx="2547" dy="726" grid="1" gridSize="10" guides="1" tooltips="1" connect="1" arrows="1" fold="1" page="1" pageScale="1" pageWidth="827" pageHeight="1169" math="0" shadow="0">
            <root>
                <mxCell id="0"/>
                <mxCell id="1" parent="0"/>
                <mxCell id="--A-ehk1uztAPd-do3Gg-1" value="" style="shape=cylinder3;whiteSpace=wrap;html=1;boundedLbl=1;backgroundOutline=1;size=20;gradientColor=none;sketch=0;fillStyle=auto;fillColor=#fff2cc;strokeColor=#7A6831;" parent="1" vertex="1">
                    <mxGeometry x="530" y="120" width="270" height="200" as="geometry"/>
                </mxCell>
                <mxCell id="--A-ehk1uztAPd-do3Gg-3" value="" style="rounded=0;whiteSpace=wrap;html=1;fillColor=#f5f5f5;fontColor=#333333;strokeColor=#666666;" parent="1" vertex="1">
                    <mxGeometry x="20" y="120" width="270" height="200" as="geometry"/>
                </mxCell>
                <mxCell id="--A-ehk1uztAPd-do3Gg-9" value="nocc-server" style="text;html=1;strokeColor=none;fillColor=none;align=center;verticalAlign=middle;whiteSpace=wrap;rounded=0;sketch=0;fillStyle=auto;fontSize=16;fontFamily=Verdana;fontColor=#7A6831;" parent="1" vertex="1">
                    <mxGeometry x="530" y="124" width="270" height="30" as="geometry"/>
                </mxCell>
                <mxCell id="--A-ehk1uztAPd-do3Gg-12" value="client" style="text;html=1;strokeColor=none;fillColor=none;align=center;verticalAlign=middle;whiteSpace=wrap;rounded=0;sketch=0;fillStyle=auto;fontSize=16;fontFamily=Verdana;" parent="1" vertex="1">
                    <mxGeometry x="20" y="124" width="270" height="30" as="geometry"/>
                </mxCell>
                <mxCell id="--A-ehk1uztAPd-do3Gg-29" value="&amp;nbsp; 1.cpp&amp;nbsp;&amp;nbsp;" style="edgeStyle=none;rounded=0;orthogonalLoop=1;jettySize=auto;html=1;exitX=1;exitY=0.5;exitDx=0;exitDy=0;exitPerimeter=0;entryX=0;entryY=0.6;entryDx=0;entryDy=0;entryPerimeter=0;fontFamily=Verdana;fontSize=18;fontColor=#B266FF;fontStyle=2;labelPosition=center;verticalLabelPosition=top;align=center;verticalAlign=bottom;strokeColor=#B266FF;strokeWidth=2;" parent="1" edge="1">
                    <mxGeometry relative="1" as="geometry">
                        <mxPoint x="290" y="192" as="sourcePoint"/>
                        <mxPoint x="530" y="192" as="targetPoint"/>
                    </mxGeometry>
                </mxCell>
                <mxCell id="--A-ehk1uztAPd-do3Gg-22" value="nocc g++ 1.cpp -o 1.o -c" style="shape=card;whiteSpace=wrap;html=1;sketch=0;fillStyle=auto;fontSize=14;fontColor=#000000;fillColor=default;gradientColor=none;fontFamily=MonacoB2;fontStyle=1;size=20;verticalAlign=top;spacingTop=16;" parent="1" vertex="1">
                    <mxGeometry x="20" y="160" width="270" height="160" as="geometry"/>
                </mxCell>
                <mxCell id="--A-ehk1uztAPd-do3Gg-27" value="save /tmp/1.cpp" style="text;html=1;strokeColor=none;fillColor=none;align=left;verticalAlign=middle;whiteSpace=wrap;rounded=0;sketch=0;fillStyle=auto;fontFamily=Verdana;fontSize=14;fontColor=#666;" parent="1" vertex="1">
                    <mxGeometry x="542" y="177" width="180" height="30" as="geometry"/>
                </mxCell>
                <mxCell id="--A-ehk1uztAPd-do3Gg-30" style="edgeStyle=none;rounded=0;orthogonalLoop=1;jettySize=auto;html=1;exitX=1;exitY=0.5;exitDx=0;exitDy=0;exitPerimeter=0;entryX=0;entryY=0.6;entryDx=0;entryDy=0;entryPerimeter=0;fontFamily=Helvetica;fontSize=16;fontColor=#000000;strokeColor=#B266FF;strokeWidth=2;" parent="1" edge="1">
                    <mxGeometry relative="1" as="geometry">
                        <mxPoint x="290" y="222" as="sourcePoint"/>
                        <mxPoint x="530" y="222" as="targetPoint"/>
                    </mxGeometry>
                </mxCell>
                <mxCell id="--A-ehk1uztAPd-do3Gg-41" value="1.h" style="edgeLabel;html=1;align=center;verticalAlign=bottom;resizable=0;points=[];fontSize=18;fontFamily=Verdana;fontColor=#B266FF;fontStyle=2;labelPosition=center;verticalLabelPosition=top;" parent="--A-ehk1uztAPd-do3Gg-30" vertex="1" connectable="0">
                    <mxGeometry x="-0.0167" relative="1" as="geometry">
                        <mxPoint as="offset"/>
                    </mxGeometry>
                </mxCell>
                <mxCell id="--A-ehk1uztAPd-do3Gg-31" value="save /tmp/1.h" style="text;html=1;strokeColor=none;fillColor=none;align=left;verticalAlign=middle;whiteSpace=wrap;rounded=0;sketch=0;fillStyle=auto;fontFamily=Verdana;fontSize=14;fontColor=#666;" parent="1" vertex="1">
                    <mxGeometry x="542" y="207" width="180" height="30" as="geometry"/>
                </mxCell>
                <mxCell id="--A-ehk1uztAPd-do3Gg-32" value="g++ /tmp/1.cpp -o /tmp/1.o -c" style="text;html=1;strokeColor=none;fillColor=none;align=left;verticalAlign=middle;whiteSpace=wrap;rounded=0;sketch=0;fillStyle=auto;fontFamily=MonacoB2;fontSize=14;fontColor=#000000;fontStyle=1" parent="1" vertex="1">
                    <mxGeometry x="542" y="237" width="250" height="30" as="geometry"/>
                </mxCell>
                <mxCell id="--A-ehk1uztAPd-do3Gg-35" value="save 1.o" style="text;html=1;strokeColor=none;fillColor=none;align=right;verticalAlign=middle;whiteSpace=wrap;rounded=0;sketch=0;fillStyle=auto;fontFamily=Verdana;fontSize=14;fontColor=#666666;" parent="1" vertex="1">
                    <mxGeometry x="98" y="267" width="180" height="30" as="geometry"/>
                </mxCell>
                <mxCell id="--A-ehk1uztAPd-do3Gg-39" value="send /tmp/1.o" style="text;html=1;strokeColor=none;fillColor=none;align=left;verticalAlign=middle;whiteSpace=wrap;rounded=0;sketch=0;fillStyle=auto;fontFamily=Verdana;fontSize=14;fontColor=#666;" parent="1" vertex="1">
                    <mxGeometry x="542" y="267" width="180" height="30" as="geometry"/>
                </mxCell>
                <mxCell id="hTrclMG418u-IsEwZV44-2" style="edgeStyle=none;rounded=0;orthogonalLoop=1;jettySize=auto;html=1;exitX=1;exitY=0.5;exitDx=0;exitDy=0;exitPerimeter=0;entryX=0;entryY=0.6;entryDx=0;entryDy=0;entryPerimeter=0;fontFamily=Helvetica;fontSize=16;fontColor=#000000;strokeColor=#FF8000;strokeWidth=2;" parent="1" edge="1">
                    <mxGeometry relative="1" as="geometry">
                        <mxPoint x="530" y="282" as="sourcePoint"/>
                        <mxPoint x="290" y="282" as="targetPoint"/>
                    </mxGeometry>
                </mxCell>
                <mxCell id="hTrclMG418u-IsEwZV44-3" value="/tmp/1.o" style="edgeLabel;html=1;align=center;verticalAlign=bottom;resizable=0;points=[];fontSize=18;fontFamily=Verdana;fontColor=#FF8000;fontStyle=2;labelPosition=center;verticalLabelPosition=top;" parent="hTrclMG418u-IsEwZV44-2" vertex="1" connectable="0">
                    <mxGeometry x="-0.0167" relative="1" as="geometry">
                        <mxPoint as="offset"/>
                    </mxGeometry>
                </mxCell>
            </root>
        </mxGraphModel>
    </diagram>
    <diagram name="many-files" id="gPniuafVoosjBgZ5cxiO">
        <mxGraphModel dx="2547" dy="726" grid="1" gridSize="10" guides="1" tooltips="1" connect="1" arrows="1" fold="1" page="1" pageScale="1" pageWidth="827" pageHeight="1169" math="0" shadow="0">
            <root>
                <mxCell id="yuqDVmqB1aJnzlH8AANx-0"/>
                <mxCell id="yuqDVmqB1aJnzlH8AANx-1" parent="yuqDVmqB1aJnzlH8AANx-0"/>
                <mxCell id="0A0kMg3eCqBIl_MBedI8-12" value="" style="shape=cylinder3;whiteSpace=wrap;html=1;boundedLbl=1;backgroundOutline=1;size=11;gradientColor=none;sketch=0;fillStyle=auto;fillColor=#fff2cc;strokeColor=#7A6831;" parent="yuqDVmqB1aJnzlH8AANx-1" vertex="1">
                    <mxGeometry x="530" y="334" width="270" height="46" as="geometry"/>
                </mxCell>
                <mxCell id="0A0kMg3eCqBIl_MBedI8-18" value="nocc-server 5" style="text;strokeColor=none;fillColor=none;align=center;verticalAlign=middle;whiteSpace=wrap;rounded=0;sketch=0;fillStyle=auto;fontSize=14;fontFamily=Verdana;fontStyle=0;horizontal=1;html=1;spacing=2;fontColor=#7A6831;" parent="yuqDVmqB1aJnzlH8AANx-1" vertex="1">
                    <mxGeometry x="530" y="329" width="270" height="30" as="geometry"/>
                </mxCell>
                <mxCell id="0A0kMg3eCqBIl_MBedI8-11" value="" style="shape=cylinder3;whiteSpace=wrap;html=1;boundedLbl=1;backgroundOutline=1;size=11;gradientColor=none;sketch=0;fillStyle=auto;fillColor=#fff2cc;strokeColor=#7A6831;" parent="yuqDVmqB1aJnzlH8AANx-1" vertex="1">
                    <mxGeometry x="530" y="294" width="270" height="46" as="geometry"/>
                </mxCell>
                <mxCell id="0A0kMg3eCqBIl_MBedI8-17" value="nocc-server 4" style="text;strokeColor=none;fillColor=none;align=center;verticalAlign=middle;whiteSpace=wrap;rounded=0;sketch=0;fillStyle=auto;fontSize=14;fontFamily=Verdana;fontStyle=0;horizontal=1;html=1;spacing=2;fontColor=#7A6831;" parent="yuqDVmqB1aJnzlH8AANx-1" vertex="1">
                    <mxGeometry x="530" y="289" width="270" height="30" as="geometry"/>
                </mxCell>
                <mxCell id="yuqDVmqB1aJnzlH8AANx-3" value="" style="rounded=0;whiteSpace=wrap;html=1;fillColor=#f5f5f5;fontColor=#333333;strokeColor=#666666;" parent="yuqDVmqB1aJnzlH8AANx-1" vertex="1">
                    <mxGeometry x="20" y="120" width="270" height="190" as="geometry"/>
                </mxCell>
                <mxCell id="yuqDVmqB1aJnzlH8AANx-5" value="client" style="text;html=1;strokeColor=none;fillColor=none;align=center;verticalAlign=middle;whiteSpace=wrap;rounded=0;sketch=0;fillStyle=auto;fontSize=16;fontFamily=Verdana;" parent="yuqDVmqB1aJnzlH8AANx-1" vertex="1">
                    <mxGeometry x="20" y="124" width="270" height="30" as="geometry"/>
                </mxCell>
                <mxCell id="yuqDVmqB1aJnzlH8AANx-7" value="nocc g++ 1.cpp -o 1.o -c" style="shape=card;whiteSpace=wrap;html=1;sketch=0;fillStyle=auto;fontSize=14;fontColor=#000000;fillColor=default;gradientColor=none;fontFamily=MonacoB2;fontStyle=1;size=20;verticalAlign=top;spacingTop=0;" parent="yuqDVmqB1aJnzlH8AANx-1" vertex="1">
                    <mxGeometry x="20" y="160" width="270" height="30" as="geometry"/>
                </mxCell>
                <mxCell id="yuqDVmqB1aJnzlH8AANx-19" value="nocc g++ 2.cpp -o 2.o -c" style="shape=card;whiteSpace=wrap;html=1;sketch=0;fillStyle=auto;fontSize=14;fontColor=#000000;fillColor=default;gradientColor=none;fontFamily=MonacoB2;fontStyle=1;size=20;verticalAlign=top;spacingTop=0;" parent="yuqDVmqB1aJnzlH8AANx-1" vertex="1">
                    <mxGeometry x="20" y="190" width="270" height="30" as="geometry"/>
                </mxCell>
                <mxCell id="yuqDVmqB1aJnzlH8AANx-20" value="nocc g++ 3.cpp -o 3.o -c" style="shape=card;whiteSpace=wrap;html=1;sketch=0;fillStyle=auto;fontSize=14;fontColor=#000000;fillColor=default;gradientColor=none;fontFamily=MonacoB2;fontStyle=1;size=20;verticalAlign=top;spacingTop=0;" parent="yuqDVmqB1aJnzlH8AANx-1" vertex="1">
                    <mxGeometry x="20" y="220" width="270" height="30" as="geometry"/>
                </mxCell>
                <mxCell id="yuqDVmqB1aJnzlH8AANx-21" value="..." style="shape=card;whiteSpace=wrap;html=1;sketch=0;fillStyle=auto;fontSize=14;fontColor=#000000;fillColor=default;gradientColor=none;fontFamily=MonacoB2;fontStyle=1;size=20;verticalAlign=top;spacingTop=0;" parent="yuqDVmqB1aJnzlH8AANx-1" vertex="1">
                    <mxGeometry x="20" y="250" width="270" height="30" as="geometry"/>
                </mxCell>
                <mxCell id="yuqDVmqB1aJnzlH8AANx-22" value="nocc g++ N.cpp -o N.o -c" style="shape=card;whiteSpace=wrap;html=1;sketch=0;fillStyle=auto;fontSize=14;fontColor=#000000;fillColor=default;gradientColor=none;fontFamily=MonacoB2;fontStyle=1;size=20;verticalAlign=top;spacingTop=0;" parent="yuqDVmqB1aJnzlH8AANx-1" vertex="1">
                    <mxGeometry x="20" y="280" width="270" height="30" as="geometry"/>
                </mxCell>
                <mxCell id="yuqDVmqB1aJnzlH8AANx-23" value="" style="shape=cylinder3;whiteSpace=wrap;html=1;boundedLbl=1;backgroundOutline=1;size=11;sketch=0;fillStyle=auto;fillColor=#fff2cc;strokeColor=#7A6831;" parent="yuqDVmqB1aJnzlH8AANx-1" vertex="1">
                    <mxGeometry x="530" y="34" width="270" height="100" as="geometry"/>
                </mxCell>
                <mxCell id="0A0kMg3eCqBIl_MBedI8-0" value="g++ ... 2.cpp" style="text;html=1;strokeColor=none;fillColor=none;align=left;verticalAlign=middle;whiteSpace=wrap;rounded=0;sketch=0;fillStyle=auto;fontFamily=MonacoB2;fontSize=14;fontColor=#000000;fontStyle=1" parent="yuqDVmqB1aJnzlH8AANx-1" vertex="1">
                    <mxGeometry x="540" y="56" width="250" height="30" as="geometry"/>
                </mxCell>
                <mxCell id="0A0kMg3eCqBIl_MBedI8-1" value="g++ ... 6.cpp" style="text;html=1;strokeColor=none;fillColor=none;align=left;verticalAlign=middle;whiteSpace=wrap;rounded=0;sketch=0;fillStyle=auto;fontFamily=MonacoB2;fontSize=14;fontColor=#000000;fontStyle=1" parent="yuqDVmqB1aJnzlH8AANx-1" vertex="1">
                    <mxGeometry x="540" y="76" width="250" height="30" as="geometry"/>
                </mxCell>
                <mxCell id="0A0kMg3eCqBIl_MBedI8-2" value="g++ ... 18.cpp" style="text;html=1;strokeColor=none;fillColor=none;align=left;verticalAlign=middle;whiteSpace=wrap;rounded=0;sketch=0;fillStyle=auto;fontFamily=MonacoB2;fontSize=14;fontColor=#000000;fontStyle=1" parent="yuqDVmqB1aJnzlH8AANx-1" vertex="1">
                    <mxGeometry x="540" y="96" width="250" height="30" as="geometry"/>
                </mxCell>
                <mxCell id="0A0kMg3eCqBIl_MBedI8-3" value="" style="shape=cylinder3;whiteSpace=wrap;html=1;boundedLbl=1;backgroundOutline=1;size=11;sketch=0;fillStyle=auto;fillColor=#fff2cc;strokeColor=#7A6831;" parent="yuqDVmqB1aJnzlH8AANx-1" vertex="1">
                    <mxGeometry x="530" y="144" width="270" height="100" as="geometry"/>
                </mxCell>
                <mxCell id="0A0kMg3eCqBIl_MBedI8-4" value="g++ ... 1.cpp" style="text;html=1;strokeColor=none;fillColor=none;align=left;verticalAlign=middle;whiteSpace=wrap;rounded=0;sketch=0;fillStyle=auto;fontFamily=MonacoB2;fontSize=14;fontColor=#000000;fontStyle=1" parent="yuqDVmqB1aJnzlH8AANx-1" vertex="1">
                    <mxGeometry x="540" y="166" width="250" height="30" as="geometry"/>
                </mxCell>
                <mxCell id="0A0kMg3eCqBIl_MBedI8-5" value="g++ ... 15.cpp" style="text;html=1;strokeColor=none;fillColor=none;align=left;verticalAlign=middle;whiteSpace=wrap;rounded=0;sketch=0;fillStyle=auto;fontFamily=MonacoB2;fontSize=14;fontColor=#000000;fontStyle=1" parent="yuqDVmqB1aJnzlH8AANx-1" vertex="1">
                    <mxGeometry x="540" y="186" width="250" height="30" as="geometry"/>
                </mxCell>
                <mxCell id="0A0kMg3eCqBIl_MBedI8-6" value="g++ ... 21.cpp" style="text;html=1;strokeColor=none;fillColor=none;align=left;verticalAlign=middle;whiteSpace=wrap;rounded=0;sketch=0;fillStyle=auto;fontFamily=MonacoB2;fontSize=14;fontColor=#000000;fontStyle=1" parent="yuqDVmqB1aJnzlH8AANx-1" vertex="1">
                    <mxGeometry x="540" y="206" width="250" height="30" as="geometry"/>
                </mxCell>
                <mxCell id="0A0kMg3eCqBIl_MBedI8-7" value="" style="shape=cylinder3;whiteSpace=wrap;html=1;boundedLbl=1;backgroundOutline=1;size=11;gradientColor=none;sketch=0;fillStyle=auto;fillColor=#fff2cc;strokeColor=#7A6831;" parent="yuqDVmqB1aJnzlH8AANx-1" vertex="1">
                    <mxGeometry x="530" y="254" width="270" height="46" as="geometry"/>
                </mxCell>
                <mxCell id="0A0kMg3eCqBIl_MBedI8-14" value="nocc-server 1" style="text;strokeColor=none;fillColor=none;align=center;verticalAlign=middle;whiteSpace=wrap;rounded=0;sketch=0;fillStyle=auto;fontSize=14;fontFamily=Verdana;fontStyle=0;horizontal=1;html=1;spacing=2;fontColor=#7A6831;" parent="yuqDVmqB1aJnzlH8AANx-1" vertex="1">
                    <mxGeometry x="530" y="29" width="270" height="30" as="geometry"/>
                </mxCell>
                <mxCell id="0A0kMg3eCqBIl_MBedI8-15" value="nocc-server 2" style="text;strokeColor=none;fillColor=none;align=center;verticalAlign=middle;whiteSpace=wrap;rounded=0;sketch=0;fillStyle=auto;fontSize=14;fontFamily=Verdana;fontStyle=0;horizontal=1;html=1;spacing=2;fontColor=#7A6831;" parent="yuqDVmqB1aJnzlH8AANx-1" vertex="1">
                    <mxGeometry x="530" y="139" width="270" height="30" as="geometry"/>
                </mxCell>
                <mxCell id="0A0kMg3eCqBIl_MBedI8-16" value="nocc-server 3" style="text;strokeColor=none;fillColor=none;align=center;verticalAlign=middle;whiteSpace=wrap;rounded=0;sketch=0;fillStyle=auto;fontSize=14;fontFamily=Verdana;fontStyle=0;horizontal=1;html=1;spacing=2;fontColor=#7A6831;" parent="yuqDVmqB1aJnzlH8AANx-1" vertex="1">
                    <mxGeometry x="530" y="249" width="270" height="30" as="geometry"/>
                </mxCell>
                <mxCell id="0A0kMg3eCqBIl_MBedI8-19" value="g++ ..." style="text;html=1;strokeColor=none;fillColor=none;align=left;verticalAlign=middle;whiteSpace=wrap;rounded=0;sketch=0;fillStyle=auto;fontFamily=MonacoB2;fontSize=12;fontColor=#000000;fontStyle=1;rotation=5;" parent="yuqDVmqB1aJnzlH8AANx-1" vertex="1">
                    <mxGeometry x="539.32" y="269.64" width="81" height="30" as="geometry"/>
                </mxCell>
                <mxCell id="0A0kMg3eCqBIl_MBedI8-20" value="g++ ..." style="text;html=1;strokeColor=none;fillColor=none;align=left;verticalAlign=middle;whiteSpace=wrap;rounded=0;sketch=0;fillStyle=auto;fontFamily=MonacoB2;fontSize=12;fontColor=#000000;fontStyle=1;rotation=5;" parent="yuqDVmqB1aJnzlH8AANx-1" vertex="1">
                    <mxGeometry x="539.32" y="309.64" width="81" height="30" as="geometry"/>
                </mxCell>
                <mxCell id="0A0kMg3eCqBIl_MBedI8-21" value="g++ ..." style="text;html=1;strokeColor=none;fillColor=none;align=left;verticalAlign=middle;whiteSpace=wrap;rounded=0;sketch=0;fillStyle=auto;fontFamily=MonacoB2;fontSize=12;fontColor=#000000;fontStyle=1;rotation=5;" parent="yuqDVmqB1aJnzlH8AANx-1" vertex="1">
                    <mxGeometry x="539.32" y="349.64" width="81" height="30" as="geometry"/>
                </mxCell>
                <mxCell id="GreGXOvwAEvuSqYzBzMU-43" value="" style="endArrow=classic;html=1;rounded=0;fontFamily=Verdana;fontSize=12;fontColor=#B266FF;strokeWidth=2;strokeColor=#B266FF;" parent="yuqDVmqB1aJnzlH8AANx-1" edge="1">
                    <mxGeometry width="50" height="50" relative="1" as="geometry">
                        <mxPoint x="320.32" y="190" as="sourcePoint"/>
                        <mxPoint x="510" y="190" as="targetPoint"/>
                    </mxGeometry>
                </mxCell>
                <mxCell id="GreGXOvwAEvuSqYzBzMU-44" value="src files &lt;br&gt;&lt;font style=&quot;font-size: 14px&quot;&gt;(cpp/h/hxx/inc/pch/...)&lt;/font&gt;" style="text;html=1;strokeColor=none;fillColor=none;align=left;verticalAlign=middle;whiteSpace=wrap;rounded=0;sketch=0;fillStyle=auto;fontFamily=Verdana;fontSize=18;fontColor=#B266FF;" parent="yuqDVmqB1aJnzlH8AANx-1" vertex="1">
                    <mxGeometry x="320.32" y="140" width="189.68" height="40" as="geometry"/>
                </mxCell>
                <mxCell id="GreGXOvwAEvuSqYzBzMU-45" value="" style="endArrow=classic;html=1;rounded=0;fontFamily=Verdana;fontSize=12;fontColor=#7A6831;strokeWidth=2;strokeColor=#FF8000;" parent="yuqDVmqB1aJnzlH8AANx-1" edge="1">
                    <mxGeometry width="50" height="50" relative="1" as="geometry">
                        <mxPoint x="510" y="280" as="sourcePoint"/>
                        <mxPoint x="320" y="280" as="targetPoint"/>
                    </mxGeometry>
                </mxCell>
                <mxCell id="GreGXOvwAEvuSqYzBzMU-46" value="compiled obj files&lt;br&gt;stderr" style="text;html=1;strokeColor=none;fillColor=none;align=right;verticalAlign=middle;whiteSpace=wrap;rounded=0;sketch=0;fillStyle=auto;fontFamily=Verdana;fontSize=18;fontColor=#FF8000;" parent="yuqDVmqB1aJnzlH8AANx-1" vertex="1">
                    <mxGeometry x="340" y="231.64" width="170" height="40.36" as="geometry"/>
                </mxCell>
            </root>
        </mxGraphModel>
    </diagram>
    <diagram id="PDn98JO2493q3Z5JxVw1" name="daemon">
        <mxGraphModel dx="2547" dy="726" grid="1" gridSize="10" guides="1" tooltips="1" connect="1" arrows="1" fold="1" page="1" pageScale="1" pageWidth="827" pageHeight="1169" math="0" shadow="0">
            <root>
                <mxCell id="QyA3gau1I1b-mTRyT76p-0"/>
                <mxCell id="QyA3gau1I1b-mTRyT76p-1" parent="QyA3gau1I1b-mTRyT76p-0"/>
                <mxCell id="QyA3gau1I1b-mTRyT76p-3" value="" style="shape=cylinder3;whiteSpace=wrap;html=1;boundedLbl=1;backgroundOutline=1;size=11;gradientColor=none;sketch=0;fillStyle=auto;fillColor=#fff2cc;strokeColor=#7A6831;" parent="QyA3gau1I1b-mTRyT76p-1" vertex="1">
                    <mxGeometry x="530" y="334" width="270" height="46" as="geometry"/>
                </mxCell>
                <mxCell id="QyA3gau1I1b-mTRyT76p-6" value="nocc-server 5" style="text;strokeColor=none;fillColor=none;align=center;verticalAlign=middle;whiteSpace=wrap;rounded=0;sketch=0;fillStyle=auto;fontSize=14;fontFamily=Verdana;fontStyle=0;horizontal=1;html=1;spacing=2;fontColor=#7A6831;" parent="QyA3gau1I1b-mTRyT76p-1" vertex="1">
                    <mxGeometry x="530" y="329" width="270" height="30" as="geometry"/>
                </mxCell>
                <mxCell id="QyA3gau1I1b-mTRyT76p-7" value="" style="shape=cylinder3;whiteSpace=wrap;html=1;boundedLbl=1;backgroundOutline=1;size=11;gradientColor=none;sketch=0;fillStyle=auto;fillColor=#fff2cc;strokeColor=#7A6831;" parent="QyA3gau1I1b-mTRyT76p-1" vertex="1">
                    <mxGeometry x="530" y="294" width="270" height="46" as="geometry"/>
                </mxCell>
                <mxCell id="QyA3gau1I1b-mTRyT76p-9" value="nocc-server 4" style="text;strokeColor=none;fillColor=none;align=center;verticalAlign=middle;whiteSpace=wrap;rounded=0;sketch=0;fillStyle=auto;fontSize=14;fontFamily=Verdana;fontStyle=0;horizontal=1;html=1;spacing=2;fontColor=#7A6831;" parent="QyA3gau1I1b-mTRyT76p-1" vertex="1">
                    <mxGeometry x="530" y="289" width="270" height="30" as="geometry"/>
                </mxCell>
                <mxCell id="QyA3gau1I1b-mTRyT76p-10" value="" style="rounded=0;whiteSpace=wrap;html=1;fillColor=#f5f5f5;fontColor=#333333;strokeColor=#666666;" parent="QyA3gau1I1b-mTRyT76p-1" vertex="1">
                    <mxGeometry x="20" y="40" width="270" height="330" as="geometry"/>
                </mxCell>
                <mxCell id="QyA3gau1I1b-mTRyT76p-11" value="client" style="text;html=1;strokeColor=none;fillColor=none;align=center;verticalAlign=middle;whiteSpace=wrap;rounded=0;sketch=0;fillStyle=auto;fontSize=16;fontFamily=Verdana;flipH=1;" parent="QyA3gau1I1b-mTRyT76p-1" vertex="1">
                    <mxGeometry x="20" y="44" width="270" height="30" as="geometry"/>
                </mxCell>
                <mxCell id="QyA3gau1I1b-mTRyT76p-13" value="nocc g++ 1.cpp -o 1.o -c" style="shape=card;whiteSpace=wrap;html=1;sketch=0;fillStyle=auto;fontSize=14;fontColor=#000000;fillColor=default;gradientColor=none;fontFamily=MonacoB2;fontStyle=1;size=20;verticalAlign=top;spacingTop=0;" parent="QyA3gau1I1b-mTRyT76p-1" vertex="1">
                    <mxGeometry x="20" y="220" width="270" height="30" as="geometry"/>
                </mxCell>
                <mxCell id="QyA3gau1I1b-mTRyT76p-15" value="nocc g++ 2.cpp -o 2.o -c" style="shape=card;whiteSpace=wrap;html=1;sketch=0;fillStyle=auto;fontSize=14;fontColor=#000000;fillColor=default;gradientColor=none;fontFamily=MonacoB2;fontStyle=1;size=20;verticalAlign=top;spacingTop=0;" parent="QyA3gau1I1b-mTRyT76p-1" vertex="1">
                    <mxGeometry x="20" y="250" width="270" height="30" as="geometry"/>
                </mxCell>
                <mxCell id="QyA3gau1I1b-mTRyT76p-17" value="nocc g++ 3.cpp -o 3.o -c" style="shape=card;whiteSpace=wrap;html=1;sketch=0;fillStyle=auto;fontSize=14;fontColor=#000000;fillColor=default;gradientColor=none;fontFamily=MonacoB2;fontStyle=1;size=20;verticalAlign=top;spacingTop=0;" parent="QyA3gau1I1b-mTRyT76p-1" vertex="1">
                    <mxGeometry x="20" y="280" width="270" height="30" as="geometry"/>
                </mxCell>
                <mxCell id="QyA3gau1I1b-mTRyT76p-25" value="..." style="shape=card;whiteSpace=wrap;html=1;sketch=0;fillStyle=auto;fontSize=14;fontColor=#000000;fillColor=default;gradientColor=none;fontFamily=MonacoB2;fontStyle=1;size=20;verticalAlign=top;spacingTop=0;" parent="QyA3gau1I1b-mTRyT76p-1" vertex="1">
                    <mxGeometry x="20" y="310" width="270" height="30" as="geometry"/>
                </mxCell>
                <mxCell id="QyA3gau1I1b-mTRyT76p-27" value="nocc g++ N.cpp -o N.o -c" style="shape=card;whiteSpace=wrap;html=1;sketch=0;fillStyle=auto;fontSize=14;fontColor=#000000;fillColor=default;gradientColor=none;fontFamily=MonacoB2;fontStyle=1;size=20;verticalAlign=top;spacingTop=0;" parent="QyA3gau1I1b-mTRyT76p-1" vertex="1">
                    <mxGeometry x="20" y="340" width="270" height="30" as="geometry"/>
                </mxCell>
                <mxCell id="QyA3gau1I1b-mTRyT76p-64" style="edgeStyle=none;rounded=0;orthogonalLoop=1;jettySize=auto;html=1;exitX=0;exitY=0;exitDx=0;exitDy=69.5;exitPerimeter=0;fontFamily=Verdana;fontSize=12;fontColor=#000;strokeWidth=1;strokeColor=#FF8000;" parent="QyA3gau1I1b-mTRyT76p-1" source="QyA3gau1I1b-mTRyT76p-29" edge="1">
                    <mxGeometry relative="1" as="geometry">
                        <mxPoint x="270" y="110" as="targetPoint"/>
                    </mxGeometry>
                </mxCell>
                <mxCell id="QyA3gau1I1b-mTRyT76p-29" value="" style="shape=cylinder3;whiteSpace=wrap;html=1;boundedLbl=1;backgroundOutline=1;size=11;sketch=0;fillStyle=auto;fillColor=#fff2cc;strokeColor=#7A6831;" parent="QyA3gau1I1b-mTRyT76p-1" vertex="1">
                    <mxGeometry x="530" y="34" width="270" height="100" as="geometry"/>
                </mxCell>
                <mxCell id="QyA3gau1I1b-mTRyT76p-30" value="g++ ... 2.cpp" style="text;html=1;strokeColor=none;fillColor=none;align=left;verticalAlign=middle;whiteSpace=wrap;rounded=0;sketch=0;fillStyle=auto;fontFamily=MonacoB2;fontSize=14;fontColor=#000000;fontStyle=1" parent="QyA3gau1I1b-mTRyT76p-1" vertex="1">
                    <mxGeometry x="540" y="56" width="250" height="30" as="geometry"/>
                </mxCell>
                <mxCell id="QyA3gau1I1b-mTRyT76p-31" value="g++ ... 6.cpp" style="text;html=1;strokeColor=none;fillColor=none;align=left;verticalAlign=middle;whiteSpace=wrap;rounded=0;sketch=0;fillStyle=auto;fontFamily=MonacoB2;fontSize=14;fontColor=#000000;fontStyle=1" parent="QyA3gau1I1b-mTRyT76p-1" vertex="1">
                    <mxGeometry x="540" y="76" width="250" height="30" as="geometry"/>
                </mxCell>
                <mxCell id="QyA3gau1I1b-mTRyT76p-32" value="g++ ... 18.cpp" style="text;html=1;strokeColor=none;fillColor=none;align=left;verticalAlign=middle;whiteSpace=wrap;rounded=0;sketch=0;fillStyle=auto;fontFamily=MonacoB2;fontSize=14;fontColor=#000000;fontStyle=1" parent="QyA3gau1I1b-mTRyT76p-1" vertex="1">
                    <mxGeometry x="540" y="96" width="250" height="30" as="geometry"/>
                </mxCell>
                <mxCell id="QyA3gau1I1b-mTRyT76p-66" style="edgeStyle=none;rounded=0;orthogonalLoop=1;jettySize=auto;html=1;exitX=0;exitY=0;exitDx=0;exitDy=69.5;exitPerimeter=0;entryX=1;entryY=0.5;entryDx=0;entryDy=0;fontFamily=Verdana;fontSize=12;fontColor=#000;strokeWidth=1;strokeColor=#FF8000;" parent="QyA3gau1I1b-mTRyT76p-1" source="QyA3gau1I1b-mTRyT76p-35" target="QyA3gau1I1b-mTRyT76p-50" edge="1">
                    <mxGeometry relative="1" as="geometry"/>
                </mxCell>
                <mxCell id="QyA3gau1I1b-mTRyT76p-35" value="" style="shape=cylinder3;whiteSpace=wrap;html=1;boundedLbl=1;backgroundOutline=1;size=11;sketch=0;fillStyle=auto;fillColor=#fff2cc;strokeColor=#7A6831;" parent="QyA3gau1I1b-mTRyT76p-1" vertex="1">
                    <mxGeometry x="530" y="144" width="270" height="100" as="geometry"/>
                </mxCell>
                <mxCell id="QyA3gau1I1b-mTRyT76p-36" value="g++ ... 1.cpp" style="text;html=1;strokeColor=none;fillColor=none;align=left;verticalAlign=middle;whiteSpace=wrap;rounded=0;sketch=0;fillStyle=auto;fontFamily=MonacoB2;fontSize=14;fontColor=#000000;fontStyle=1" parent="QyA3gau1I1b-mTRyT76p-1" vertex="1">
                    <mxGeometry x="540" y="166" width="250" height="30" as="geometry"/>
                </mxCell>
                <mxCell id="QyA3gau1I1b-mTRyT76p-37" value="g++ ... 15.cpp" style="text;html=1;strokeColor=none;fillColor=none;align=left;verticalAlign=middle;whiteSpace=wrap;rounded=0;sketch=0;fillStyle=auto;fontFamily=MonacoB2;fontSize=14;fontColor=#000000;fontStyle=1" parent="QyA3gau1I1b-mTRyT76p-1" vertex="1">
                    <mxGeometry x="540" y="186" width="250" height="30" as="geometry"/>
                </mxCell>
                <mxCell id="QyA3gau1I1b-mTRyT76p-38" value="g++ ... 21.cpp" style="text;html=1;strokeColor=none;fillColor=none;align=left;verticalAlign=middle;whiteSpace=wrap;rounded=0;sketch=0;fillStyle=auto;fontFamily=MonacoB2;fontSize=14;fontColor=#000000;fontStyle=1" parent="QyA3gau1I1b-mTRyT76p-1" vertex="1">
                    <mxGeometry x="540" y="206" width="250" height="30" as="geometry"/>
                </mxCell>
                <mxCell id="QyA3gau1I1b-mTRyT76p-39" value="" style="shape=cylinder3;whiteSpace=wrap;html=1;boundedLbl=1;backgroundOutline=1;size=11;gradientColor=none;sketch=0;fillStyle=auto;fillColor=#fff2cc;strokeColor=#7A6831;" parent="QyA3gau1I1b-mTRyT76p-1" vertex="1">
                    <mxGeometry x="530" y="254" width="270" height="46" as="geometry"/>
                </mxCell>
                <mxCell id="QyA3gau1I1b-mTRyT76p-40" value="nocc-server 1" style="text;strokeColor=none;fillColor=none;align=center;verticalAlign=middle;whiteSpace=wrap;rounded=0;sketch=0;fillStyle=auto;fontSize=14;fontFamily=Verdana;fontStyle=0;horizontal=1;html=1;spacing=2;fontColor=#7A6831;" parent="QyA3gau1I1b-mTRyT76p-1" vertex="1">
                    <mxGeometry x="530" y="29" width="270" height="30" as="geometry"/>
                </mxCell>
                <mxCell id="QyA3gau1I1b-mTRyT76p-41" value="nocc-server 2" style="text;strokeColor=none;fillColor=none;align=center;verticalAlign=middle;whiteSpace=wrap;rounded=0;sketch=0;fillStyle=auto;fontSize=14;fontFamily=Verdana;fontStyle=0;horizontal=1;html=1;spacing=2;fontColor=#7A6831;" parent="QyA3gau1I1b-mTRyT76p-1" vertex="1">
                    <mxGeometry x="530" y="139" width="270" height="30" as="geometry"/>
                </mxCell>
                <mxCell id="QyA3gau1I1b-mTRyT76p-42" value="nocc-server 3" style="text;strokeColor=none;fillColor=none;align=center;verticalAlign=middle;whiteSpace=wrap;rounded=0;sketch=0;fillStyle=auto;fontSize=14;fontFamily=Verdana;fontStyle=0;horizontal=1;html=1;spacing=2;fontColor=#7A6831;" parent="QyA3gau1I1b-mTRyT76p-1" vertex="1">
                    <mxGeometry x="530" y="249" width="270" height="30" as="geometry"/>
                </mxCell>
                <mxCell id="QyA3gau1I1b-mTRyT76p-43" value="g++ ..." style="text;html=1;strokeColor=none;fillColor=none;align=left;verticalAlign=middle;whiteSpace=wrap;rounded=0;sketch=0;fillStyle=auto;fontFamily=MonacoB2;fontSize=12;fontColor=#000000;fontStyle=1;rotation=5;" parent="QyA3gau1I1b-mTRyT76p-1" vertex="1">
                    <mxGeometry x="539.32" y="269.64" width="81" height="30" as="geometry"/>
                </mxCell>
                <mxCell id="QyA3gau1I1b-mTRyT76p-44" value="g++ ..." style="text;html=1;strokeColor=none;fillColor=none;align=left;verticalAlign=middle;whiteSpace=wrap;rounded=0;sketch=0;fillStyle=auto;fontFamily=MonacoB2;fontSize=12;fontColor=#000000;fontStyle=1;rotation=5;" parent="QyA3gau1I1b-mTRyT76p-1" vertex="1">
                    <mxGeometry x="539.32" y="309.64" width="81" height="30" as="geometry"/>
                </mxCell>
                <mxCell id="QyA3gau1I1b-mTRyT76p-45" value="g++ ..." style="text;html=1;strokeColor=none;fillColor=none;align=left;verticalAlign=middle;whiteSpace=wrap;rounded=0;sketch=0;fillStyle=auto;fontFamily=MonacoB2;fontSize=12;fontColor=#000000;fontStyle=1;rotation=5;" parent="QyA3gau1I1b-mTRyT76p-1" vertex="1">
                    <mxGeometry x="539.32" y="349.64" width="81" height="30" as="geometry"/>
                </mxCell>
                <mxCell id="QyA3gau1I1b-mTRyT76p-47" value="src streaming" style="text;html=1;strokeColor=none;fillColor=none;align=left;verticalAlign=middle;whiteSpace=wrap;rounded=0;sketch=0;fillStyle=auto;fontFamily=Verdana;fontSize=18;fontColor=#B266FF;" parent="QyA3gau1I1b-mTRyT76p-1" vertex="1">
                    <mxGeometry x="330.32" y="44" width="109.68" height="30" as="geometry"/>
                </mxCell>
                <mxCell id="QyA3gau1I1b-mTRyT76p-49" value="obj streaming" style="text;html=1;strokeColor=none;fillColor=none;align=right;verticalAlign=middle;whiteSpace=wrap;rounded=0;sketch=0;fillStyle=auto;fontFamily=Verdana;fontSize=18;fontColor=#FF8000;" parent="QyA3gau1I1b-mTRyT76p-1" vertex="1">
                    <mxGeometry x="380" y="332" width="100" height="30" as="geometry"/>
                </mxCell>
                <mxCell id="QyA3gau1I1b-mTRyT76p-53" style="edgeStyle=none;rounded=0;orthogonalLoop=1;jettySize=auto;html=1;exitX=0.25;exitY=1;exitDx=0;exitDy=0;entryX=0.289;entryY=0.545;entryDx=0;entryDy=0;entryPerimeter=0;fontFamily=Verdana;fontSize=18;fontColor=#000;strokeWidth=1;" parent="QyA3gau1I1b-mTRyT76p-1" edge="1">
                    <mxGeometry relative="1" as="geometry">
                        <mxPoint x="92.5" y="177" as="sourcePoint"/>
                        <mxPoint x="93.02999999999997" y="219.85000000000002" as="targetPoint"/>
                    </mxGeometry>
                </mxCell>
                <mxCell id="QyA3gau1I1b-mTRyT76p-63" style="edgeStyle=none;rounded=0;orthogonalLoop=1;jettySize=auto;html=1;exitX=1;exitY=0.25;exitDx=0;exitDy=0;entryX=0;entryY=0;entryDx=0;entryDy=30.5;entryPerimeter=0;fontFamily=Verdana;fontSize=12;fontColor=#000;strokeWidth=1;strokeColor=#B266FF;" parent="QyA3gau1I1b-mTRyT76p-1" source="QyA3gau1I1b-mTRyT76p-50" target="QyA3gau1I1b-mTRyT76p-29" edge="1">
                    <mxGeometry relative="1" as="geometry"/>
                </mxCell>
                <mxCell id="QyA3gau1I1b-mTRyT76p-65" style="edgeStyle=none;rounded=0;orthogonalLoop=1;jettySize=auto;html=1;exitX=1;exitY=0.5;exitDx=0;exitDy=0;entryX=0;entryY=0;entryDx=0;entryDy=30.5;entryPerimeter=0;fontFamily=Verdana;fontSize=12;fontColor=#000;strokeWidth=1;strokeColor=#B266FF;" parent="QyA3gau1I1b-mTRyT76p-1" source="QyA3gau1I1b-mTRyT76p-50" target="QyA3gau1I1b-mTRyT76p-35" edge="1">
                    <mxGeometry relative="1" as="geometry"/>
                </mxCell>
                <mxCell id="QyA3gau1I1b-mTRyT76p-67" style="edgeStyle=none;rounded=0;orthogonalLoop=1;jettySize=auto;html=1;exitX=1;exitY=0.75;exitDx=0;exitDy=0;entryX=0;entryY=0.5;entryDx=0;entryDy=0;fontFamily=Verdana;fontSize=12;fontColor=#000;strokeWidth=1;strokeColor=#B266FF;" parent="QyA3gau1I1b-mTRyT76p-1" source="QyA3gau1I1b-mTRyT76p-50" target="QyA3gau1I1b-mTRyT76p-42" edge="1">
                    <mxGeometry relative="1" as="geometry"/>
                </mxCell>
                <mxCell id="QyA3gau1I1b-mTRyT76p-68" style="edgeStyle=none;rounded=0;orthogonalLoop=1;jettySize=auto;html=1;exitX=1;exitY=0.75;exitDx=0;exitDy=0;entryX=0;entryY=0.5;entryDx=0;entryDy=0;fontFamily=Verdana;fontSize=12;fontColor=#000;strokeWidth=1;strokeColor=#B266FF;" parent="QyA3gau1I1b-mTRyT76p-1" source="QyA3gau1I1b-mTRyT76p-50" target="QyA3gau1I1b-mTRyT76p-9" edge="1">
                    <mxGeometry relative="1" as="geometry"/>
                </mxCell>
                <mxCell id="QyA3gau1I1b-mTRyT76p-69" style="edgeStyle=none;rounded=0;orthogonalLoop=1;jettySize=auto;html=1;exitX=1;exitY=0.75;exitDx=0;exitDy=0;entryX=0;entryY=0.5;entryDx=0;entryDy=0;fontFamily=Verdana;fontSize=12;fontColor=#000;strokeWidth=1;strokeColor=#B266FF;" parent="QyA3gau1I1b-mTRyT76p-1" source="QyA3gau1I1b-mTRyT76p-50" target="QyA3gau1I1b-mTRyT76p-6" edge="1">
                    <mxGeometry relative="1" as="geometry"/>
                </mxCell>
                <mxCell id="QyA3gau1I1b-mTRyT76p-72" style="edgeStyle=none;rounded=0;orthogonalLoop=1;jettySize=auto;html=1;exitX=0;exitY=1;exitDx=0;exitDy=-11;entryX=1;entryY=0.75;entryDx=0;entryDy=0;fontFamily=Verdana;fontSize=12;fontColor=#000;strokeWidth=1;exitPerimeter=0;strokeColor=#FF8000;" parent="QyA3gau1I1b-mTRyT76p-1" source="QyA3gau1I1b-mTRyT76p-3" target="QyA3gau1I1b-mTRyT76p-50" edge="1">
                    <mxGeometry relative="1" as="geometry"/>
                </mxCell>
                <mxCell id="QyA3gau1I1b-mTRyT76p-73" style="edgeStyle=none;rounded=0;orthogonalLoop=1;jettySize=auto;html=1;exitX=0;exitY=1;exitDx=0;exitDy=-11;entryX=1;entryY=0.75;entryDx=0;entryDy=0;fontFamily=Verdana;fontSize=12;fontColor=#000;strokeWidth=1;exitPerimeter=0;strokeColor=#FF8000;" parent="QyA3gau1I1b-mTRyT76p-1" source="QyA3gau1I1b-mTRyT76p-7" target="QyA3gau1I1b-mTRyT76p-50" edge="1">
                    <mxGeometry relative="1" as="geometry"/>
                </mxCell>
                <mxCell id="QyA3gau1I1b-mTRyT76p-74" style="edgeStyle=none;rounded=0;orthogonalLoop=1;jettySize=auto;html=1;exitX=0;exitY=0;exitDx=0;exitDy=0;entryX=1;entryY=0.75;entryDx=0;entryDy=0;fontFamily=Verdana;fontSize=12;fontColor=#000;strokeWidth=1;strokeColor=#FF8000;" parent="QyA3gau1I1b-mTRyT76p-1" source="QyA3gau1I1b-mTRyT76p-9" target="QyA3gau1I1b-mTRyT76p-50" edge="1">
                    <mxGeometry relative="1" as="geometry"/>
                </mxCell>
                <mxCell id="QyA3gau1I1b-mTRyT76p-50" value="&lt;font color=&quot;#6c8ebf&quot;&gt;&lt;br&gt;&lt;font style=&quot;font-size: 14px&quot;&gt;launched by 1st invocation&lt;/font&gt;&lt;/font&gt;" style="shape=process;whiteSpace=wrap;html=1;backgroundOutline=1;sketch=0;fillStyle=auto;fontFamily=Verdana;fontSize=18;strokeColor=#6c8ebf;fillColor=#dae8fc;strokeWidth=2;" parent="QyA3gau1I1b-mTRyT76p-1" vertex="1">
                    <mxGeometry x="40" y="86" width="230" height="91" as="geometry"/>
                </mxCell>
                <mxCell id="QyA3gau1I1b-mTRyT76p-52" value="nocc-daemon" style="text;html=1;strokeColor=none;fillColor=none;align=center;verticalAlign=middle;whiteSpace=wrap;rounded=0;sketch=0;fillStyle=auto;fontSize=16;fontFamily=Verdana;flipH=1;fontColor=#6C8EBF;fontStyle=1" parent="QyA3gau1I1b-mTRyT76p-1" vertex="1">
                    <mxGeometry x="70" y="88" width="170" height="30" as="geometry"/>
                </mxCell>
                <mxCell id="QyA3gau1I1b-mTRyT76p-54" style="edgeStyle=none;rounded=0;orthogonalLoop=1;jettySize=auto;html=1;exitX=0.25;exitY=1;exitDx=0;exitDy=0;entryX=0.289;entryY=0.545;entryDx=0;entryDy=0;entryPerimeter=0;fontFamily=Verdana;fontSize=18;fontColor=#000;strokeWidth=1;" parent="QyA3gau1I1b-mTRyT76p-1" edge="1">
                    <mxGeometry relative="1" as="geometry">
                        <mxPoint x="132.5" y="177" as="sourcePoint"/>
                        <mxPoint x="133.02999999999997" y="219.85000000000002" as="targetPoint"/>
                    </mxGeometry>
                </mxCell>
                <mxCell id="QyA3gau1I1b-mTRyT76p-55" style="edgeStyle=none;rounded=0;orthogonalLoop=1;jettySize=auto;html=1;exitX=0.25;exitY=1;exitDx=0;exitDy=0;entryX=0.289;entryY=0.545;entryDx=0;entryDy=0;entryPerimeter=0;fontFamily=Verdana;fontSize=18;fontColor=#000;strokeWidth=1;" parent="QyA3gau1I1b-mTRyT76p-1" edge="1">
                    <mxGeometry relative="1" as="geometry">
                        <mxPoint x="113.02999999999997" y="219.85000000000002" as="sourcePoint"/>
                        <mxPoint x="112.5" y="177" as="targetPoint"/>
                    </mxGeometry>
                </mxCell>
                <mxCell id="QyA3gau1I1b-mTRyT76p-56" style="edgeStyle=none;rounded=0;orthogonalLoop=1;jettySize=auto;html=1;exitX=0.25;exitY=1;exitDx=0;exitDy=0;entryX=0.289;entryY=0.545;entryDx=0;entryDy=0;entryPerimeter=0;fontFamily=Verdana;fontSize=18;fontColor=#000;strokeWidth=1;" parent="QyA3gau1I1b-mTRyT76p-1" edge="1">
                    <mxGeometry relative="1" as="geometry">
                        <mxPoint x="153.02999999999997" y="219.85000000000002" as="sourcePoint"/>
                        <mxPoint x="152.5" y="177" as="targetPoint"/>
                    </mxGeometry>
                </mxCell>
                <mxCell id="QyA3gau1I1b-mTRyT76p-57" style="edgeStyle=none;rounded=0;orthogonalLoop=1;jettySize=auto;html=1;exitX=0.25;exitY=1;exitDx=0;exitDy=0;entryX=0.289;entryY=0.545;entryDx=0;entryDy=0;entryPerimeter=0;fontFamily=Verdana;fontSize=18;fontColor=#000;strokeWidth=1;" parent="QyA3gau1I1b-mTRyT76p-1" edge="1">
                    <mxGeometry relative="1" as="geometry">
                        <mxPoint x="172.5" y="177" as="sourcePoint"/>
                        <mxPoint x="173.02999999999997" y="219.85000000000002" as="targetPoint"/>
                    </mxGeometry>
                </mxCell>
                <mxCell id="QyA3gau1I1b-mTRyT76p-58" style="edgeStyle=none;rounded=0;orthogonalLoop=1;jettySize=auto;html=1;exitX=0.25;exitY=1;exitDx=0;exitDy=0;entryX=0.289;entryY=0.545;entryDx=0;entryDy=0;entryPerimeter=0;fontFamily=Verdana;fontSize=18;fontColor=#000;strokeWidth=1;" parent="QyA3gau1I1b-mTRyT76p-1" edge="1">
                    <mxGeometry relative="1" as="geometry">
                        <mxPoint x="193.02999999999997" y="219.85000000000002" as="sourcePoint"/>
                        <mxPoint x="192.5" y="177" as="targetPoint"/>
                    </mxGeometry>
                </mxCell>
                <mxCell id="QyA3gau1I1b-mTRyT76p-59" style="edgeStyle=none;rounded=0;orthogonalLoop=1;jettySize=auto;html=1;exitX=0.25;exitY=1;exitDx=0;exitDy=0;entryX=0.289;entryY=0.545;entryDx=0;entryDy=0;entryPerimeter=0;fontFamily=Verdana;fontSize=18;fontColor=#000;strokeWidth=1;" parent="QyA3gau1I1b-mTRyT76p-1" edge="1">
                    <mxGeometry relative="1" as="geometry">
                        <mxPoint x="212.5" y="177" as="sourcePoint"/>
                        <mxPoint x="213.02999999999997" y="219.85000000000002" as="targetPoint"/>
                    </mxGeometry>
                </mxCell>
                <mxCell id="QyA3gau1I1b-mTRyT76p-60" value="unix socket" style="text;html=1;strokeColor=none;fillColor=#F5f5f5;align=center;verticalAlign=middle;whiteSpace=wrap;rounded=0;sketch=0;fillStyle=auto;fontFamily=Verdana;fontSize=12;fontColor=#000;" parent="QyA3gau1I1b-mTRyT76p-1" vertex="1">
                    <mxGeometry x="115" y="190" width="76" height="18" as="geometry"/>
                </mxCell>
            </root>
        </mxGraphModel>
    </diagram>
    <diagram id="v6LAczm0douFra3n3U1J" name="make -j">
        <mxGraphModel dx="2547" dy="726" grid="1" gridSize="10" guides="1" tooltips="1" connect="1" arrows="1" fold="1" page="1" pageScale="1" pageWidth="827" pageHeight="1169" math="0" shadow="0">
            <root>
                <mxCell id="i-44iHRmP6GOAPovrY48-0"/>
                <mxCell id="i-44iHRmP6GOAPovrY48-1" parent="i-44iHRmP6GOAPovrY48-0"/>
                <mxCell id="QJKOItotEkMgWryAwC-R-0" value="" style="rounded=0;whiteSpace=wrap;html=1;fillColor=#f5f5f5;fontColor=#333333;strokeColor=#666666;" parent="i-44iHRmP6GOAPovrY48-1" vertex="1">
                    <mxGeometry x="20" y="40" width="230" height="300" as="geometry"/>
                </mxCell>
                <mxCell id="QJKOItotEkMgWryAwC-R-2" value="nocc g++ ... 1.cpp" style="shape=card;whiteSpace=wrap;html=1;sketch=0;fillStyle=auto;fontSize=14;fontColor=#000000;fillColor=default;gradientColor=none;fontFamily=MonacoB2;fontStyle=1;size=20;verticalAlign=top;spacingTop=0;" parent="i-44iHRmP6GOAPovrY48-1" vertex="1">
                    <mxGeometry x="20" y="160" width="230" height="30" as="geometry"/>
                </mxCell>
                <mxCell id="QJKOItotEkMgWryAwC-R-3" value="nocc g++ ... 2.cpp" style="shape=card;whiteSpace=wrap;html=1;sketch=0;fillStyle=auto;fontSize=14;fontColor=#000000;fillColor=default;gradientColor=none;fontFamily=MonacoB2;fontStyle=1;size=20;verticalAlign=top;spacingTop=0;" parent="i-44iHRmP6GOAPovrY48-1" vertex="1">
                    <mxGeometry x="20" y="190" width="230" height="30" as="geometry"/>
                </mxCell>
                <mxCell id="QJKOItotEkMgWryAwC-R-14" value="" style="shape=card;whiteSpace=wrap;html=1;sketch=0;fillStyle=auto;fontSize=14;fontColor=#000000;fillColor=default;gradientColor=none;fontFamily=MonacoB2;fontStyle=1;size=20;verticalAlign=top;spacingTop=0;" parent="i-44iHRmP6GOAPovrY48-1" vertex="1">
                    <mxGeometry x="20" y="220" width="80" height="30" as="geometry"/>
                </mxCell>
                <mxCell id="QJKOItotEkMgWryAwC-R-15" value="nocc g++ ... 100.cpp" style="shape=card;whiteSpace=wrap;html=1;sketch=0;fillStyle=auto;fontSize=14;fontColor=#000000;fillColor=default;gradientColor=none;fontFamily=MonacoB2;fontStyle=1;size=20;verticalAlign=top;spacingTop=0;" parent="i-44iHRmP6GOAPovrY48-1" vertex="1">
                    <mxGeometry x="20" y="250" width="230" height="30" as="geometry"/>
                </mxCell>
                <mxCell id="QJKOItotEkMgWryAwC-R-16" value="" style="rounded=0;whiteSpace=wrap;html=1;fillColor=#f5f5f5;fontColor=#333333;strokeColor=#666666;" parent="i-44iHRmP6GOAPovrY48-1" vertex="1">
                    <mxGeometry x="295" y="40" width="230" height="300" as="geometry"/>
                </mxCell>
                <mxCell id="QJKOItotEkMgWryAwC-R-17" value="nocc g++ ... 1.cpp" style="shape=card;whiteSpace=wrap;html=1;sketch=0;fillStyle=auto;fontSize=14;fontColor=#000000;fillColor=default;gradientColor=none;fontFamily=MonacoB2;fontStyle=1;size=20;verticalAlign=top;spacingTop=0;" parent="i-44iHRmP6GOAPovrY48-1" vertex="1">
                    <mxGeometry x="295" y="160" width="230" height="30" as="geometry"/>
                </mxCell>
                <mxCell id="QJKOItotEkMgWryAwC-R-18" value="&lt;strike&gt;nocc g++ ... 2.cpp&lt;/strike&gt;" style="shape=card;whiteSpace=wrap;html=1;sketch=0;fillStyle=auto;fontSize=14;fillColor=#f8cecc;fontFamily=MonacoB2;fontStyle=1;size=20;verticalAlign=top;spacingTop=0;strokeColor=#b85450;" parent="i-44iHRmP6GOAPovrY48-1" vertex="1">
                    <mxGeometry x="295" y="190" width="230" height="30" as="geometry"/>
                </mxCell>
                <mxCell id="QJKOItotEkMgWryAwC-R-20" value="nocc g++ ... 100.cpp" style="shape=card;whiteSpace=wrap;html=1;sketch=0;fillStyle=auto;fontSize=14;fontColor=#000000;fillColor=default;gradientColor=none;fontFamily=MonacoB2;fontStyle=1;size=20;verticalAlign=top;spacingTop=0;" parent="i-44iHRmP6GOAPovrY48-1" vertex="1">
                    <mxGeometry x="295" y="250" width="230" height="30" as="geometry"/>
                </mxCell>
                <mxCell id="QJKOItotEkMgWryAwC-R-21" value="" style="rounded=0;whiteSpace=wrap;html=1;fillColor=#f5f5f5;fontColor=#333333;strokeColor=#666666;" parent="i-44iHRmP6GOAPovrY48-1" vertex="1">
                    <mxGeometry x="570" y="40" width="230" height="300" as="geometry"/>
                </mxCell>
                <mxCell id="QJKOItotEkMgWryAwC-R-22" value="nocc g++ ... 1.cpp" style="shape=card;whiteSpace=wrap;html=1;sketch=0;fillStyle=auto;fontSize=14;fontColor=#000000;fillColor=default;gradientColor=none;fontFamily=MonacoB2;fontStyle=1;size=20;verticalAlign=top;spacingTop=0;" parent="i-44iHRmP6GOAPovrY48-1" vertex="1">
                    <mxGeometry x="570" y="160" width="230" height="30" as="geometry"/>
                </mxCell>
                <mxCell id="QJKOItotEkMgWryAwC-R-23" value="&lt;strike&gt;nocc g++ ... 2.cpp&lt;/strike&gt;" style="shape=card;whiteSpace=wrap;html=1;sketch=0;fillStyle=auto;fontSize=14;fontFamily=MonacoB2;fontStyle=1;size=20;verticalAlign=top;spacingTop=0;opacity=20;textOpacity=20;" parent="i-44iHRmP6GOAPovrY48-1" vertex="1">
                    <mxGeometry x="570" y="190" width="230" height="30" as="geometry"/>
                </mxCell>
                <mxCell id="QJKOItotEkMgWryAwC-R-25" value="nocc g++ ... 100.cpp" style="shape=card;whiteSpace=wrap;html=1;sketch=0;fillStyle=auto;fontSize=14;fontFamily=MonacoB2;fontStyle=1;size=20;verticalAlign=top;spacingTop=0;" parent="i-44iHRmP6GOAPovrY48-1" vertex="1">
                    <mxGeometry x="570" y="250" width="230" height="30" as="geometry"/>
                </mxCell>
                <mxCell id="6RDPRJbebU4aQUCimwgW-0" value="nocc g++ ... 101.cpp" style="shape=card;whiteSpace=wrap;html=1;sketch=0;fillStyle=auto;fontSize=14;fillColor=#d5e8d4;fontFamily=MonacoB2;fontStyle=1;size=20;verticalAlign=top;spacingTop=0;strokeColor=#82b366;" parent="i-44iHRmP6GOAPovrY48-1" vertex="1">
                    <mxGeometry x="295" y="280" width="230" height="30" as="geometry"/>
                </mxCell>
                <mxCell id="6RDPRJbebU4aQUCimwgW-1" value="nocc g++ ... 101.cpp" style="shape=card;whiteSpace=wrap;html=1;sketch=0;fillStyle=auto;fontSize=14;fontFamily=MonacoB2;fontStyle=1;size=20;verticalAlign=top;spacingTop=0;" parent="i-44iHRmP6GOAPovrY48-1" vertex="1">
                    <mxGeometry x="570" y="280" width="230" height="30" as="geometry"/>
                </mxCell>
                <mxCell id="6RDPRJbebU4aQUCimwgW-2" value="nocc g++ ... 102.cpp" style="shape=card;whiteSpace=wrap;html=1;sketch=0;fillStyle=auto;fontSize=14;fillColor=#d5e8d4;fontFamily=MonacoB2;fontStyle=1;size=20;verticalAlign=top;spacingTop=0;strokeColor=#82b366;" parent="i-44iHRmP6GOAPovrY48-1" vertex="1">
                    <mxGeometry x="570" y="310" width="230" height="30" as="geometry"/>
                </mxCell>
                <mxCell id="6RDPRJbebU4aQUCimwgW-3" value="" style="shape=card;whiteSpace=wrap;html=1;sketch=0;fillStyle=auto;fontSize=14;fontColor=#000000;fillColor=default;gradientColor=none;fontFamily=MonacoB2;fontStyle=1;size=20;verticalAlign=top;spacingTop=0;" parent="i-44iHRmP6GOAPovrY48-1" vertex="1">
                    <mxGeometry x="100" y="220" width="70" height="30" as="geometry"/>
                </mxCell>
                <mxCell id="6RDPRJbebU4aQUCimwgW-4" value="" style="shape=card;whiteSpace=wrap;html=1;sketch=0;fillStyle=auto;fontSize=14;fontColor=#000000;fillColor=default;gradientColor=none;fontFamily=MonacoB2;fontStyle=1;size=20;verticalAlign=top;spacingTop=0;" parent="i-44iHRmP6GOAPovrY48-1" vertex="1">
                    <mxGeometry x="170" y="220" width="80" height="30" as="geometry"/>
                </mxCell>
                <mxCell id="6RDPRJbebU4aQUCimwgW-5" value="" style="shape=card;whiteSpace=wrap;html=1;sketch=0;fillStyle=auto;fontSize=14;fontColor=#000000;fillColor=default;gradientColor=none;fontFamily=MonacoB2;fontStyle=1;size=20;verticalAlign=top;spacingTop=0;" parent="i-44iHRmP6GOAPovrY48-1" vertex="1">
                    <mxGeometry x="295" y="220" width="80" height="30" as="geometry"/>
                </mxCell>
                <mxCell id="6RDPRJbebU4aQUCimwgW-6" value="" style="shape=card;whiteSpace=wrap;html=1;sketch=0;fillStyle=auto;fontSize=14;fontColor=#000000;fillColor=default;gradientColor=none;fontFamily=MonacoB2;fontStyle=1;size=20;verticalAlign=top;spacingTop=0;" parent="i-44iHRmP6GOAPovrY48-1" vertex="1">
                    <mxGeometry x="375" y="220" width="70" height="30" as="geometry"/>
                </mxCell>
                <mxCell id="6RDPRJbebU4aQUCimwgW-7" value="" style="shape=card;whiteSpace=wrap;html=1;sketch=0;fillStyle=auto;fontSize=14;fontColor=#000000;fillColor=default;gradientColor=none;fontFamily=MonacoB2;fontStyle=1;size=20;verticalAlign=top;spacingTop=0;" parent="i-44iHRmP6GOAPovrY48-1" vertex="1">
                    <mxGeometry x="445" y="220" width="80" height="30" as="geometry"/>
                </mxCell>
                <mxCell id="6RDPRJbebU4aQUCimwgW-8" value="" style="shape=card;whiteSpace=wrap;html=1;sketch=0;fillStyle=auto;fontSize=14;fontColor=#000000;fillColor=default;gradientColor=none;fontFamily=MonacoB2;fontStyle=1;size=20;verticalAlign=top;spacingTop=0;" parent="i-44iHRmP6GOAPovrY48-1" vertex="1">
                    <mxGeometry x="570" y="220" width="80" height="30" as="geometry"/>
                </mxCell>
                <mxCell id="6RDPRJbebU4aQUCimwgW-9" value="" style="shape=card;whiteSpace=wrap;html=1;sketch=0;fillStyle=auto;fontSize=14;fontColor=#000000;fillColor=default;gradientColor=none;fontFamily=MonacoB2;fontStyle=1;size=20;verticalAlign=top;spacingTop=0;" parent="i-44iHRmP6GOAPovrY48-1" vertex="1">
                    <mxGeometry x="650" y="220" width="70" height="30" as="geometry"/>
                </mxCell>
                <mxCell id="6RDPRJbebU4aQUCimwgW-10" value="" style="shape=card;whiteSpace=wrap;html=1;sketch=0;fillStyle=auto;fontSize=14;fillColor=#f8cecc;fontFamily=MonacoB2;fontStyle=1;size=20;verticalAlign=top;spacingTop=0;strokeColor=#b85450;" parent="i-44iHRmP6GOAPovrY48-1" vertex="1">
                    <mxGeometry x="720" y="220" width="80" height="30" as="geometry"/>
                </mxCell>
                <mxCell id="4SbRoTyhIqkXjb-QQLPN-0" value="make -j 100" style="text;html=1;strokeColor=none;fillColor=none;align=center;verticalAlign=middle;whiteSpace=wrap;rounded=0;sketch=0;fillStyle=auto;fontSize=16;fontFamily=Verdana;" parent="i-44iHRmP6GOAPovrY48-1" vertex="1">
                    <mxGeometry x="20" y="44" width="230" height="30" as="geometry"/>
                </mxCell>
                <mxCell id="JJjKawy8FTwcxcUukvej-0" value="make -j 100" style="text;html=1;strokeColor=none;fillColor=none;align=center;verticalAlign=middle;whiteSpace=wrap;rounded=0;sketch=0;fillStyle=auto;fontSize=16;fontFamily=Verdana;" parent="i-44iHRmP6GOAPovrY48-1" vertex="1">
                    <mxGeometry x="295" y="44" width="230" height="30" as="geometry"/>
                </mxCell>
                <mxCell id="JJjKawy8FTwcxcUukvej-1" value="make -j 100" style="text;html=1;strokeColor=none;fillColor=none;align=center;verticalAlign=middle;whiteSpace=wrap;rounded=0;sketch=0;fillStyle=auto;fontSize=16;fontFamily=Verdana;" parent="i-44iHRmP6GOAPovrY48-1" vertex="1">
                    <mxGeometry x="570" y="44" width="230" height="30" as="geometry"/>
                </mxCell>
                <mxCell id="xhXcIXgtaGvyIEgwZw2Y-0" value="" style="shape=process;whiteSpace=wrap;html=1;backgroundOutline=1;sketch=0;fillStyle=auto;fontFamily=Verdana;fontSize=18;strokeColor=#6c8ebf;fillColor=#dae8fc;strokeWidth=2;" parent="i-44iHRmP6GOAPovrY48-1" vertex="1">
                    <mxGeometry x="40" y="82" width="190" height="58" as="geometry"/>
                </mxCell>
                <mxCell id="xhXcIXgtaGvyIEgwZw2Y-1" value="nocc-daemon" style="text;html=1;strokeColor=none;fillColor=none;align=center;verticalAlign=middle;whiteSpace=wrap;rounded=0;sketch=0;fillStyle=auto;fontSize=16;fontFamily=Verdana;flipH=1;fontColor=#6C8EBF;fontStyle=0" parent="i-44iHRmP6GOAPovrY48-1" vertex="1">
                    <mxGeometry x="50" y="90" width="170" height="30" as="geometry"/>
                </mxCell>
                <mxCell id="bNq1V1WJW7E2NnHZuALY-0" value="" style="shape=process;whiteSpace=wrap;html=1;backgroundOutline=1;sketch=0;fillStyle=auto;fontFamily=Verdana;fontSize=18;strokeColor=#6c8ebf;fillColor=#dae8fc;strokeWidth=2;" parent="i-44iHRmP6GOAPovrY48-1" vertex="1">
                    <mxGeometry x="320" y="82" width="190" height="58" as="geometry"/>
                </mxCell>
                <mxCell id="bNq1V1WJW7E2NnHZuALY-1" value="nocc-daemon" style="text;html=1;strokeColor=none;fillColor=none;align=center;verticalAlign=middle;whiteSpace=wrap;rounded=0;sketch=0;fillStyle=auto;fontSize=16;fontFamily=Verdana;flipH=1;fontColor=#6C8EBF;fontStyle=0" parent="i-44iHRmP6GOAPovrY48-1" vertex="1">
                    <mxGeometry x="330" y="90" width="170" height="30" as="geometry"/>
                </mxCell>
                <mxCell id="bNq1V1WJW7E2NnHZuALY-2" value="" style="shape=process;whiteSpace=wrap;html=1;backgroundOutline=1;sketch=0;fillStyle=auto;fontFamily=Verdana;fontSize=18;strokeColor=#6c8ebf;fillColor=#dae8fc;strokeWidth=2;" parent="i-44iHRmP6GOAPovrY48-1" vertex="1">
                    <mxGeometry x="590" y="82" width="190" height="58" as="geometry"/>
                </mxCell>
                <mxCell id="bNq1V1WJW7E2NnHZuALY-3" value="nocc-daemon" style="text;html=1;strokeColor=none;fillColor=none;align=center;verticalAlign=middle;whiteSpace=wrap;rounded=0;sketch=0;fillStyle=auto;fontSize=16;fontFamily=Verdana;flipH=1;fontColor=#6C8EBF;fontStyle=0" parent="i-44iHRmP6GOAPovrY48-1" vertex="1">
                    <mxGeometry x="600" y="90" width="170" height="30" as="geometry"/>
                </mxCell>
            </root>
        </mxGraphModel>
    </diagram>
    <diagram id="r4zyt2fjOQTczmDMk4yc" name="distcc-one">
        <mxGraphModel dx="2547" dy="726" grid="1" gridSize="10" guides="1" tooltips="1" connect="1" arrows="1" fold="1" page="1" pageScale="1" pageWidth="827" pageHeight="1169" math="0" shadow="0">
            <root>
                <mxCell id="5ZNAEyqUdV0qs6n0Jq9s-0"/>
                <mxCell id="5ZNAEyqUdV0qs6n0Jq9s-1" parent="5ZNAEyqUdV0qs6n0Jq9s-0"/>
                <mxCell id="ldkqajRP4KXvcLEiCc81-0" value="" style="rounded=0;whiteSpace=wrap;html=1;fillColor=#f5f5f5;fontColor=#333333;strokeColor=#666666;" parent="5ZNAEyqUdV0qs6n0Jq9s-1" vertex="1">
                    <mxGeometry x="20" y="120" width="270" height="200" as="geometry"/>
                </mxCell>
                <mxCell id="ldkqajRP4KXvcLEiCc81-1" value="client" style="text;html=1;strokeColor=none;fillColor=none;align=center;verticalAlign=middle;whiteSpace=wrap;rounded=0;sketch=0;fillStyle=auto;fontSize=16;fontFamily=Verdana;" parent="5ZNAEyqUdV0qs6n0Jq9s-1" vertex="1">
                    <mxGeometry x="20" y="124" width="270" height="30" as="geometry"/>
                </mxCell>
                <mxCell id="ldkqajRP4KXvcLEiCc81-2" value="distcc g++ 1.cpp -o 1.o -c" style="shape=card;whiteSpace=wrap;html=1;sketch=0;fillStyle=auto;fontSize=14;fontColor=#000000;fillColor=default;gradientColor=none;fontFamily=MonacoB2;fontStyle=1;size=20;verticalAlign=top;spacingTop=16;" parent="5ZNAEyqUdV0qs6n0Jq9s-1" vertex="1">
                    <mxGeometry x="20" y="160" width="270" height="160" as="geometry"/>
                </mxCell>
                <mxCell id="ldkqajRP4KXvcLEiCc81-3" value="save 1.o" style="text;html=1;strokeColor=none;fillColor=none;align=right;verticalAlign=middle;whiteSpace=wrap;rounded=0;sketch=0;fillStyle=auto;fontFamily=Verdana;fontSize=14;fontColor=#666666;" parent="5ZNAEyqUdV0qs6n0Jq9s-1" vertex="1">
                    <mxGeometry x="98" y="267" width="180" height="30" as="geometry"/>
                </mxCell>
                <mxCell id="ldkqajRP4KXvcLEiCc81-4" value="g++ -E 1.cpp ..." style="text;html=1;strokeColor=none;fillColor=none;align=right;verticalAlign=middle;whiteSpace=wrap;rounded=0;sketch=0;fillStyle=auto;fontFamily=Verdana;fontSize=14;fontColor=#666666;fontStyle=2" parent="5ZNAEyqUdV0qs6n0Jq9s-1" vertex="1">
                    <mxGeometry x="98" y="212" width="180" height="30" as="geometry"/>
                </mxCell>
                <mxCell id="vea0VrEdpu7qZiAiIIki-0" value="" style="shape=cylinder3;whiteSpace=wrap;html=1;boundedLbl=1;backgroundOutline=1;size=20;gradientColor=none;sketch=0;fillStyle=auto;fillColor=#fff2cc;strokeColor=#7A6831;" parent="5ZNAEyqUdV0qs6n0Jq9s-1" vertex="1">
                    <mxGeometry x="530" y="120" width="270" height="200" as="geometry"/>
                </mxCell>
                <mxCell id="vea0VrEdpu7qZiAiIIki-1" value="distccd" style="text;html=1;strokeColor=none;fillColor=none;align=center;verticalAlign=middle;whiteSpace=wrap;rounded=0;sketch=0;fillStyle=auto;fontSize=16;fontFamily=Verdana;fontColor=#7A6831;" parent="5ZNAEyqUdV0qs6n0Jq9s-1" vertex="1">
                    <mxGeometry x="530" y="124" width="270" height="30" as="geometry"/>
                </mxCell>
                <mxCell id="CSfyoYax99FHSk0xJ1Cn-0" value="cpp code after preprocessor" style="edgeStyle=none;rounded=0;orthogonalLoop=1;jettySize=auto;html=1;exitX=1;exitY=0.5;exitDx=0;exitDy=0;exitPerimeter=0;entryX=0;entryY=0.6;entryDx=0;entryDy=0;entryPerimeter=0;fontFamily=Verdana;fontSize=14;fontColor=#B266FF;fontStyle=2;labelPosition=center;verticalLabelPosition=top;align=center;verticalAlign=bottom;strokeColor=#B266FF;strokeWidth=2;" parent="5ZNAEyqUdV0qs6n0Jq9s-1" edge="1">
                    <mxGeometry relative="1" as="geometry">
                        <mxPoint x="290" y="228" as="sourcePoint"/>
                        <mxPoint x="530" y="228" as="targetPoint"/>
                    </mxGeometry>
                </mxCell>
                <mxCell id="f7WJqHvicDW_o9DkdkSX-0" value="g++ 1-processed.cpp -o 1.o -c" style="text;html=1;strokeColor=none;fillColor=none;align=left;verticalAlign=middle;whiteSpace=wrap;rounded=0;sketch=0;fillStyle=auto;fontFamily=MonacoB2;fontSize=14;fontColor=#000000;fontStyle=1" parent="5ZNAEyqUdV0qs6n0Jq9s-1" vertex="1">
                    <mxGeometry x="542" y="237" width="250" height="30" as="geometry"/>
                </mxCell>
                <mxCell id="18rTHqpCLsDEbUa__4y8-0" style="edgeStyle=none;rounded=0;orthogonalLoop=1;jettySize=auto;html=1;exitX=1;exitY=0.5;exitDx=0;exitDy=0;exitPerimeter=0;entryX=0;entryY=0.6;entryDx=0;entryDy=0;entryPerimeter=0;fontFamily=Helvetica;fontSize=16;fontColor=#000000;strokeColor=#FF8000;strokeWidth=2;" parent="5ZNAEyqUdV0qs6n0Jq9s-1" edge="1">
                    <mxGeometry relative="1" as="geometry">
                        <mxPoint x="530" y="282" as="sourcePoint"/>
                        <mxPoint x="290" y="282" as="targetPoint"/>
                    </mxGeometry>
                </mxCell>
                <mxCell id="18rTHqpCLsDEbUa__4y8-1" value="compiled obj" style="edgeLabel;html=1;align=center;verticalAlign=bottom;resizable=0;points=[];fontSize=14;fontFamily=Verdana;fontColor=#FF8000;fontStyle=2;labelPosition=center;verticalLabelPosition=top;" parent="18rTHqpCLsDEbUa__4y8-0" vertex="1" connectable="0">
                    <mxGeometry x="-0.0167" relative="1" as="geometry">
                        <mxPoint as="offset"/>
                    </mxGeometry>
                </mxCell>
            </root>
        </mxGraphModel>
    </diagram>
    <diagram id="fLQFJjr62JMAd1n9mdfW" name="distcc-many">
        <mxGraphModel dx="2547" dy="726" grid="1" gridSize="10" guides="1" tooltips="1" connect="1" arrows="1" fold="1" page="1" pageScale="1" pageWidth="827" pageHeight="1169" math="0" shadow="0">
            <root>
                <mxCell id="QKYR6YoZhiCHP2Ia78cL-0"/>
                <mxCell id="QKYR6YoZhiCHP2Ia78cL-1" parent="QKYR6YoZhiCHP2Ia78cL-0"/>
                <mxCell id="QKYR6YoZhiCHP2Ia78cL-2" style="edgeStyle=none;rounded=0;orthogonalLoop=1;jettySize=auto;html=1;exitX=0;exitY=1;exitDx=0;exitDy=-11;exitPerimeter=0;entryX=1;entryY=0.5;entryDx=0;entryDy=0;entryPerimeter=0;fontFamily=Verdana;fontSize=12;fontColor=#7A6831;opacity=20;" parent="QKYR6YoZhiCHP2Ia78cL-1" source="QKYR6YoZhiCHP2Ia78cL-3" target="QKYR6YoZhiCHP2Ia78cL-25" edge="1">
                    <mxGeometry relative="1" as="geometry"/>
                </mxCell>
                <mxCell id="QKYR6YoZhiCHP2Ia78cL-3" value="" style="shape=cylinder3;whiteSpace=wrap;html=1;boundedLbl=1;backgroundOutline=1;size=11;gradientColor=none;sketch=0;fillStyle=auto;fillColor=#fff2cc;strokeColor=#7A6831;" parent="QKYR6YoZhiCHP2Ia78cL-1" vertex="1">
                    <mxGeometry x="530" y="334" width="270" height="46" as="geometry"/>
                </mxCell>
                <mxCell id="QKYR6YoZhiCHP2Ia78cL-4" style="edgeStyle=none;rounded=0;orthogonalLoop=1;jettySize=auto;html=1;exitX=0;exitY=0;exitDx=0;exitDy=0;entryX=1;entryY=0.5;entryDx=0;entryDy=0;entryPerimeter=0;fontFamily=Verdana;fontSize=12;fontColor=#7A6831;strokeColor=#FF8000;" parent="QKYR6YoZhiCHP2Ia78cL-1" source="QKYR6YoZhiCHP2Ia78cL-6" target="QKYR6YoZhiCHP2Ia78cL-17" edge="1">
                    <mxGeometry relative="1" as="geometry"/>
                </mxCell>
                <mxCell id="QKYR6YoZhiCHP2Ia78cL-5" style="edgeStyle=none;rounded=0;orthogonalLoop=1;jettySize=auto;html=1;exitX=0;exitY=0;exitDx=0;exitDy=0;entryX=1;entryY=0.5;entryDx=0;entryDy=0;entryPerimeter=0;fontFamily=Verdana;fontSize=12;fontColor=#7A6831;opacity=20;strokeColor=#FF8000;" parent="QKYR6YoZhiCHP2Ia78cL-1" source="QKYR6YoZhiCHP2Ia78cL-6" target="QKYR6YoZhiCHP2Ia78cL-25" edge="1">
                    <mxGeometry relative="1" as="geometry"/>
                </mxCell>
                <mxCell id="QKYR6YoZhiCHP2Ia78cL-6" value="distccd 5" style="text;strokeColor=none;fillColor=none;align=center;verticalAlign=middle;whiteSpace=wrap;rounded=0;sketch=0;fillStyle=auto;fontSize=14;fontFamily=Verdana;fontStyle=0;horizontal=1;html=1;spacing=2;fontColor=#7A6831;" parent="QKYR6YoZhiCHP2Ia78cL-1" vertex="1">
                    <mxGeometry x="530" y="329" width="270" height="30" as="geometry"/>
                </mxCell>
                <mxCell id="QKYR6YoZhiCHP2Ia78cL-7" value="" style="shape=cylinder3;whiteSpace=wrap;html=1;boundedLbl=1;backgroundOutline=1;size=11;gradientColor=none;sketch=0;fillStyle=auto;fillColor=#fff2cc;strokeColor=#7A6831;" parent="QKYR6YoZhiCHP2Ia78cL-1" vertex="1">
                    <mxGeometry x="530" y="294" width="270" height="46" as="geometry"/>
                </mxCell>
                <mxCell id="QKYR6YoZhiCHP2Ia78cL-8" style="edgeStyle=none;rounded=0;orthogonalLoop=1;jettySize=auto;html=1;exitX=0;exitY=0;exitDx=0;exitDy=0;entryX=1;entryY=0.5;entryDx=0;entryDy=0;entryPerimeter=0;fontFamily=Verdana;fontSize=12;fontColor=#7A6831;strokeColor=#FF8000;" parent="QKYR6YoZhiCHP2Ia78cL-1" source="QKYR6YoZhiCHP2Ia78cL-9" target="QKYR6YoZhiCHP2Ia78cL-27" edge="1">
                    <mxGeometry relative="1" as="geometry"/>
                </mxCell>
                <mxCell id="QKYR6YoZhiCHP2Ia78cL-9" value="distccd 4" style="text;strokeColor=none;fillColor=none;align=center;verticalAlign=middle;whiteSpace=wrap;rounded=0;sketch=0;fillStyle=auto;fontSize=14;fontFamily=Verdana;fontStyle=0;horizontal=1;html=1;spacing=2;fontColor=#7A6831;" parent="QKYR6YoZhiCHP2Ia78cL-1" vertex="1">
                    <mxGeometry x="530" y="289" width="270" height="30" as="geometry"/>
                </mxCell>
                <mxCell id="QKYR6YoZhiCHP2Ia78cL-10" value="" style="rounded=0;whiteSpace=wrap;html=1;fillColor=#f5f5f5;fontColor=#333333;strokeColor=#666666;" parent="QKYR6YoZhiCHP2Ia78cL-1" vertex="1">
                    <mxGeometry x="20" y="60" width="270" height="290" as="geometry"/>
                </mxCell>
                <mxCell id="QKYR6YoZhiCHP2Ia78cL-11" value="client" style="text;html=1;strokeColor=none;fillColor=none;align=center;verticalAlign=middle;whiteSpace=wrap;rounded=0;sketch=0;fillStyle=auto;fontSize=16;fontFamily=Verdana;" parent="QKYR6YoZhiCHP2Ia78cL-1" vertex="1">
                    <mxGeometry x="20" y="64" width="270" height="30" as="geometry"/>
                </mxCell>
                <mxCell id="QKYR6YoZhiCHP2Ia78cL-12" style="edgeStyle=none;rounded=0;orthogonalLoop=1;jettySize=auto;html=1;exitX=1;exitY=0.5;exitDx=0;exitDy=0;exitPerimeter=0;entryX=0;entryY=0;entryDx=0;entryDy=11;entryPerimeter=0;fontFamily=Verdana;fontSize=12;fontColor=#7A6831;strokeColor=#B266FF;" parent="QKYR6YoZhiCHP2Ia78cL-1" source="QKYR6YoZhiCHP2Ia78cL-13" target="QKYR6YoZhiCHP2Ia78cL-35" edge="1">
                    <mxGeometry relative="1" as="geometry"/>
                </mxCell>
                <mxCell id="QKYR6YoZhiCHP2Ia78cL-13" value="distcc g++ 1.cpp -o 1.o -c" style="shape=card;whiteSpace=wrap;html=1;sketch=0;fillStyle=auto;fontSize=14;fontColor=#000000;fillColor=default;gradientColor=none;fontFamily=MonacoB2;fontStyle=1;size=20;verticalAlign=top;spacingTop=0;" parent="QKYR6YoZhiCHP2Ia78cL-1" vertex="1">
                    <mxGeometry x="20" y="100" width="270" height="50" as="geometry"/>
                </mxCell>
                <mxCell id="QKYR6YoZhiCHP2Ia78cL-14" style="edgeStyle=none;rounded=0;orthogonalLoop=1;jettySize=auto;html=1;exitX=1;exitY=0.5;exitDx=0;exitDy=0;exitPerimeter=0;entryX=0;entryY=0.5;entryDx=0;entryDy=0;fontFamily=Verdana;fontSize=12;fontColor=#7A6831;strokeColor=#B266FF;" parent="QKYR6YoZhiCHP2Ia78cL-1" source="QKYR6YoZhiCHP2Ia78cL-15" target="QKYR6YoZhiCHP2Ia78cL-40" edge="1">
                    <mxGeometry relative="1" as="geometry"/>
                </mxCell>
                <mxCell id="QKYR6YoZhiCHP2Ia78cL-15" value="distcc g++ 2.cpp -o 2.o -c" style="shape=card;whiteSpace=wrap;html=1;sketch=0;fillStyle=auto;fontSize=14;fontColor=#000000;fillColor=default;gradientColor=none;fontFamily=MonacoB2;fontStyle=1;size=20;verticalAlign=top;spacingTop=0;" parent="QKYR6YoZhiCHP2Ia78cL-1" vertex="1">
                    <mxGeometry x="20" y="150" width="270" height="50" as="geometry"/>
                </mxCell>
                <mxCell id="QKYR6YoZhiCHP2Ia78cL-16" style="edgeStyle=none;rounded=0;orthogonalLoop=1;jettySize=auto;html=1;exitX=1;exitY=0.5;exitDx=0;exitDy=0;exitPerimeter=0;entryX=0;entryY=0.5;entryDx=0;entryDy=0;fontFamily=Verdana;fontSize=12;fontColor=#7A6831;strokeColor=#B266FF;" parent="QKYR6YoZhiCHP2Ia78cL-1" source="QKYR6YoZhiCHP2Ia78cL-17" target="QKYR6YoZhiCHP2Ia78cL-9" edge="1">
                    <mxGeometry relative="1" as="geometry"/>
                </mxCell>
                <mxCell id="QKYR6YoZhiCHP2Ia78cL-17" value="distcc g++ 3.cpp -o 3.o -c" style="shape=card;whiteSpace=wrap;html=1;sketch=0;fillStyle=auto;fontSize=14;fontColor=#000000;fillColor=default;gradientColor=none;fontFamily=MonacoB2;fontStyle=1;size=20;verticalAlign=top;spacingTop=0;" parent="QKYR6YoZhiCHP2Ia78cL-1" vertex="1">
                    <mxGeometry x="20" y="200" width="270" height="50" as="geometry"/>
                </mxCell>
                <mxCell id="QKYR6YoZhiCHP2Ia78cL-18" style="edgeStyle=none;rounded=0;orthogonalLoop=1;jettySize=auto;html=1;exitX=1;exitY=0.5;exitDx=0;exitDy=0;exitPerimeter=0;entryX=0;entryY=0.5;entryDx=0;entryDy=0;fontFamily=Verdana;fontSize=12;fontColor=#7A6831;opacity=20;" parent="QKYR6YoZhiCHP2Ia78cL-1" source="QKYR6YoZhiCHP2Ia78cL-25" target="QKYR6YoZhiCHP2Ia78cL-40" edge="1">
                    <mxGeometry relative="1" as="geometry"/>
                </mxCell>
                <mxCell id="QKYR6YoZhiCHP2Ia78cL-19" style="edgeStyle=none;rounded=0;orthogonalLoop=1;jettySize=auto;html=1;exitX=1;exitY=0.5;exitDx=0;exitDy=0;exitPerimeter=0;entryX=0;entryY=0;entryDx=0;entryDy=11;entryPerimeter=0;fontFamily=Verdana;fontSize=12;fontColor=#7A6831;opacity=20;" parent="QKYR6YoZhiCHP2Ia78cL-1" source="QKYR6YoZhiCHP2Ia78cL-25" target="QKYR6YoZhiCHP2Ia78cL-35" edge="1">
                    <mxGeometry relative="1" as="geometry"/>
                </mxCell>
                <mxCell id="QKYR6YoZhiCHP2Ia78cL-20" style="edgeStyle=none;rounded=0;orthogonalLoop=1;jettySize=auto;html=1;exitX=1;exitY=0.5;exitDx=0;exitDy=0;exitPerimeter=0;entryX=0;entryY=0.5;entryDx=0;entryDy=0;fontFamily=Verdana;fontSize=12;fontColor=#7A6831;opacity=20;" parent="QKYR6YoZhiCHP2Ia78cL-1" source="QKYR6YoZhiCHP2Ia78cL-25" target="QKYR6YoZhiCHP2Ia78cL-42" edge="1">
                    <mxGeometry relative="1" as="geometry"/>
                </mxCell>
                <mxCell id="QKYR6YoZhiCHP2Ia78cL-21" style="edgeStyle=none;rounded=0;orthogonalLoop=1;jettySize=auto;html=1;exitX=1;exitY=0.5;exitDx=0;exitDy=0;exitPerimeter=0;entryX=0;entryY=0.5;entryDx=0;entryDy=0;fontFamily=Verdana;fontSize=12;fontColor=#7A6831;opacity=20;strokeColor=#7A6831;" parent="QKYR6YoZhiCHP2Ia78cL-1" source="QKYR6YoZhiCHP2Ia78cL-25" target="QKYR6YoZhiCHP2Ia78cL-9" edge="1">
                    <mxGeometry relative="1" as="geometry"/>
                </mxCell>
                <mxCell id="QKYR6YoZhiCHP2Ia78cL-22" style="edgeStyle=none;rounded=0;orthogonalLoop=1;jettySize=auto;html=1;exitX=1;exitY=0.5;exitDx=0;exitDy=0;exitPerimeter=0;entryX=0;entryY=0.5;entryDx=0;entryDy=0;fontFamily=Verdana;fontSize=12;fontColor=#7A6831;opacity=20;" parent="QKYR6YoZhiCHP2Ia78cL-1" source="QKYR6YoZhiCHP2Ia78cL-25" target="QKYR6YoZhiCHP2Ia78cL-6" edge="1">
                    <mxGeometry relative="1" as="geometry"/>
                </mxCell>
                <mxCell id="QKYR6YoZhiCHP2Ia78cL-23" style="edgeStyle=none;rounded=0;orthogonalLoop=1;jettySize=auto;html=1;exitX=0;exitY=0;exitDx=0;exitDy=0;entryX=1;entryY=0.5;entryDx=0;entryDy=0;fontFamily=Verdana;fontSize=12;fontColor=#7A6831;opacity=20;entryPerimeter=0;strokeColor=#FF8000;" parent="QKYR6YoZhiCHP2Ia78cL-1" source="QKYR6YoZhiCHP2Ia78cL-9" target="QKYR6YoZhiCHP2Ia78cL-25" edge="1">
                    <mxGeometry relative="1" as="geometry"/>
                </mxCell>
                <mxCell id="QKYR6YoZhiCHP2Ia78cL-24" style="edgeStyle=none;rounded=0;orthogonalLoop=1;jettySize=auto;html=1;exitX=0;exitY=1;exitDx=0;exitDy=-11;exitPerimeter=0;entryX=1;entryY=0.5;entryDx=0;entryDy=0;entryPerimeter=0;fontFamily=Verdana;fontSize=12;fontColor=#7A6831;opacity=20;" parent="QKYR6YoZhiCHP2Ia78cL-1" source="QKYR6YoZhiCHP2Ia78cL-29" target="QKYR6YoZhiCHP2Ia78cL-25" edge="1">
                    <mxGeometry relative="1" as="geometry"/>
                </mxCell>
                <mxCell id="QKYR6YoZhiCHP2Ia78cL-25" value="..." style="shape=card;whiteSpace=wrap;html=1;sketch=0;fillStyle=auto;fontSize=14;fontColor=#000000;fillColor=default;gradientColor=none;fontFamily=MonacoB2;fontStyle=1;size=20;verticalAlign=top;spacingTop=0;" parent="QKYR6YoZhiCHP2Ia78cL-1" vertex="1">
                    <mxGeometry x="20" y="250" width="270" height="50" as="geometry"/>
                </mxCell>
                <mxCell id="QKYR6YoZhiCHP2Ia78cL-26" style="edgeStyle=none;rounded=0;orthogonalLoop=1;jettySize=auto;html=1;exitX=1;exitY=0.5;exitDx=0;exitDy=0;exitPerimeter=0;entryX=0;entryY=0.5;entryDx=0;entryDy=0;fontFamily=Verdana;fontSize=12;fontColor=#7A6831;strokeColor=#B266FF;" parent="QKYR6YoZhiCHP2Ia78cL-1" source="QKYR6YoZhiCHP2Ia78cL-27" target="QKYR6YoZhiCHP2Ia78cL-42" edge="1">
                    <mxGeometry relative="1" as="geometry"/>
                </mxCell>
                <mxCell id="QKYR6YoZhiCHP2Ia78cL-27" value="distcc g++ N.cpp -o N.o -c" style="shape=card;whiteSpace=wrap;html=1;sketch=0;fillStyle=auto;fontSize=14;fontColor=#000000;fillColor=default;gradientColor=none;fontFamily=MonacoB2;fontStyle=1;size=20;verticalAlign=top;spacingTop=0;" parent="QKYR6YoZhiCHP2Ia78cL-1" vertex="1">
                    <mxGeometry x="20" y="300" width="270" height="50" as="geometry"/>
                </mxCell>
                <mxCell id="QKYR6YoZhiCHP2Ia78cL-28" style="edgeStyle=none;rounded=0;orthogonalLoop=1;jettySize=auto;html=1;exitX=0;exitY=1;exitDx=0;exitDy=-11;exitPerimeter=0;entryX=1;entryY=0.5;entryDx=0;entryDy=0;entryPerimeter=0;fontFamily=Verdana;fontSize=12;fontColor=#7A6831;strokeColor=#FF8000;" parent="QKYR6YoZhiCHP2Ia78cL-1" source="QKYR6YoZhiCHP2Ia78cL-29" target="QKYR6YoZhiCHP2Ia78cL-15" edge="1">
                    <mxGeometry relative="1" as="geometry"/>
                </mxCell>
                <mxCell id="QKYR6YoZhiCHP2Ia78cL-29" value="" style="shape=cylinder3;whiteSpace=wrap;html=1;boundedLbl=1;backgroundOutline=1;size=11;sketch=0;fillStyle=auto;fillColor=#fff2cc;strokeColor=#7A6831;" parent="QKYR6YoZhiCHP2Ia78cL-1" vertex="1">
                    <mxGeometry x="530" y="34" width="270" height="100" as="geometry"/>
                </mxCell>
                <mxCell id="QKYR6YoZhiCHP2Ia78cL-30" value="g++ ... 2-processed.cpp" style="text;html=1;strokeColor=none;fillColor=none;align=left;verticalAlign=middle;whiteSpace=wrap;rounded=0;sketch=0;fillStyle=auto;fontFamily=MonacoB2;fontSize=14;fontColor=#000000;fontStyle=1" parent="QKYR6YoZhiCHP2Ia78cL-1" vertex="1">
                    <mxGeometry x="540" y="56" width="250" height="30" as="geometry"/>
                </mxCell>
                <mxCell id="QKYR6YoZhiCHP2Ia78cL-31" value="g++ ... 6-processed.cpp" style="text;html=1;strokeColor=none;fillColor=none;align=left;verticalAlign=middle;whiteSpace=wrap;rounded=0;sketch=0;fillStyle=auto;fontFamily=MonacoB2;fontSize=14;fontColor=#000000;fontStyle=1" parent="QKYR6YoZhiCHP2Ia78cL-1" vertex="1">
                    <mxGeometry x="540" y="76" width="250" height="30" as="geometry"/>
                </mxCell>
                <mxCell id="QKYR6YoZhiCHP2Ia78cL-32" value="g++ ... 18-processed.cpp" style="text;html=1;strokeColor=none;fillColor=none;align=left;verticalAlign=middle;whiteSpace=wrap;rounded=0;sketch=0;fillStyle=auto;fontFamily=MonacoB2;fontSize=14;fontColor=#000000;fontStyle=1" parent="QKYR6YoZhiCHP2Ia78cL-1" vertex="1">
                    <mxGeometry x="540" y="96" width="250" height="30" as="geometry"/>
                </mxCell>
                <mxCell id="QKYR6YoZhiCHP2Ia78cL-33" style="edgeStyle=none;rounded=0;orthogonalLoop=1;jettySize=auto;html=1;exitX=0;exitY=1;exitDx=0;exitDy=-11;exitPerimeter=0;entryX=1;entryY=0.5;entryDx=0;entryDy=0;entryPerimeter=0;fontFamily=Verdana;fontSize=12;fontColor=#7A6831;strokeColor=#FF8000;" parent="QKYR6YoZhiCHP2Ia78cL-1" source="QKYR6YoZhiCHP2Ia78cL-35" target="QKYR6YoZhiCHP2Ia78cL-13" edge="1">
                    <mxGeometry relative="1" as="geometry"/>
                </mxCell>
                <mxCell id="QKYR6YoZhiCHP2Ia78cL-34" style="edgeStyle=none;rounded=0;orthogonalLoop=1;jettySize=auto;html=1;exitX=0;exitY=1;exitDx=0;exitDy=-11;exitPerimeter=0;entryX=1;entryY=0.5;entryDx=0;entryDy=0;entryPerimeter=0;fontFamily=Verdana;fontSize=12;fontColor=#7A6831;opacity=20;" parent="QKYR6YoZhiCHP2Ia78cL-1" source="QKYR6YoZhiCHP2Ia78cL-35" target="QKYR6YoZhiCHP2Ia78cL-25" edge="1">
                    <mxGeometry relative="1" as="geometry"/>
                </mxCell>
                <mxCell id="QKYR6YoZhiCHP2Ia78cL-35" value="" style="shape=cylinder3;whiteSpace=wrap;html=1;boundedLbl=1;backgroundOutline=1;size=11;sketch=0;fillStyle=auto;fillColor=#fff2cc;strokeColor=#7A6831;" parent="QKYR6YoZhiCHP2Ia78cL-1" vertex="1">
                    <mxGeometry x="530" y="144" width="270" height="100" as="geometry"/>
                </mxCell>
                <mxCell id="QKYR6YoZhiCHP2Ia78cL-36" value="g++ ... 1-processed.cpp" style="text;html=1;strokeColor=none;fillColor=none;align=left;verticalAlign=middle;whiteSpace=wrap;rounded=0;sketch=0;fillStyle=auto;fontFamily=MonacoB2;fontSize=14;fontColor=#000000;fontStyle=1" parent="QKYR6YoZhiCHP2Ia78cL-1" vertex="1">
                    <mxGeometry x="540" y="166" width="250" height="30" as="geometry"/>
                </mxCell>
                <mxCell id="QKYR6YoZhiCHP2Ia78cL-37" value="g++ ... 15-processed.cpp" style="text;html=1;strokeColor=none;fillColor=none;align=left;verticalAlign=middle;whiteSpace=wrap;rounded=0;sketch=0;fillStyle=auto;fontFamily=MonacoB2;fontSize=14;fontColor=#000000;fontStyle=1" parent="QKYR6YoZhiCHP2Ia78cL-1" vertex="1">
                    <mxGeometry x="540" y="186" width="250" height="30" as="geometry"/>
                </mxCell>
                <mxCell id="QKYR6YoZhiCHP2Ia78cL-38" value="g++ ... 21-processed.cpp" style="text;html=1;strokeColor=none;fillColor=none;align=left;verticalAlign=middle;whiteSpace=wrap;rounded=0;sketch=0;fillStyle=auto;fontFamily=MonacoB2;fontSize=14;fontColor=#000000;fontStyle=1" parent="QKYR6YoZhiCHP2Ia78cL-1" vertex="1">
                    <mxGeometry x="540" y="206" width="250" height="30" as="geometry"/>
                </mxCell>
                <mxCell id="QKYR6YoZhiCHP2Ia78cL-39" value="" style="shape=cylinder3;whiteSpace=wrap;html=1;boundedLbl=1;backgroundOutline=1;size=11;gradientColor=none;sketch=0;fillStyle=auto;fillColor=#fff2cc;strokeColor=#7A6831;" parent="QKYR6YoZhiCHP2Ia78cL-1" vertex="1">
                    <mxGeometry x="530" y="254" width="270" height="46" as="geometry"/>
                </mxCell>
                <mxCell id="QKYR6YoZhiCHP2Ia78cL-40" value="distccd 1" style="text;strokeColor=none;fillColor=none;align=center;verticalAlign=middle;whiteSpace=wrap;rounded=0;sketch=0;fillStyle=auto;fontSize=14;fontFamily=Verdana;fontStyle=0;horizontal=1;html=1;spacing=2;fontColor=#7A6831;" parent="QKYR6YoZhiCHP2Ia78cL-1" vertex="1">
                    <mxGeometry x="530" y="29" width="270" height="30" as="geometry"/>
                </mxCell>
                <mxCell id="QKYR6YoZhiCHP2Ia78cL-41" value="distccd 2" style="text;strokeColor=none;fillColor=none;align=center;verticalAlign=middle;whiteSpace=wrap;rounded=0;sketch=0;fillStyle=auto;fontSize=14;fontFamily=Verdana;fontStyle=0;horizontal=1;html=1;spacing=2;fontColor=#7A6831;" parent="QKYR6YoZhiCHP2Ia78cL-1" vertex="1">
                    <mxGeometry x="530" y="139" width="270" height="30" as="geometry"/>
                </mxCell>
                <mxCell id="QKYR6YoZhiCHP2Ia78cL-42" value="distccd 3" style="text;strokeColor=none;fillColor=none;align=center;verticalAlign=middle;whiteSpace=wrap;rounded=0;sketch=0;fillStyle=auto;fontSize=14;fontFamily=Verdana;fontStyle=0;horizontal=1;html=1;spacing=2;fontColor=#7A6831;" parent="QKYR6YoZhiCHP2Ia78cL-1" vertex="1">
                    <mxGeometry x="530" y="249" width="270" height="30" as="geometry"/>
                </mxCell>
                <mxCell id="QKYR6YoZhiCHP2Ia78cL-43" value="g++ ..." style="text;html=1;strokeColor=none;fillColor=none;align=left;verticalAlign=middle;whiteSpace=wrap;rounded=0;sketch=0;fillStyle=auto;fontFamily=MonacoB2;fontSize=12;fontColor=#000000;fontStyle=1;rotation=5;" parent="QKYR6YoZhiCHP2Ia78cL-1" vertex="1">
                    <mxGeometry x="539.32" y="269.64" width="81" height="30" as="geometry"/>
                </mxCell>
                <mxCell id="QKYR6YoZhiCHP2Ia78cL-44" value="g++ ..." style="text;html=1;strokeColor=none;fillColor=none;align=left;verticalAlign=middle;whiteSpace=wrap;rounded=0;sketch=0;fillStyle=auto;fontFamily=MonacoB2;fontSize=12;fontColor=#000000;fontStyle=1;rotation=5;" parent="QKYR6YoZhiCHP2Ia78cL-1" vertex="1">
                    <mxGeometry x="539.32" y="309.64" width="81" height="30" as="geometry"/>
                </mxCell>
                <mxCell id="QKYR6YoZhiCHP2Ia78cL-45" value="g++ ..." style="text;html=1;strokeColor=none;fillColor=none;align=left;verticalAlign=middle;whiteSpace=wrap;rounded=0;sketch=0;fillStyle=auto;fontFamily=MonacoB2;fontSize=12;fontColor=#000000;fontStyle=1;rotation=5;" parent="QKYR6YoZhiCHP2Ia78cL-1" vertex="1">
                    <mxGeometry x="539.32" y="349.64" width="81" height="30" as="geometry"/>
                </mxCell>
                <mxCell id="QKYR6YoZhiCHP2Ia78cL-46" value="" style="endArrow=classic;html=1;rounded=0;fontFamily=Verdana;fontSize=12;fontColor=#B266FF;strokeWidth=2;strokeColor=#B266FF;" parent="QKYR6YoZhiCHP2Ia78cL-1" edge="1">
                    <mxGeometry width="50" height="50" relative="1" as="geometry">
                        <mxPoint x="250" y="420" as="sourcePoint"/>
                        <mxPoint x="570" y="420" as="targetPoint"/>
                    </mxGeometry>
                </mxCell>
                <mxCell id="QKYR6YoZhiCHP2Ia78cL-47" value="cpp code after preprocessor" style="text;html=1;strokeColor=none;fillColor=none;align=left;verticalAlign=middle;whiteSpace=wrap;rounded=0;sketch=0;fillStyle=auto;fontFamily=Verdana;fontSize=18;fontColor=#B266FF;" parent="QKYR6YoZhiCHP2Ia78cL-1" vertex="1">
                    <mxGeometry x="250" y="386" width="310" height="30" as="geometry"/>
                </mxCell>
                <mxCell id="QKYR6YoZhiCHP2Ia78cL-48" value="" style="endArrow=classic;html=1;rounded=0;fontFamily=Verdana;fontSize=12;fontColor=#7A6831;strokeWidth=2;strokeColor=#FF8000;" parent="QKYR6YoZhiCHP2Ia78cL-1" edge="1">
                    <mxGeometry width="50" height="50" relative="1" as="geometry">
                        <mxPoint x="570" y="470" as="sourcePoint"/>
                        <mxPoint x="250" y="470" as="targetPoint"/>
                    </mxGeometry>
                </mxCell>
                <mxCell id="QKYR6YoZhiCHP2Ia78cL-49" value="compiled obj files" style="text;html=1;strokeColor=none;fillColor=none;align=right;verticalAlign=middle;whiteSpace=wrap;rounded=0;sketch=0;fillStyle=auto;fontFamily=Verdana;fontSize=18;fontColor=#FF8000;" parent="QKYR6YoZhiCHP2Ia78cL-1" vertex="1">
                    <mxGeometry x="250" y="436" width="310" height="30" as="geometry"/>
                </mxCell>
                <mxCell id="KTYtPGZ6vnRPYGg1H-hb-0" value="g++ -E 1.cpp ..." style="text;html=1;strokeColor=none;fillColor=none;align=right;verticalAlign=middle;whiteSpace=wrap;rounded=0;sketch=0;fillStyle=auto;fontFamily=Verdana;fontSize=13;fontColor=#666666;fontStyle=2" parent="QKYR6YoZhiCHP2Ia78cL-1" vertex="1">
                    <mxGeometry x="88" y="122" width="180" height="30" as="geometry"/>
                </mxCell>
                <mxCell id="KTYtPGZ6vnRPYGg1H-hb-1" value="g++ -E 2.cpp ..." style="text;html=1;strokeColor=none;fillColor=none;align=right;verticalAlign=middle;whiteSpace=wrap;rounded=0;sketch=0;fillStyle=auto;fontFamily=Verdana;fontSize=13;fontColor=#666666;fontStyle=2" parent="QKYR6YoZhiCHP2Ia78cL-1" vertex="1">
                    <mxGeometry x="88" y="172" width="180" height="30" as="geometry"/>
                </mxCell>
                <mxCell id="KTYtPGZ6vnRPYGg1H-hb-2" value="g++ -E 3.cpp ..." style="text;html=1;strokeColor=none;fillColor=none;align=right;verticalAlign=middle;whiteSpace=wrap;rounded=0;sketch=0;fillStyle=auto;fontFamily=Verdana;fontSize=13;fontColor=#666666;fontStyle=2" parent="QKYR6YoZhiCHP2Ia78cL-1" vertex="1">
                    <mxGeometry x="88" y="222" width="180" height="30" as="geometry"/>
                </mxCell>
                <mxCell id="KTYtPGZ6vnRPYGg1H-hb-3" value="g++ -E N.cpp ..." style="text;html=1;strokeColor=none;fillColor=none;align=right;verticalAlign=middle;whiteSpace=wrap;rounded=0;sketch=0;fillStyle=auto;fontFamily=Verdana;fontSize=13;fontColor=#666666;fontStyle=2" parent="QKYR6YoZhiCHP2Ia78cL-1" vertex="1">
                    <mxGeometry x="88" y="322" width="180" height="30" as="geometry"/>
                </mxCell>
            </root>
        </mxGraphModel>
    </diagram>
    <diagram id="Vnbawk2h1So9-c6s-u0h" name="second-run">
        <mxGraphModel dx="2547" dy="726" grid="1" gridSize="10" guides="1" tooltips="1" connect="1" arrows="1" fold="1" page="1" pageScale="1" pageWidth="827" pageHeight="1169" math="0" shadow="0">
            <root>
                <mxCell id="uj-5atxEX_i-9l0Wbf5S-0"/>
                <mxCell id="uj-5atxEX_i-9l0Wbf5S-1" parent="uj-5atxEX_i-9l0Wbf5S-0"/>
                <mxCell id="yA6shPwKPx8xXG1yt-eG-0" value="" style="shape=cylinder3;whiteSpace=wrap;html=1;boundedLbl=1;backgroundOutline=1;size=12;gradientColor=none;sketch=0;fillStyle=auto;fillColor=#fff2cc;strokeColor=#7A6831;" parent="uj-5atxEX_i-9l0Wbf5S-1" vertex="1">
                    <mxGeometry x="530" y="120" width="270" height="110" as="geometry"/>
                </mxCell>
                <mxCell id="yA6shPwKPx8xXG1yt-eG-1" value="" style="rounded=0;whiteSpace=wrap;html=1;fillColor=#f5f5f5;fontColor=#333333;strokeColor=#666666;" parent="uj-5atxEX_i-9l0Wbf5S-1" vertex="1">
                    <mxGeometry x="20" y="120" width="270" height="110" as="geometry"/>
                </mxCell>
                <mxCell id="yA6shPwKPx8xXG1yt-eG-2" value="nocc-server" style="text;html=1;strokeColor=none;fillColor=none;align=center;verticalAlign=middle;whiteSpace=wrap;rounded=0;sketch=0;fillStyle=auto;fontSize=16;fontFamily=Verdana;fontColor=#7A6831;" parent="uj-5atxEX_i-9l0Wbf5S-1" vertex="1">
                    <mxGeometry x="530" y="116" width="270" height="30" as="geometry"/>
                </mxCell>
                <mxCell id="yA6shPwKPx8xXG1yt-eG-3" value="client 1" style="text;html=1;strokeColor=none;fillColor=none;align=center;verticalAlign=middle;whiteSpace=wrap;rounded=0;sketch=0;fillStyle=auto;fontSize=16;fontFamily=Verdana;" parent="uj-5atxEX_i-9l0Wbf5S-1" vertex="1">
                    <mxGeometry x="20" y="124" width="270" height="30" as="geometry"/>
                </mxCell>
                <mxCell id="yA6shPwKPx8xXG1yt-eG-4" value="&amp;nbsp; 1.cpp + all #include" style="edgeStyle=none;rounded=0;orthogonalLoop=1;jettySize=auto;html=1;exitX=1;exitY=0.5;exitDx=0;exitDy=0;exitPerimeter=0;entryX=0;entryY=0.6;entryDx=0;entryDy=0;entryPerimeter=0;fontFamily=Verdana;fontSize=18;fontColor=#B266FF;fontStyle=2;labelPosition=center;verticalLabelPosition=top;align=center;verticalAlign=bottom;strokeColor=#B266FF;strokeWidth=2;" parent="uj-5atxEX_i-9l0Wbf5S-1" edge="1">
                    <mxGeometry relative="1" as="geometry">
                        <mxPoint x="290" y="180" as="sourcePoint"/>
                        <mxPoint x="530" y="180" as="targetPoint"/>
                    </mxGeometry>
                </mxCell>
                <mxCell id="yA6shPwKPx8xXG1yt-eG-5" value="nocc g++ 1.cpp -o 1.o -c" style="shape=card;whiteSpace=wrap;html=1;sketch=0;fillStyle=auto;fontSize=14;fontColor=#000000;fillColor=default;gradientColor=none;fontFamily=MonacoB2;fontStyle=1;size=20;verticalAlign=top;spacingTop=4;" parent="uj-5atxEX_i-9l0Wbf5S-1" vertex="1">
                    <mxGeometry x="20" y="160" width="270" height="70" as="geometry"/>
                </mxCell>
                <mxCell id="yA6shPwKPx8xXG1yt-eG-10" value="g++ /tmp/1.cpp -o /tmp/1.o -c" style="text;html=1;strokeColor=none;fillColor=none;align=left;verticalAlign=middle;whiteSpace=wrap;rounded=0;sketch=0;fillStyle=auto;fontFamily=MonacoB2;fontSize=14;fontColor=#000000;fontStyle=1" parent="uj-5atxEX_i-9l0Wbf5S-1" vertex="1">
                    <mxGeometry x="542" y="175" width="250" height="30" as="geometry"/>
                </mxCell>
                <mxCell id="yA6shPwKPx8xXG1yt-eG-13" style="edgeStyle=none;rounded=0;orthogonalLoop=1;jettySize=auto;html=1;exitX=1;exitY=0.5;exitDx=0;exitDy=0;exitPerimeter=0;entryX=0;entryY=0.6;entryDx=0;entryDy=0;entryPerimeter=0;fontFamily=Helvetica;fontSize=16;fontColor=#000000;strokeColor=#FF8000;strokeWidth=2;" parent="uj-5atxEX_i-9l0Wbf5S-1" edge="1">
                    <mxGeometry relative="1" as="geometry">
                        <mxPoint x="530" y="210" as="sourcePoint"/>
                        <mxPoint x="290" y="210" as="targetPoint"/>
                    </mxGeometry>
                </mxCell>
                <mxCell id="yA6shPwKPx8xXG1yt-eG-14" value="/tmp/1.o" style="edgeLabel;html=1;align=center;verticalAlign=bottom;resizable=0;points=[];fontSize=18;fontFamily=Verdana;fontColor=#FF8000;fontStyle=2;labelPosition=center;verticalLabelPosition=top;" parent="yA6shPwKPx8xXG1yt-eG-13" vertex="1" connectable="0">
                    <mxGeometry x="-0.0167" relative="1" as="geometry">
                        <mxPoint as="offset"/>
                    </mxGeometry>
                </mxCell>
                <mxCell id="yA6shPwKPx8xXG1yt-eG-15" value="" style="shape=cylinder3;whiteSpace=wrap;html=1;boundedLbl=1;backgroundOutline=1;size=12;gradientColor=none;sketch=0;fillStyle=auto;fillColor=#fff2cc;strokeColor=#7A6831;" parent="uj-5atxEX_i-9l0Wbf5S-1" vertex="1">
                    <mxGeometry x="530" y="260" width="270" height="110" as="geometry"/>
                </mxCell>
                <mxCell id="yA6shPwKPx8xXG1yt-eG-16" value="" style="rounded=0;whiteSpace=wrap;html=1;fillColor=#f5f5f5;fontColor=#333333;strokeColor=#666666;" parent="uj-5atxEX_i-9l0Wbf5S-1" vertex="1">
                    <mxGeometry x="20" y="260" width="270" height="110" as="geometry"/>
                </mxCell>
                <mxCell id="yA6shPwKPx8xXG1yt-eG-17" value="nocc-server" style="text;html=1;strokeColor=none;fillColor=none;align=center;verticalAlign=middle;whiteSpace=wrap;rounded=0;sketch=0;fillStyle=auto;fontSize=16;fontFamily=Verdana;fontColor=#7A6831;" parent="uj-5atxEX_i-9l0Wbf5S-1" vertex="1">
                    <mxGeometry x="530" y="256" width="270" height="30" as="geometry"/>
                </mxCell>
                <mxCell id="yA6shPwKPx8xXG1yt-eG-18" value="client 2" style="text;html=1;strokeColor=none;fillColor=none;align=center;verticalAlign=middle;whiteSpace=wrap;rounded=0;sketch=0;fillStyle=auto;fontSize=16;fontFamily=Verdana;" parent="uj-5atxEX_i-9l0Wbf5S-1" vertex="1">
                    <mxGeometry x="20" y="264" width="270" height="30" as="geometry"/>
                </mxCell>
                <mxCell id="yA6shPwKPx8xXG1yt-eG-19" value="hashes of dependencies" style="edgeStyle=none;rounded=0;orthogonalLoop=1;jettySize=auto;html=1;exitX=1;exitY=0.5;exitDx=0;exitDy=0;exitPerimeter=0;entryX=0;entryY=0.6;entryDx=0;entryDy=0;entryPerimeter=0;fontFamily=Verdana;fontSize=18;fontColor=#666;fontStyle=2;labelPosition=center;verticalLabelPosition=top;align=center;verticalAlign=bottom;strokeColor=#666;strokeWidth=1;" parent="uj-5atxEX_i-9l0Wbf5S-1" edge="1">
                    <mxGeometry relative="1" as="geometry">
                        <mxPoint x="290" y="320" as="sourcePoint"/>
                        <mxPoint x="530" y="320" as="targetPoint"/>
                    </mxGeometry>
                </mxCell>
                <mxCell id="yA6shPwKPx8xXG1yt-eG-20" value="nocc g++ 1.cpp -o 1.o -c" style="shape=card;whiteSpace=wrap;html=1;sketch=0;fillStyle=auto;fontSize=14;fontColor=#000000;fillColor=default;gradientColor=none;fontFamily=MonacoB2;fontStyle=1;size=20;verticalAlign=top;spacingTop=4;" parent="uj-5atxEX_i-9l0Wbf5S-1" vertex="1">
                    <mxGeometry x="20" y="300" width="270" height="70" as="geometry"/>
                </mxCell>
                <mxCell id="yA6shPwKPx8xXG1yt-eG-22" style="edgeStyle=none;rounded=0;orthogonalLoop=1;jettySize=auto;html=1;exitX=1;exitY=0.5;exitDx=0;exitDy=0;exitPerimeter=0;entryX=0;entryY=0.6;entryDx=0;entryDy=0;entryPerimeter=0;fontFamily=Helvetica;fontSize=18;fontColor=#000000;strokeColor=#FF8000;strokeWidth=2;" parent="uj-5atxEX_i-9l0Wbf5S-1" edge="1">
                    <mxGeometry relative="1" as="geometry">
                        <mxPoint x="530" y="350" as="sourcePoint"/>
                        <mxPoint x="290" y="350" as="targetPoint"/>
                    </mxGeometry>
                </mxCell>
                <mxCell id="yA6shPwKPx8xXG1yt-eG-23" value="/obj-cache/1.o" style="edgeLabel;html=1;align=center;verticalAlign=bottom;resizable=0;points=[];fontSize=18;fontFamily=Verdana;fontColor=#FF8000;fontStyle=2;labelPosition=center;verticalLabelPosition=top;" parent="yA6shPwKPx8xXG1yt-eG-22" vertex="1" connectable="0">
                    <mxGeometry x="-0.0167" relative="1" as="geometry">
                        <mxPoint as="offset"/>
                    </mxGeometry>
                </mxCell>
                <mxCell id="yDUg1O7cwAn3w0yUkJxn-0" value="&quot;sources already uploaded&quot;" style="text;html=1;strokeColor=none;fillColor=none;align=left;verticalAlign=middle;whiteSpace=wrap;rounded=0;sketch=0;fillStyle=auto;fontFamily=Verdana;fontSize=16;fontColor=#666;fontStyle=2" parent="uj-5atxEX_i-9l0Wbf5S-1" vertex="1">
                    <mxGeometry x="540" y="297" width="238" height="30" as="geometry"/>
                </mxCell>
                <mxCell id="KHn7c3F-axcr5kyrL9ld-0" value="&quot;object already compiled&quot;" style="text;html=1;strokeColor=none;fillColor=none;align=left;verticalAlign=middle;whiteSpace=wrap;rounded=0;sketch=0;fillStyle=auto;fontFamily=Verdana;fontSize=16;fontColor=#666;fontStyle=2" parent="uj-5atxEX_i-9l0Wbf5S-1" vertex="1">
                    <mxGeometry x="540" y="331" width="238" height="30" as="geometry"/>
                </mxCell>
            </root>
        </mxGraphModel>
    </diagram>
    <diagram name="after-merge" id="nRDMyaiuSxKJTO97incA">
        <mxGraphModel dx="2547" dy="726" grid="1" gridSize="10" guides="1" tooltips="1" connect="1" arrows="1" fold="1" page="1" pageScale="1" pageWidth="827" pageHeight="1169" math="0" shadow="0">
            <root>
                <mxCell id="SM-zXdetAbQvxSArsVxr-0"/>
                <mxCell id="SM-zXdetAbQvxSArsVxr-1" parent="SM-zXdetAbQvxSArsVxr-0"/>
                <mxCell id="SM-zXdetAbQvxSArsVxr-2" value="" style="shape=cylinder3;whiteSpace=wrap;html=1;boundedLbl=1;backgroundOutline=1;size=12;gradientColor=none;sketch=0;fillStyle=auto;fillColor=#fff2cc;strokeColor=#7A6831;" parent="SM-zXdetAbQvxSArsVxr-1" vertex="1">
                    <mxGeometry x="530" y="120" width="270" height="140" as="geometry"/>
                </mxCell>
                <mxCell id="SM-zXdetAbQvxSArsVxr-3" value="" style="rounded=0;whiteSpace=wrap;html=1;fillColor=#f5f5f5;fontColor=#333333;strokeColor=#666666;" parent="SM-zXdetAbQvxSArsVxr-1" vertex="1">
                    <mxGeometry x="20" y="120" width="270" height="110" as="geometry"/>
                </mxCell>
                <mxCell id="SM-zXdetAbQvxSArsVxr-4" value="nocc-server" style="text;html=1;strokeColor=none;fillColor=none;align=center;verticalAlign=middle;whiteSpace=wrap;rounded=0;sketch=0;fillStyle=auto;fontSize=16;fontFamily=Verdana;fontColor=#7A6831;" parent="SM-zXdetAbQvxSArsVxr-1" vertex="1">
                    <mxGeometry x="530" y="116" width="270" height="30" as="geometry"/>
                </mxCell>
                <mxCell id="SM-zXdetAbQvxSArsVxr-5" value="in a git branch" style="text;html=1;strokeColor=none;fillColor=none;align=center;verticalAlign=middle;whiteSpace=wrap;rounded=0;sketch=0;fillStyle=auto;fontSize=16;fontFamily=Verdana;" parent="SM-zXdetAbQvxSArsVxr-1" vertex="1">
                    <mxGeometry x="20" y="124" width="270" height="30" as="geometry"/>
                </mxCell>
                <mxCell id="SM-zXdetAbQvxSArsVxr-6" value="{i}.cpp + all #include" style="edgeStyle=none;rounded=0;orthogonalLoop=1;jettySize=auto;html=1;exitX=1;exitY=0.5;exitDx=0;exitDy=0;exitPerimeter=0;entryX=0;entryY=0.6;entryDx=0;entryDy=0;entryPerimeter=0;fontFamily=Verdana;fontSize=18;fontColor=#B266FF;fontStyle=2;labelPosition=center;verticalLabelPosition=top;align=center;verticalAlign=bottom;strokeColor=#B266FF;strokeWidth=2;" parent="SM-zXdetAbQvxSArsVxr-1" edge="1">
                    <mxGeometry relative="1" as="geometry">
                        <mxPoint x="290" y="196" as="sourcePoint"/>
                        <mxPoint x="530" y="196" as="targetPoint"/>
                    </mxGeometry>
                </mxCell>
                <mxCell id="SM-zXdetAbQvxSArsVxr-7" value="" style="shape=card;whiteSpace=wrap;html=1;sketch=0;fillStyle=auto;fontSize=14;fontColor=#000000;fillColor=default;gradientColor=none;fontFamily=MonacoB2;fontStyle=1;size=20;verticalAlign=top;spacingTop=4;" parent="SM-zXdetAbQvxSArsVxr-1" vertex="1">
                    <mxGeometry x="20" y="160" width="270" height="100" as="geometry"/>
                </mxCell>
                <mxCell id="SM-zXdetAbQvxSArsVxr-8" value="g++ ..." style="text;html=1;strokeColor=none;fillColor=none;align=left;verticalAlign=middle;whiteSpace=wrap;rounded=0;sketch=0;fillStyle=auto;fontFamily=MonacoB2;fontSize=14;fontColor=#000000;fontStyle=1" parent="SM-zXdetAbQvxSArsVxr-1" vertex="1">
                    <mxGeometry x="542" y="178" width="250" height="30" as="geometry"/>
                </mxCell>
                <mxCell id="SM-zXdetAbQvxSArsVxr-9" style="edgeStyle=none;rounded=0;orthogonalLoop=1;jettySize=auto;html=1;exitX=1;exitY=0.5;exitDx=0;exitDy=0;exitPerimeter=0;entryX=0;entryY=0.6;entryDx=0;entryDy=0;entryPerimeter=0;fontFamily=Helvetica;fontSize=18;fontColor=#000000;strokeColor=#FF8000;strokeWidth=2;" parent="SM-zXdetAbQvxSArsVxr-1" edge="1">
                    <mxGeometry relative="1" as="geometry">
                        <mxPoint x="530" y="236" as="sourcePoint"/>
                        <mxPoint x="290" y="236" as="targetPoint"/>
                    </mxGeometry>
                </mxCell>
                <mxCell id="SM-zXdetAbQvxSArsVxr-10" value="/tmp/{i}.o" style="edgeLabel;html=1;align=center;verticalAlign=bottom;resizable=0;points=[];fontSize=18;fontFamily=Verdana;fontColor=#FF8000;fontStyle=2;labelPosition=center;verticalLabelPosition=top;" parent="SM-zXdetAbQvxSArsVxr-9" vertex="1" connectable="0">
                    <mxGeometry x="-0.0167" relative="1" as="geometry">
                        <mxPoint y="-2" as="offset"/>
                    </mxGeometry>
                </mxCell>
                <mxCell id="SM-zXdetAbQvxSArsVxr-25" style="edgeStyle=none;rounded=0;orthogonalLoop=1;jettySize=auto;html=1;exitX=1;exitY=0.5;exitDx=0;exitDy=0;entryX=0;entryY=0.5;entryDx=0;entryDy=0;fontFamily=Verdana;fontSize=16;fontColor=#666;strokeColor=#666;strokeWidth=1;" parent="SM-zXdetAbQvxSArsVxr-1" source="SM-zXdetAbQvxSArsVxr-20" target="SM-zXdetAbQvxSArsVxr-21" edge="1">
                    <mxGeometry relative="1" as="geometry"/>
                </mxCell>
                <mxCell id="SM-zXdetAbQvxSArsVxr-27" style="edgeStyle=none;rounded=0;orthogonalLoop=1;jettySize=auto;html=1;exitX=1;exitY=1;exitDx=0;exitDy=0;entryX=0;entryY=0;entryDx=0;entryDy=0;fontFamily=Verdana;fontSize=16;fontColor=#666;strokeColor=#666;strokeWidth=1;" parent="SM-zXdetAbQvxSArsVxr-1" source="SM-zXdetAbQvxSArsVxr-20" target="SM-zXdetAbQvxSArsVxr-22" edge="1">
                    <mxGeometry relative="1" as="geometry"/>
                </mxCell>
                <mxCell id="SM-zXdetAbQvxSArsVxr-20" value="" style="ellipse;whiteSpace=wrap;html=1;sketch=0;fillStyle=auto;fontFamily=Verdana;fontSize=16;fontColor=#ffffff;strokeColor=#2D7600;strokeWidth=1;fillColor=#60a917;" parent="SM-zXdetAbQvxSArsVxr-1" vertex="1">
                    <mxGeometry x="40" y="175" width="30" height="30" as="geometry"/>
                </mxCell>
                <mxCell id="SM-zXdetAbQvxSArsVxr-21" value="" style="ellipse;whiteSpace=wrap;html=1;sketch=0;fillStyle=auto;fontFamily=Verdana;fontSize=16;fontColor=#ffffff;strokeColor=#2D7600;strokeWidth=1;fillColor=#60a917;" parent="SM-zXdetAbQvxSArsVxr-1" vertex="1">
                    <mxGeometry x="110" y="175" width="30" height="30" as="geometry"/>
                </mxCell>
                <mxCell id="SM-zXdetAbQvxSArsVxr-28" style="edgeStyle=none;rounded=0;orthogonalLoop=1;jettySize=auto;html=1;exitX=1;exitY=0.5;exitDx=0;exitDy=0;entryX=0;entryY=0.5;entryDx=0;entryDy=0;fontFamily=Verdana;fontSize=16;fontColor=#666;strokeColor=#666;strokeWidth=1;" parent="SM-zXdetAbQvxSArsVxr-1" source="SM-zXdetAbQvxSArsVxr-22" target="SM-zXdetAbQvxSArsVxr-23" edge="1">
                    <mxGeometry relative="1" as="geometry"/>
                </mxCell>
                <mxCell id="SM-zXdetAbQvxSArsVxr-22" value="" style="ellipse;whiteSpace=wrap;html=1;sketch=0;fillStyle=auto;fontFamily=Verdana;fontSize=16;fontColor=#ffffff;strokeColor=#3700CC;strokeWidth=1;fillColor=#6a00ff;" parent="SM-zXdetAbQvxSArsVxr-1" vertex="1">
                    <mxGeometry x="90" y="215" width="30" height="30" as="geometry"/>
                </mxCell>
                <mxCell id="SM-zXdetAbQvxSArsVxr-29" style="edgeStyle=none;rounded=0;orthogonalLoop=1;jettySize=auto;html=1;exitX=1;exitY=0.5;exitDx=0;exitDy=0;entryX=0;entryY=0.5;entryDx=0;entryDy=0;fontFamily=Verdana;fontSize=16;fontColor=#666;strokeColor=#666;strokeWidth=1;" parent="SM-zXdetAbQvxSArsVxr-1" source="SM-zXdetAbQvxSArsVxr-23" target="SM-zXdetAbQvxSArsVxr-24" edge="1">
                    <mxGeometry relative="1" as="geometry"/>
                </mxCell>
                <mxCell id="SM-zXdetAbQvxSArsVxr-23" value="" style="ellipse;whiteSpace=wrap;html=1;sketch=0;fillStyle=auto;fontFamily=Verdana;fontSize=16;fontColor=#ffffff;strokeColor=#3700CC;strokeWidth=1;fillColor=#6a00ff;" parent="SM-zXdetAbQvxSArsVxr-1" vertex="1">
                    <mxGeometry x="140" y="215" width="30" height="30" as="geometry"/>
                </mxCell>
                <mxCell id="SM-zXdetAbQvxSArsVxr-24" value="" style="ellipse;whiteSpace=wrap;html=1;sketch=0;fillStyle=auto;fontFamily=Verdana;fontSize=16;fontColor=#ffffff;strokeColor=#3700CC;strokeWidth=1;fillColor=#6a00ff;" parent="SM-zXdetAbQvxSArsVxr-1" vertex="1">
                    <mxGeometry x="190" y="215" width="30" height="30" as="geometry"/>
                </mxCell>
                <mxCell id="SM-zXdetAbQvxSArsVxr-30" value="g++ ..." style="text;html=1;strokeColor=none;fillColor=none;align=left;verticalAlign=middle;whiteSpace=wrap;rounded=0;sketch=0;fillStyle=auto;fontFamily=MonacoB2;fontSize=14;fontColor=#000000;fontStyle=1" parent="SM-zXdetAbQvxSArsVxr-1" vertex="1">
                    <mxGeometry x="542" y="198" width="250" height="30" as="geometry"/>
                </mxCell>
                <mxCell id="SM-zXdetAbQvxSArsVxr-31" value="g++ ..." style="text;html=1;strokeColor=none;fillColor=none;align=left;verticalAlign=middle;whiteSpace=wrap;rounded=0;sketch=0;fillStyle=auto;fontFamily=MonacoB2;fontSize=14;fontColor=#000000;fontStyle=1" parent="SM-zXdetAbQvxSArsVxr-1" vertex="1">
                    <mxGeometry x="542" y="218" width="250" height="30" as="geometry"/>
                </mxCell>
                <mxCell id="SM-zXdetAbQvxSArsVxr-34" value="" style="rounded=0;whiteSpace=wrap;html=1;fillColor=#f5f5f5;fontColor=#333333;strokeColor=#666666;" parent="SM-zXdetAbQvxSArsVxr-1" vertex="1">
                    <mxGeometry x="20" y="300" width="270" height="110" as="geometry"/>
                </mxCell>
                <mxCell id="SM-zXdetAbQvxSArsVxr-36" value="after merge" style="text;html=1;strokeColor=none;fillColor=none;align=center;verticalAlign=middle;whiteSpace=wrap;rounded=0;sketch=0;fillStyle=auto;fontSize=16;fontFamily=Verdana;" parent="SM-zXdetAbQvxSArsVxr-1" vertex="1">
                    <mxGeometry x="20" y="304" width="270" height="30" as="geometry"/>
                </mxCell>
                <mxCell id="SM-zXdetAbQvxSArsVxr-38" value="" style="shape=card;whiteSpace=wrap;html=1;sketch=0;fillStyle=auto;fontSize=14;fontColor=#000000;fillColor=default;gradientColor=none;fontFamily=MonacoB2;fontStyle=1;size=20;verticalAlign=top;spacingTop=4;" parent="SM-zXdetAbQvxSArsVxr-1" vertex="1">
                    <mxGeometry x="20" y="340" width="270" height="100" as="geometry"/>
                </mxCell>
                <mxCell id="SM-zXdetAbQvxSArsVxr-40" style="edgeStyle=none;rounded=0;orthogonalLoop=1;jettySize=auto;html=1;exitX=1;exitY=0.5;exitDx=0;exitDy=0;exitPerimeter=0;entryX=0;entryY=0.6;entryDx=0;entryDy=0;entryPerimeter=0;fontFamily=Helvetica;fontSize=18;fontColor=#000000;strokeColor=#FF8000;strokeWidth=2;" parent="SM-zXdetAbQvxSArsVxr-1" edge="1">
                    <mxGeometry relative="1" as="geometry">
                        <mxPoint x="530" y="416" as="sourcePoint"/>
                        <mxPoint x="290" y="416" as="targetPoint"/>
                    </mxGeometry>
                </mxCell>
                <mxCell id="SM-zXdetAbQvxSArsVxr-41" value="/obj-cache/{i}.o" style="edgeLabel;html=1;align=center;verticalAlign=bottom;resizable=0;points=[];fontSize=18;fontFamily=Verdana;fontColor=#FF8000;fontStyle=2;labelPosition=center;verticalLabelPosition=top;" parent="SM-zXdetAbQvxSArsVxr-40" vertex="1" connectable="0">
                    <mxGeometry x="-0.0167" relative="1" as="geometry">
                        <mxPoint y="-2" as="offset"/>
                    </mxGeometry>
                </mxCell>
                <mxCell id="SM-zXdetAbQvxSArsVxr-42" style="edgeStyle=none;rounded=0;orthogonalLoop=1;jettySize=auto;html=1;exitX=1;exitY=0.5;exitDx=0;exitDy=0;entryX=0;entryY=0.5;entryDx=0;entryDy=0;fontFamily=Verdana;fontSize=16;fontColor=#666;strokeColor=#666;strokeWidth=1;" parent="SM-zXdetAbQvxSArsVxr-1" source="SM-zXdetAbQvxSArsVxr-44" target="SM-zXdetAbQvxSArsVxr-45" edge="1">
                    <mxGeometry relative="1" as="geometry"/>
                </mxCell>
                <mxCell id="SM-zXdetAbQvxSArsVxr-44" value="" style="ellipse;whiteSpace=wrap;html=1;sketch=0;fillStyle=auto;fontFamily=Verdana;fontSize=16;fontColor=#ffffff;strokeColor=#2D7600;strokeWidth=1;fillColor=#60a917;" parent="SM-zXdetAbQvxSArsVxr-1" vertex="1">
                    <mxGeometry x="40" y="360" width="30" height="30" as="geometry"/>
                </mxCell>
                <mxCell id="SM-zXdetAbQvxSArsVxr-53" style="edgeStyle=none;rounded=0;orthogonalLoop=1;jettySize=auto;html=1;exitX=1;exitY=0.5;exitDx=0;exitDy=0;entryX=0;entryY=0.5;entryDx=0;entryDy=0;fontFamily=Verdana;fontSize=16;fontColor=#666;strokeColor=#666;strokeWidth=1;" parent="SM-zXdetAbQvxSArsVxr-1" source="SM-zXdetAbQvxSArsVxr-45" target="SM-zXdetAbQvxSArsVxr-47" edge="1">
                    <mxGeometry relative="1" as="geometry"/>
                </mxCell>
                <mxCell id="SM-zXdetAbQvxSArsVxr-45" value="" style="ellipse;whiteSpace=wrap;html=1;sketch=0;fillStyle=auto;fontFamily=Verdana;fontSize=16;fontColor=#ffffff;strokeColor=#2D7600;strokeWidth=1;fillColor=#60a917;" parent="SM-zXdetAbQvxSArsVxr-1" vertex="1">
                    <mxGeometry x="90" y="360" width="30" height="30" as="geometry"/>
                </mxCell>
                <mxCell id="SM-zXdetAbQvxSArsVxr-46" style="edgeStyle=none;rounded=0;orthogonalLoop=1;jettySize=auto;html=1;exitX=1;exitY=0.5;exitDx=0;exitDy=0;entryX=0;entryY=0.5;entryDx=0;entryDy=0;fontFamily=Verdana;fontSize=16;fontColor=#666;strokeColor=#666;strokeWidth=1;" parent="SM-zXdetAbQvxSArsVxr-1" source="SM-zXdetAbQvxSArsVxr-47" target="SM-zXdetAbQvxSArsVxr-49" edge="1">
                    <mxGeometry relative="1" as="geometry"/>
                </mxCell>
                <mxCell id="SM-zXdetAbQvxSArsVxr-47" value="" style="ellipse;whiteSpace=wrap;html=1;sketch=0;fillStyle=auto;fontFamily=Verdana;fontSize=16;fontColor=#ffffff;strokeColor=#3700CC;strokeWidth=1;fillColor=#6a00ff;" parent="SM-zXdetAbQvxSArsVxr-1" vertex="1">
                    <mxGeometry x="140" y="360" width="30" height="30" as="geometry"/>
                </mxCell>
                <mxCell id="SM-zXdetAbQvxSArsVxr-48" style="edgeStyle=none;rounded=0;orthogonalLoop=1;jettySize=auto;html=1;exitX=1;exitY=0.5;exitDx=0;exitDy=0;entryX=0;entryY=0.5;entryDx=0;entryDy=0;fontFamily=Verdana;fontSize=16;fontColor=#666;strokeColor=#666;strokeWidth=1;" parent="SM-zXdetAbQvxSArsVxr-1" source="SM-zXdetAbQvxSArsVxr-49" target="SM-zXdetAbQvxSArsVxr-50" edge="1">
                    <mxGeometry relative="1" as="geometry"/>
                </mxCell>
                <mxCell id="SM-zXdetAbQvxSArsVxr-49" value="" style="ellipse;whiteSpace=wrap;html=1;sketch=0;fillStyle=auto;fontFamily=Verdana;fontSize=16;fontColor=#ffffff;strokeColor=#3700CC;strokeWidth=1;fillColor=#6a00ff;" parent="SM-zXdetAbQvxSArsVxr-1" vertex="1">
                    <mxGeometry x="190" y="360" width="30" height="30" as="geometry"/>
                </mxCell>
                <mxCell id="SM-zXdetAbQvxSArsVxr-50" value="" style="ellipse;whiteSpace=wrap;html=1;sketch=0;fillStyle=auto;fontFamily=Verdana;fontSize=16;fontColor=#ffffff;strokeColor=#3700CC;strokeWidth=1;fillColor=#6a00ff;" parent="SM-zXdetAbQvxSArsVxr-1" vertex="1">
                    <mxGeometry x="240" y="360" width="30" height="30" as="geometry"/>
                </mxCell>
                <mxCell id="JQX8vpZztEgtzk9yrVQE-0" value="hashes of files" style="edgeStyle=none;rounded=0;orthogonalLoop=1;jettySize=auto;html=1;exitX=1;exitY=0.5;exitDx=0;exitDy=0;exitPerimeter=0;entryX=0;entryY=0.6;entryDx=0;entryDy=0;entryPerimeter=0;fontFamily=Verdana;fontSize=18;fontColor=#666;fontStyle=2;labelPosition=center;verticalLabelPosition=top;align=center;verticalAlign=bottom;strokeColor=#666;strokeWidth=1;" parent="SM-zXdetAbQvxSArsVxr-1" edge="1">
                    <mxGeometry relative="1" as="geometry">
                        <mxPoint x="290" y="376" as="sourcePoint"/>
                        <mxPoint x="530" y="376" as="targetPoint"/>
                    </mxGeometry>
                </mxCell>
                <mxCell id="u4zLqY6MYTCtZHpfPw3J-0" value="" style="shape=cylinder3;whiteSpace=wrap;html=1;boundedLbl=1;backgroundOutline=1;size=12;gradientColor=none;sketch=0;fillStyle=auto;fillColor=#fff2cc;strokeColor=#7A6831;" parent="SM-zXdetAbQvxSArsVxr-1" vertex="1">
                    <mxGeometry x="530" y="300" width="270" height="140" as="geometry"/>
                </mxCell>
                <mxCell id="u4zLqY6MYTCtZHpfPw3J-1" value="nocc-server" style="text;html=1;strokeColor=none;fillColor=none;align=center;verticalAlign=middle;whiteSpace=wrap;rounded=0;sketch=0;fillStyle=auto;fontSize=16;fontFamily=Verdana;fontColor=#7A6831;" parent="SM-zXdetAbQvxSArsVxr-1" vertex="1">
                    <mxGeometry x="530" y="296" width="270" height="30" as="geometry"/>
                </mxCell>
                <mxCell id="u4zLqY6MYTCtZHpfPw3J-2" value="&quot;sources already uploaded&quot;" style="text;html=1;strokeColor=none;fillColor=none;align=left;verticalAlign=middle;whiteSpace=wrap;rounded=0;sketch=0;fillStyle=auto;fontFamily=Verdana;fontSize=16;fontColor=#666;fontStyle=2" parent="SM-zXdetAbQvxSArsVxr-1" vertex="1">
                    <mxGeometry x="540" y="358" width="238" height="30" as="geometry"/>
                </mxCell>
                <mxCell id="u4zLqY6MYTCtZHpfPw3J-3" value="&quot;objects already compiled&quot;" style="text;html=1;strokeColor=none;fillColor=none;align=left;verticalAlign=middle;whiteSpace=wrap;rounded=0;sketch=0;fillStyle=auto;fontFamily=Verdana;fontSize=16;fontColor=#666;fontStyle=2" parent="SM-zXdetAbQvxSArsVxr-1" vertex="1">
                    <mxGeometry x="540" y="397" width="238" height="30" as="geometry"/>
                </mxCell>
            </root>
        </mxGraphModel>
    </diagram>
    <diagram id="3BsY0XecEdb2rc9n0jqh" name="file-mapping">
        <mxGraphModel dx="2547" dy="726" grid="1" gridSize="10" guides="1" tooltips="1" connect="1" arrows="1" fold="1" page="1" pageScale="1" pageWidth="827" pageHeight="1169" math="0" shadow="0">
            <root>
                <mxCell id="9OYoDZLbK3qCeAS5dDTY-0"/>
                <mxCell id="9OYoDZLbK3qCeAS5dDTY-1" parent="9OYoDZLbK3qCeAS5dDTY-0"/>
                <mxCell id="GCSyUWal-AkHSb3anz5f-0" value="" style="shape=cylinder3;whiteSpace=wrap;html=1;boundedLbl=1;backgroundOutline=1;size=12;gradientColor=none;sketch=0;fillStyle=auto;fillColor=#fff2cc;strokeColor=#7A6831;" parent="9OYoDZLbK3qCeAS5dDTY-1" vertex="1">
                    <mxGeometry x="380" y="120" width="420" height="230" as="geometry"/>
                </mxCell>
                <mxCell id="W90nJ6uV7f3QRfv4CsAw-0" value="" style="html=1;verticalLabelPosition=bottom;align=center;labelBackgroundColor=#ffffff;verticalAlign=top;strokeWidth=1;shadow=0;dashed=0;shape=mxgraph.ios7.icons.folder;sketch=0;fillStyle=auto;fontFamily=Verdana;fontSize=16;" parent="9OYoDZLbK3qCeAS5dDTY-1" vertex="1">
                    <mxGeometry x="400" y="150" width="380" height="150" as="geometry"/>
                </mxCell>
                <mxCell id="GCSyUWal-AkHSb3anz5f-1" value="" style="rounded=0;whiteSpace=wrap;html=1;fillColor=#f5f5f5;fontColor=#333333;strokeColor=#666666;" parent="9OYoDZLbK3qCeAS5dDTY-1" vertex="1">
                    <mxGeometry x="20" y="120" width="270" height="210" as="geometry"/>
                </mxCell>
                <mxCell id="pYgqeD186_ziBa2PZ6t3-0" value="" style="shape=card;whiteSpace=wrap;html=1;sketch=0;fillStyle=auto;fontSize=14;fontColor=#000000;fillColor=default;gradientColor=none;fontFamily=MonacoB2;fontStyle=1;size=20;verticalAlign=top;spacingTop=0;" parent="9OYoDZLbK3qCeAS5dDTY-1" vertex="1">
                    <mxGeometry x="20" y="160" width="270" height="190" as="geometry"/>
                </mxCell>
                <mxCell id="GCSyUWal-AkHSb3anz5f-19" style="edgeStyle=none;rounded=0;orthogonalLoop=1;jettySize=auto;html=1;fontFamily=Verdana;fontSize=16;fontColor=#000;strokeColor=#B266FF;strokeWidth=1;" parent="9OYoDZLbK3qCeAS5dDTY-1" edge="1">
                    <mxGeometry relative="1" as="geometry">
                        <mxPoint x="290" y="220" as="sourcePoint"/>
                        <mxPoint x="400" y="220" as="targetPoint"/>
                    </mxGeometry>
                </mxCell>
                <mxCell id="GCSyUWal-AkHSb3anz5f-9" value="/home/alice/1.cpp" style="text;html=1;strokeColor=none;fillColor=none;align=right;verticalAlign=middle;whiteSpace=wrap;rounded=0;sketch=0;fillStyle=auto;fontFamily=Verdana;fontSize=18;fontColor=#000;" parent="9OYoDZLbK3qCeAS5dDTY-1" vertex="1">
                    <mxGeometry x="60" y="205" width="220" height="30" as="geometry"/>
                </mxCell>
                <mxCell id="GCSyUWal-AkHSb3anz5f-10" value="/root/some/folder/1.h" style="text;html=1;strokeColor=none;fillColor=none;align=right;verticalAlign=middle;whiteSpace=wrap;rounded=0;sketch=0;fillStyle=auto;fontFamily=Verdana;fontSize=18;fontColor=#000;" parent="9OYoDZLbK3qCeAS5dDTY-1" vertex="1">
                    <mxGeometry x="60" y="235" width="220" height="30" as="geometry"/>
                </mxCell>
                <mxCell id="GCSyUWal-AkHSb3anz5f-11" value="/usr/include/math.h" style="text;html=1;strokeColor=none;fillColor=none;align=right;verticalAlign=middle;whiteSpace=wrap;rounded=0;sketch=0;fillStyle=auto;fontFamily=Verdana;fontSize=18;fontColor=#000;" parent="9OYoDZLbK3qCeAS5dDTY-1" vertex="1">
                    <mxGeometry x="60" y="282" width="220" height="30" as="geometry"/>
                </mxCell>
                <mxCell id="GCSyUWal-AkHSb3anz5f-12" value="/home/alice/1.cpp" style="text;html=1;strokeColor=none;fillColor=none;align=left;verticalAlign=middle;whiteSpace=wrap;rounded=0;sketch=0;fillStyle=auto;fontFamily=Verdana;fontSize=18;fontColor=#000;" parent="9OYoDZLbK3qCeAS5dDTY-1" vertex="1">
                    <mxGeometry x="450" y="204" width="220" height="30" as="geometry"/>
                </mxCell>
                <mxCell id="GCSyUWal-AkHSb3anz5f-13" value="/tmp/nocc-server/clients/{clientID}" style="text;html=1;strokeColor=none;fillColor=none;align=left;verticalAlign=middle;whiteSpace=wrap;rounded=0;sketch=0;fillStyle=auto;fontFamily=Verdana;fontSize=16;fontColor=#B266FF;fontStyle=1" parent="9OYoDZLbK3qCeAS5dDTY-1" vertex="1">
                    <mxGeometry x="414" y="174" width="350" height="30" as="geometry"/>
                </mxCell>
                <mxCell id="GCSyUWal-AkHSb3anz5f-14" value="/root/some/folder/1.h" style="text;html=1;strokeColor=none;fillColor=none;align=left;verticalAlign=middle;whiteSpace=wrap;rounded=0;sketch=0;fillStyle=auto;fontFamily=Verdana;fontSize=18;fontColor=#000;" parent="9OYoDZLbK3qCeAS5dDTY-1" vertex="1">
                    <mxGeometry x="450" y="234" width="220" height="30" as="geometry"/>
                </mxCell>
                <mxCell id="GCSyUWal-AkHSb3anz5f-16" value="/usr/include/math.h" style="text;html=1;strokeColor=none;fillColor=none;align=left;verticalAlign=middle;whiteSpace=wrap;rounded=0;sketch=0;fillStyle=auto;fontFamily=Verdana;fontSize=18;fontColor=#000;" parent="9OYoDZLbK3qCeAS5dDTY-1" vertex="1">
                    <mxGeometry x="450" y="264" width="220" height="30" as="geometry"/>
                </mxCell>
                <mxCell id="GCSyUWal-AkHSb3anz5f-18" value="/usr/include/math.h" style="text;html=1;strokeColor=none;fillColor=none;align=left;verticalAlign=middle;whiteSpace=wrap;rounded=0;sketch=0;fillStyle=auto;fontFamily=Verdana;fontSize=18;fontColor=#000;" parent="9OYoDZLbK3qCeAS5dDTY-1" vertex="1">
                    <mxGeometry x="404" y="304" width="220" height="30" as="geometry"/>
                </mxCell>
                <mxCell id="GCSyUWal-AkHSb3anz5f-20" style="edgeStyle=none;rounded=0;orthogonalLoop=1;jettySize=auto;html=1;fontFamily=Verdana;fontSize=16;fontColor=#000;strokeColor=#B266FF;strokeWidth=1;" parent="9OYoDZLbK3qCeAS5dDTY-1" edge="1">
                    <mxGeometry relative="1" as="geometry">
                        <mxPoint x="290" y="250" as="sourcePoint"/>
                        <mxPoint x="400" y="250" as="targetPoint"/>
                    </mxGeometry>
                </mxCell>
                <mxCell id="GCSyUWal-AkHSb3anz5f-21" style="edgeStyle=none;rounded=0;orthogonalLoop=1;jettySize=auto;html=1;fontFamily=Verdana;fontSize=16;fontColor=#000;strokeColor=#B266FF;strokeWidth=1;dashed=1;" parent="9OYoDZLbK3qCeAS5dDTY-1" edge="1">
                    <mxGeometry relative="1" as="geometry">
                        <mxPoint x="290" y="299" as="sourcePoint"/>
                        <mxPoint x="400" y="279" as="targetPoint"/>
                    </mxGeometry>
                </mxCell>
                <mxCell id="GCSyUWal-AkHSb3anz5f-22" style="edgeStyle=none;rounded=0;orthogonalLoop=1;jettySize=auto;html=1;fontFamily=Verdana;fontSize=16;fontColor=#000;strokeColor=#B266FF;strokeWidth=1;dashed=1;" parent="9OYoDZLbK3qCeAS5dDTY-1" edge="1">
                    <mxGeometry relative="1" as="geometry">
                        <mxPoint x="290" y="299" as="sourcePoint"/>
                        <mxPoint x="400" y="319" as="targetPoint"/>
                    </mxGeometry>
                </mxCell>
                <mxCell id="GCSyUWal-AkHSb3anz5f-24" value="g++&lt;br&gt;&amp;nbsp; /home/alice/1.cpp&lt;br&gt;&amp;nbsp; -iquote /root/some/folder&lt;br&gt;&amp;nbsp; &lt;font color=&quot;#999999&quot;&gt;...&lt;/font&gt;" style="text;html=1;strokeColor=none;fillColor=none;align=left;verticalAlign=top;whiteSpace=wrap;rounded=0;sketch=0;fillStyle=auto;fontFamily=MonacoB2;fontSize=16;fontColor=#000;horizontal=1;" parent="9OYoDZLbK3qCeAS5dDTY-1" vertex="1">
                    <mxGeometry x="20" y="360" width="270" height="90" as="geometry"/>
                </mxCell>
                <mxCell id="GCSyUWal-AkHSb3anz5f-25" value="&lt;div&gt;chroot&amp;nbsp;&lt;b style=&quot;background-color: transparent; scrollbar-color: rgb(226, 226, 226) rgb(251, 251, 251);&quot;&gt;&lt;font style=&quot;color: rgb(178, 102, 255);&quot;&gt;/tmp/nocc-server/clients/{clientID}&lt;/font&gt;&lt;/b&gt;&lt;/div&gt;g++&lt;br&gt;&amp;nbsp; &lt;b&gt;&lt;font color=&quot;#b266ff&quot;&gt;/&lt;/font&gt;&lt;/b&gt;home/alice/1.cpp&lt;br&gt;&amp;nbsp; -iquote /root/some/folder&lt;br&gt;&amp;nbsp; &lt;font color=&quot;#999999&quot;&gt;...&lt;/font&gt;" style="text;html=1;strokeColor=none;fillColor=none;align=left;verticalAlign=top;whiteSpace=wrap;rounded=0;sketch=0;fillStyle=auto;fontFamily=MonacoB2;fontSize=16;fontColor=#000;" parent="9OYoDZLbK3qCeAS5dDTY-1" vertex="1">
                    <mxGeometry x="380" y="360" width="420" height="90" as="geometry"/>
                </mxCell>
                <mxCell id="VAVM9ew6zeeGJdNdvrAm-0" value="" style="endArrow=none;html=1;rounded=0;fontFamily=MonacoB2;fontSize=16;fontColor=#999900;strokeColor=#000000;strokeWidth=1;entryX=0.037;entryY=1;entryDx=0;entryDy=0;entryPerimeter=0;" parent="9OYoDZLbK3qCeAS5dDTY-1" edge="1">
                    <mxGeometry width="50" height="50" relative="1" as="geometry">
                        <mxPoint x="423" y="282" as="sourcePoint"/>
                        <mxPoint x="423" y="204" as="targetPoint"/>
                    </mxGeometry>
                </mxCell>
                <mxCell id="VAVM9ew6zeeGJdNdvrAm-1" value="" style="endArrow=oval;html=1;rounded=0;fontFamily=MonacoB2;fontSize=16;fontColor=#999900;strokeColor=#000000;strokeWidth=1;endFill=1;endSize=4;" parent="9OYoDZLbK3qCeAS5dDTY-1" edge="1">
                    <mxGeometry width="50" height="50" relative="1" as="geometry">
                        <mxPoint x="443" y="219" as="sourcePoint"/>
                        <mxPoint x="423" y="219" as="targetPoint"/>
                    </mxGeometry>
                </mxCell>
                <mxCell id="VmTeCc5T8YL2l4P7cehs-0" value="" style="endArrow=oval;html=1;rounded=0;fontFamily=MonacoB2;fontSize=16;fontColor=#999900;strokeColor=#000000;strokeWidth=1;endFill=1;endSize=4;" parent="9OYoDZLbK3qCeAS5dDTY-1" edge="1">
                    <mxGeometry width="50" height="50" relative="1" as="geometry">
                        <mxPoint x="443" y="249" as="sourcePoint"/>
                        <mxPoint x="423" y="249" as="targetPoint"/>
                    </mxGeometry>
                </mxCell>
                <mxCell id="VmTeCc5T8YL2l4P7cehs-1" value="" style="endArrow=oval;html=1;rounded=0;fontFamily=MonacoB2;fontSize=16;fontColor=#999900;strokeColor=#000000;strokeWidth=1;endFill=1;endSize=4;" parent="9OYoDZLbK3qCeAS5dDTY-1" edge="1">
                    <mxGeometry width="50" height="50" relative="1" as="geometry">
                        <mxPoint x="443" y="279" as="sourcePoint"/>
                        <mxPoint x="423" y="279" as="targetPoint"/>
                    </mxGeometry>
                </mxCell>
                <mxCell id="z3jPrl99mUUh7LYszubH-0" value="client" style="text;html=1;strokeColor=none;fillColor=none;align=center;verticalAlign=middle;whiteSpace=wrap;rounded=0;sketch=0;fillStyle=auto;fontSize=16;fontFamily=Verdana;fontStyle=0" parent="9OYoDZLbK3qCeAS5dDTY-1" vertex="1">
                    <mxGeometry x="20" y="124" width="270" height="30" as="geometry"/>
                </mxCell>
            </root>
        </mxGraphModel>
    </diagram>
    <diagram id="TxxdUTdV6Ui--1d9hDnD" name="src-cache">
        <mxGraphModel dx="946" dy="672" grid="1" gridSize="10" guides="1" tooltips="1" connect="1" arrows="1" fold="1" page="1" pageScale="1" pageWidth="827" pageHeight="1169" math="0" shadow="0">
            <root>
                <mxCell id="5t8PhfdUoYSBFNKI9Pm_-0"/>
                <mxCell id="5t8PhfdUoYSBFNKI9Pm_-1" parent="5t8PhfdUoYSBFNKI9Pm_-0"/>
                <mxCell id="-RmzCTiqoxxlFIS2R7KU-1" value="" style="rounded=0;whiteSpace=wrap;html=1;fillColor=#f5f5f5;fontColor=#333333;strokeColor=#666666;" vertex="1" parent="5t8PhfdUoYSBFNKI9Pm_-1">
                    <mxGeometry x="20" y="120" width="270" height="210" as="geometry"/>
                </mxCell>
                <mxCell id="X2z09sbRMJk0lTQBCIbK-0" value="" style="shape=card;whiteSpace=wrap;html=1;sketch=0;fillStyle=auto;fontSize=14;fontColor=#000000;fillColor=default;gradientColor=none;fontFamily=MonacoB2;fontStyle=1;size=20;verticalAlign=top;spacingTop=0;" vertex="1" parent="5t8PhfdUoYSBFNKI9Pm_-1">
                    <mxGeometry x="20" y="160" width="270" height="170" as="geometry"/>
                </mxCell>
                <mxCell id="-RmzCTiqoxxlFIS2R7KU-0" value="" style="shape=cylinder3;whiteSpace=wrap;html=1;boundedLbl=1;backgroundOutline=1;size=12;gradientColor=none;sketch=0;fillStyle=auto;fillColor=#fff2cc;strokeColor=#7A6831;" vertex="1" parent="5t8PhfdUoYSBFNKI9Pm_-1">
                    <mxGeometry x="380" y="120" width="420" height="210" as="geometry"/>
                </mxCell>
                <mxCell id="-RmzCTiqoxxlFIS2R7KU-3" value="/home/alice/1.cpp" style="text;html=1;strokeColor=none;fillColor=none;align=right;verticalAlign=middle;whiteSpace=wrap;rounded=0;sketch=0;fillStyle=auto;fontFamily=Verdana;fontSize=18;fontColor=#000;" vertex="1" parent="5t8PhfdUoYSBFNKI9Pm_-1">
                    <mxGeometry x="60" y="176" width="220" height="30" as="geometry"/>
                </mxCell>
                <mxCell id="-RmzCTiqoxxlFIS2R7KU-4" value="/root/some/folder/1.h" style="text;html=1;strokeColor=none;fillColor=none;align=right;verticalAlign=middle;whiteSpace=wrap;rounded=0;sketch=0;fillStyle=auto;fontFamily=Verdana;fontSize=18;fontColor=#000;" vertex="1" parent="5t8PhfdUoYSBFNKI9Pm_-1">
                    <mxGeometry x="60" y="230" width="220" height="30" as="geometry"/>
                </mxCell>
                <mxCell id="-RmzCTiqoxxlFIS2R7KU-6" value="/home/alice/1.cpp" style="text;html=1;strokeColor=none;fillColor=none;align=left;verticalAlign=middle;whiteSpace=wrap;rounded=0;sketch=0;fillStyle=auto;fontFamily=Verdana;fontSize=18;fontColor=#000;" vertex="1" parent="5t8PhfdUoYSBFNKI9Pm_-1">
                    <mxGeometry x="430" y="210" width="210" height="30" as="geometry"/>
                </mxCell>
                <mxCell id="-RmzCTiqoxxlFIS2R7KU-8" value="/root/some/folder/1.h" style="text;html=1;strokeColor=none;fillColor=none;align=left;verticalAlign=middle;whiteSpace=wrap;rounded=0;sketch=0;fillStyle=auto;fontFamily=Verdana;fontSize=18;fontColor=#000;" vertex="1" parent="5t8PhfdUoYSBFNKI9Pm_-1">
                    <mxGeometry x="430" y="240" width="210" height="30" as="geometry"/>
                </mxCell>
                <mxCell id="-RmzCTiqoxxlFIS2R7KU-19" value="" style="shape=hexagon;perimeter=hexagonPerimeter2;whiteSpace=wrap;html=1;fixedSize=1;sketch=0;fillStyle=auto;fontFamily=MonacoB2;fontSize=16;strokeWidth=1;strokeColor=#CC0066;" vertex="1" parent="5t8PhfdUoYSBFNKI9Pm_-1">
                    <mxGeometry x="655" y="156" width="130" height="144" as="geometry"/>
                </mxCell>
                <mxCell id="-RmzCTiqoxxlFIS2R7KU-20" value="src cache" style="text;html=1;strokeColor=none;fillColor=none;align=center;verticalAlign=middle;whiteSpace=wrap;rounded=0;sketch=0;fillStyle=auto;fontFamily=Verdana;fontSize=16;fontColor=#FF0080;fontStyle=1" vertex="1" parent="5t8PhfdUoYSBFNKI9Pm_-1">
                    <mxGeometry x="667.5" y="156" width="105" height="30" as="geometry"/>
                </mxCell>
                <mxCell id="CZqXCbRMpVmdFI0ptbg6-2" style="edgeStyle=none;rounded=0;orthogonalLoop=1;jettySize=auto;html=1;exitX=0;exitY=0.5;exitDx=0;exitDy=0;entryX=1;entryY=0.5;entryDx=0;entryDy=0;fontFamily=Verdana;fontSize=16;fontColor=#000000;strokeColor=#FF0080;strokeWidth=2;startArrow=classic;startFill=1;" edge="1" parent="5t8PhfdUoYSBFNKI9Pm_-1" source="-RmzCTiqoxxlFIS2R7KU-22" target="-RmzCTiqoxxlFIS2R7KU-6">
                    <mxGeometry relative="1" as="geometry"/>
                </mxCell>
                <mxCell id="-RmzCTiqoxxlFIS2R7KU-22" value="12FF" style="rounded=1;whiteSpace=wrap;html=1;sketch=0;fillStyle=auto;fontFamily=MonacoB2;fontSize=16;fontColor=#FF0080;strokeColor=#FF99CC;strokeWidth=1;fillColor=none;gradientColor=none;" vertex="1" parent="5t8PhfdUoYSBFNKI9Pm_-1">
                    <mxGeometry x="685" y="195" width="70" height="35" as="geometry"/>
                </mxCell>
                <mxCell id="CZqXCbRMpVmdFI0ptbg6-3" style="edgeStyle=none;rounded=0;orthogonalLoop=1;jettySize=auto;html=1;exitX=0;exitY=0.5;exitDx=0;exitDy=0;entryX=1;entryY=0.5;entryDx=0;entryDy=0;fontFamily=Verdana;fontSize=16;fontColor=#000000;startArrow=classic;startFill=1;strokeColor=#FF0080;strokeWidth=2;" edge="1" parent="5t8PhfdUoYSBFNKI9Pm_-1" source="-RmzCTiqoxxlFIS2R7KU-23" target="-RmzCTiqoxxlFIS2R7KU-8">
                    <mxGeometry relative="1" as="geometry"/>
                </mxCell>
                <mxCell id="-RmzCTiqoxxlFIS2R7KU-23" value="AB99" style="rounded=1;whiteSpace=wrap;html=1;sketch=0;fillStyle=auto;fontFamily=MonacoB2;fontSize=16;fontColor=#FF0080;strokeColor=#FF99CC;strokeWidth=1;fillColor=none;gradientColor=none;" vertex="1" parent="5t8PhfdUoYSBFNKI9Pm_-1">
                    <mxGeometry x="685" y="245" width="70" height="35" as="geometry"/>
                </mxCell>
                <mxCell id="-RmzCTiqoxxlFIS2R7KU-24" value="hash = 12FF" style="text;html=1;strokeColor=none;fillColor=none;align=right;verticalAlign=middle;whiteSpace=wrap;rounded=0;sketch=0;fillStyle=auto;fontFamily=MonacoB2;fontSize=16;fontColor=#FF0080;fontStyle=2" vertex="1" parent="5t8PhfdUoYSBFNKI9Pm_-1">
                    <mxGeometry x="140" y="201" width="140" height="30" as="geometry"/>
                </mxCell>
                <mxCell id="-RmzCTiqoxxlFIS2R7KU-25" value="hash = AB99" style="text;html=1;strokeColor=none;fillColor=none;align=right;verticalAlign=middle;whiteSpace=wrap;rounded=0;sketch=0;fillStyle=auto;fontFamily=MonacoB2;fontSize=16;fontColor=#FF0080;fontStyle=2" vertex="1" parent="5t8PhfdUoYSBFNKI9Pm_-1">
                    <mxGeometry x="140" y="255" width="140" height="30" as="geometry"/>
                </mxCell>
                <mxCell id="CZqXCbRMpVmdFI0ptbg6-0" value="hashes" style="edgeStyle=none;rounded=0;orthogonalLoop=1;jettySize=auto;html=1;exitX=1;exitY=0.5;exitDx=0;exitDy=0;exitPerimeter=0;entryX=0;entryY=0.5;entryDx=0;entryDy=0;entryPerimeter=0;fontFamily=Verdana;fontSize=18;fontColor=#666;fontStyle=2;labelPosition=center;verticalLabelPosition=top;align=center;verticalAlign=bottom;strokeColor=#666;strokeWidth=1;" edge="1" parent="5t8PhfdUoYSBFNKI9Pm_-1" target="-RmzCTiqoxxlFIS2R7KU-0">
                    <mxGeometry relative="1" as="geometry">
                        <mxPoint x="290" y="224.5" as="sourcePoint"/>
                        <mxPoint x="530" y="224.5" as="targetPoint"/>
                    </mxGeometry>
                </mxCell>
                <mxCell id="rj0CSwqcbazt_yT0dK0l-0" value="second run" style="text;html=1;strokeColor=none;fillColor=none;align=center;verticalAlign=middle;whiteSpace=wrap;rounded=0;sketch=0;fillStyle=auto;fontSize=16;fontFamily=Verdana;fontStyle=1" vertex="1" parent="5t8PhfdUoYSBFNKI9Pm_-1">
                    <mxGeometry x="20" y="124" width="270" height="30" as="geometry"/>
                </mxCell>
                <mxCell id="f4dooLkYmOzpSR8LTtNI-0" value="/.../{clientID}" style="text;html=1;strokeColor=none;fillColor=none;align=left;verticalAlign=middle;whiteSpace=wrap;rounded=0;sketch=0;fillStyle=auto;fontFamily=Verdana;fontSize=16;fontColor=#B266FF;fontStyle=1" vertex="1" parent="5t8PhfdUoYSBFNKI9Pm_-1">
                    <mxGeometry x="397" y="179" width="176" height="30" as="geometry"/>
                </mxCell>
                <mxCell id="f4dooLkYmOzpSR8LTtNI-1" value="" style="endArrow=none;html=1;rounded=0;fontFamily=MonacoB2;fontSize=16;fontColor=#999900;strokeColor=#000000;strokeWidth=1;entryX=0.037;entryY=1;entryDx=0;entryDy=0;entryPerimeter=0;" edge="1" parent="5t8PhfdUoYSBFNKI9Pm_-1">
                    <mxGeometry width="50" height="50" relative="1" as="geometry">
                        <mxPoint x="403" y="259" as="sourcePoint"/>
                        <mxPoint x="403" y="211" as="targetPoint"/>
                    </mxGeometry>
                </mxCell>
                <mxCell id="f4dooLkYmOzpSR8LTtNI-2" value="" style="endArrow=oval;html=1;rounded=0;fontFamily=MonacoB2;fontSize=16;fontColor=#999900;strokeColor=#000000;strokeWidth=1;endFill=1;endSize=4;" edge="1" parent="5t8PhfdUoYSBFNKI9Pm_-1">
                    <mxGeometry width="50" height="50" relative="1" as="geometry">
                        <mxPoint x="423" y="226" as="sourcePoint"/>
                        <mxPoint x="403" y="226" as="targetPoint"/>
                    </mxGeometry>
                </mxCell>
                <mxCell id="f4dooLkYmOzpSR8LTtNI-3" value="" style="endArrow=oval;html=1;rounded=0;fontFamily=MonacoB2;fontSize=16;fontColor=#999900;strokeColor=#000000;strokeWidth=1;endFill=1;endSize=4;" edge="1" parent="5t8PhfdUoYSBFNKI9Pm_-1">
                    <mxGeometry width="50" height="50" relative="1" as="geometry">
                        <mxPoint x="423" y="256" as="sourcePoint"/>
                        <mxPoint x="403" y="256" as="targetPoint"/>
                    </mxGeometry>
                </mxCell>
            </root>
        </mxGraphModel>
    </diagram>
    <diagram name="obj-cache" id="s-5A2jqf1nhYKKu64ciS">
        <mxGraphModel dx="946" dy="672" grid="1" gridSize="10" guides="1" tooltips="1" connect="1" arrows="1" fold="1" page="1" pageScale="1" pageWidth="827" pageHeight="1169" math="0" shadow="0">
            <root>
                <mxCell id="gl06MtR0KlauN33Kz98p-0"/>
                <mxCell id="gl06MtR0KlauN33Kz98p-1" parent="gl06MtR0KlauN33Kz98p-0"/>
                <mxCell id="gl06MtR0KlauN33Kz98p-3" value="" style="rounded=0;whiteSpace=wrap;html=1;fillColor=#f5f5f5;fontColor=#333333;strokeColor=#666666;" vertex="1" parent="gl06MtR0KlauN33Kz98p-1">
                    <mxGeometry x="20" y="120" width="270" height="210" as="geometry"/>
                </mxCell>
                <mxCell id="Yst81LNUefYyZVrshsGi-0" value="&lt;span&gt;nocc g++ 1.cpp -Wall ...&lt;/span&gt;" style="shape=card;whiteSpace=wrap;html=1;sketch=0;fillStyle=auto;fontSize=14;fontColor=#000000;fillColor=default;gradientColor=none;fontFamily=MonacoB2;fontStyle=1;size=20;verticalAlign=top;spacingTop=16;" vertex="1" parent="gl06MtR0KlauN33Kz98p-1">
                    <mxGeometry x="20" y="160" width="270" height="170" as="geometry"/>
                </mxCell>
                <mxCell id="gl06MtR0KlauN33Kz98p-2" value="" style="shape=cylinder3;whiteSpace=wrap;html=1;boundedLbl=1;backgroundOutline=1;size=12;gradientColor=none;sketch=0;fillStyle=auto;fillColor=#fff2cc;strokeColor=#7A6831;" vertex="1" parent="gl06MtR0KlauN33Kz98p-1">
                    <mxGeometry x="380" y="120" width="420" height="210" as="geometry"/>
                </mxCell>
                <mxCell id="gl06MtR0KlauN33Kz98p-4" value="/home/alice/1.cpp" style="text;html=1;strokeColor=none;fillColor=none;align=right;verticalAlign=middle;whiteSpace=wrap;rounded=0;sketch=0;fillStyle=auto;fontFamily=Verdana;fontSize=16;fontColor=#000;" vertex="1" parent="gl06MtR0KlauN33Kz98p-1">
                    <mxGeometry x="60" y="216" width="220" height="30" as="geometry"/>
                </mxCell>
                <mxCell id="gl06MtR0KlauN33Kz98p-5" value="/root/some/folder/1.h" style="text;html=1;strokeColor=none;fillColor=none;align=right;verticalAlign=middle;whiteSpace=wrap;rounded=0;sketch=0;fillStyle=auto;fontFamily=Verdana;fontSize=16;fontColor=#000;" vertex="1" parent="gl06MtR0KlauN33Kz98p-1">
                    <mxGeometry x="60" y="250" width="220" height="30" as="geometry"/>
                </mxCell>
                <mxCell id="gl06MtR0KlauN33Kz98p-8" value="" style="shape=hexagon;perimeter=hexagonPerimeter2;whiteSpace=wrap;html=1;fixedSize=1;sketch=0;fillStyle=auto;fontFamily=MonacoB2;fontSize=16;strokeWidth=1;strokeColor=#009900;" vertex="1" parent="gl06MtR0KlauN33Kz98p-1">
                    <mxGeometry x="655" y="156" width="130" height="144" as="geometry"/>
                </mxCell>
                <mxCell id="gl06MtR0KlauN33Kz98p-9" value="obj cache" style="text;html=1;strokeColor=none;fillColor=none;align=center;verticalAlign=middle;whiteSpace=wrap;rounded=0;sketch=0;fillStyle=auto;fontFamily=Verdana;fontSize=16;fontColor=#009900;fontStyle=1" vertex="1" parent="gl06MtR0KlauN33Kz98p-1">
                    <mxGeometry x="667.5" y="156" width="105" height="30" as="geometry"/>
                </mxCell>
                <mxCell id="_SH4PLbtNV789yNtsO3B-1" style="edgeStyle=none;rounded=0;orthogonalLoop=1;jettySize=auto;html=1;exitX=0;exitY=0.5;exitDx=0;exitDy=0;entryX=1;entryY=0.5;entryDx=0;entryDy=0;fontFamily=MonacoB2;fontSize=16;fontColor=#FF0080;startArrow=classic;startFill=1;strokeColor=#009900;strokeWidth=2;" edge="1" parent="gl06MtR0KlauN33Kz98p-1" source="gl06MtR0KlauN33Kz98p-13" target="_SH4PLbtNV789yNtsO3B-0">
                    <mxGeometry relative="1" as="geometry"/>
                </mxCell>
                <mxCell id="_SH4PLbtNV789yNtsO3B-2" style="edgeStyle=none;rounded=0;orthogonalLoop=1;jettySize=auto;html=1;exitX=0;exitY=0.5;exitDx=0;exitDy=0;fontFamily=MonacoB2;fontSize=16;fontColor=#FF0080;startArrow=none;startFill=0;strokeColor=#009900;strokeWidth=1;entryX=0;entryY=0.5;entryDx=0;entryDy=0;dashed=1;" edge="1" parent="gl06MtR0KlauN33Kz98p-1" target="gl06MtR0KlauN33Kz98p-13">
                    <mxGeometry relative="1" as="geometry">
                        <mxPoint x="507" y="240" as="sourcePoint"/>
                    </mxGeometry>
                </mxCell>
                <mxCell id="gl06MtR0KlauN33Kz98p-13" value="43FC" style="rounded=1;whiteSpace=wrap;html=1;sketch=0;fillStyle=auto;fontFamily=Verdana;fontSize=16;fontColor=#009900;strokeColor=#009900;strokeWidth=1;fillColor=none;gradientColor=none;" vertex="1" parent="gl06MtR0KlauN33Kz98p-1">
                    <mxGeometry x="685" y="245" width="70" height="35" as="geometry"/>
                </mxCell>
                <mxCell id="gl06MtR0KlauN33Kz98p-16" value="hashes&lt;br&gt;+&lt;br&gt;cmd line" style="edgeStyle=none;rounded=0;orthogonalLoop=1;jettySize=auto;html=1;exitX=1;exitY=0.5;exitDx=0;exitDy=0;exitPerimeter=0;entryX=0;entryY=0.5;entryDx=0;entryDy=0;entryPerimeter=0;fontFamily=Verdana;fontSize=18;fontColor=#666;fontStyle=2;labelPosition=center;verticalLabelPosition=top;align=center;verticalAlign=bottom;strokeColor=#666;strokeWidth=1;" edge="1" parent="gl06MtR0KlauN33Kz98p-1">
                    <mxGeometry relative="1" as="geometry">
                        <mxPoint x="290" y="244.5" as="sourcePoint"/>
                        <mxPoint x="380" y="245" as="targetPoint"/>
                    </mxGeometry>
                </mxCell>
                <mxCell id="gl06MtR0KlauN33Kz98p-17" value="second run" style="text;html=1;strokeColor=none;fillColor=none;align=center;verticalAlign=middle;whiteSpace=wrap;rounded=0;sketch=0;fillStyle=auto;fontSize=16;fontFamily=Verdana;fontStyle=1" vertex="1" parent="gl06MtR0KlauN33Kz98p-1">
                    <mxGeometry x="20" y="124" width="270" height="30" as="geometry"/>
                </mxCell>
                <mxCell id="b7K5WfkeRgoEqRH_DLTW-0" value="save 1.o" style="text;html=1;strokeColor=none;fillColor=none;align=right;verticalAlign=middle;whiteSpace=wrap;rounded=0;sketch=0;fillStyle=auto;fontFamily=Verdana;fontSize=14;fontColor=#666666;" vertex="1" parent="gl06MtR0KlauN33Kz98p-1">
                    <mxGeometry x="98" y="287" width="180" height="30" as="geometry"/>
                </mxCell>
                <mxCell id="2EEzeVzfrZh5ACpMIeqH-0" style="edgeStyle=none;rounded=0;orthogonalLoop=1;jettySize=auto;html=1;entryX=0;entryY=0.6;entryDx=0;entryDy=0;entryPerimeter=0;fontFamily=Helvetica;fontSize=16;fontColor=#000000;strokeColor=#FF8000;strokeWidth=2;" edge="1" parent="gl06MtR0KlauN33Kz98p-1">
                    <mxGeometry relative="1" as="geometry">
                        <mxPoint x="430" y="302" as="sourcePoint"/>
                        <mxPoint x="290" y="302" as="targetPoint"/>
                    </mxGeometry>
                </mxCell>
                <mxCell id="2EEzeVzfrZh5ACpMIeqH-2" value="&lt;font color=&quot;#009900&quot;&gt;obj hash &lt;/font&gt;&lt;br&gt;&amp;nbsp; = &lt;font color=&quot;#ff0080&quot;&gt;12FF&lt;/font&gt; ^ &lt;font color=&quot;#ff0080&quot;&gt;AB99&lt;/font&gt; ^&lt;br&gt;&amp;nbsp; &amp;nbsp; hash(-Wall ...)&lt;br&gt;&amp;nbsp; = &lt;font color=&quot;#009900&quot;&gt;&lt;b&gt;43FC&lt;/b&gt;&lt;/font&gt;" style="text;html=1;strokeColor=none;fillColor=none;align=left;verticalAlign=top;whiteSpace=wrap;rounded=0;sketch=0;fillStyle=auto;fontFamily=MonacoB2;fontSize=16;fontColor=#000000;opacity=20;" vertex="1" parent="gl06MtR0KlauN33Kz98p-1">
                    <mxGeometry x="414" y="165" width="186" height="95" as="geometry"/>
                </mxCell>
                <mxCell id="_SH4PLbtNV789yNtsO3B-0" value="/.../1.o" style="text;html=1;strokeColor=none;fillColor=none;align=left;verticalAlign=middle;whiteSpace=wrap;rounded=0;sketch=0;fillStyle=auto;fontFamily=Verdana;fontSize=18;fontColor=#000;" vertex="1" parent="gl06MtR0KlauN33Kz98p-1">
                    <mxGeometry x="458" y="285" width="92" height="30" as="geometry"/>
                </mxCell>
            </root>
        </mxGraphModel>
    </diagram>
    <diagram id="Z4PpQV-lotuynkmIkC-n" name="own-pch">
        <mxGraphModel dx="946" dy="672" grid="1" gridSize="10" guides="1" tooltips="1" connect="1" arrows="1" fold="1" page="1" pageScale="1" pageWidth="827" pageHeight="1169" math="0" shadow="0">
            <root>
                <mxCell id="w_5mYkMJSWmA52GJMwqL-0"/>
                <mxCell id="w_5mYkMJSWmA52GJMwqL-1" parent="w_5mYkMJSWmA52GJMwqL-0"/>
                <mxCell id="ilYr97FoI9NhehEPjmdF-0" value="" style="rounded=0;whiteSpace=wrap;html=1;fillColor=#f5f5f5;fontColor=#333333;strokeColor=#666666;" vertex="1" parent="w_5mYkMJSWmA52GJMwqL-1">
                    <mxGeometry x="20" y="120" width="270" height="210" as="geometry"/>
                </mxCell>
                <mxCell id="ilYr97FoI9NhehEPjmdF-1" value="&lt;span&gt;nocc g++ all-headers.h ...&lt;/span&gt;" style="shape=card;whiteSpace=wrap;html=1;sketch=0;fillStyle=auto;fontSize=14;fontColor=#000000;fillColor=default;gradientColor=none;fontFamily=MonacoB2;fontStyle=1;size=20;verticalAlign=top;spacingTop=8;" vertex="1" parent="w_5mYkMJSWmA52GJMwqL-1">
                    <mxGeometry x="20" y="160" width="270" height="100" as="geometry"/>
                </mxCell>
                <mxCell id="ilYr97FoI9NhehEPjmdF-2" value="&lt;strike&gt;all-headers.h.gch&lt;/strike&gt;" style="text;html=1;strokeColor=none;fillColor=none;align=left;verticalAlign=middle;whiteSpace=wrap;rounded=0;sketch=0;fillStyle=auto;fontFamily=Verdana;fontSize=16;fontColor=#999;" vertex="1" parent="w_5mYkMJSWmA52GJMwqL-1">
                    <mxGeometry x="60" y="196" width="220" height="30" as="geometry"/>
                </mxCell>
                <mxCell id="ilYr97FoI9NhehEPjmdF-3" value="all-headers.h.nocc-pch" style="text;html=1;strokeColor=none;fillColor=none;align=left;verticalAlign=middle;whiteSpace=wrap;rounded=0;sketch=0;fillStyle=auto;fontFamily=Verdana;fontSize=16;fontColor=#000099;" vertex="1" parent="w_5mYkMJSWmA52GJMwqL-1">
                    <mxGeometry x="60" y="220" width="220" height="30" as="geometry"/>
                </mxCell>
                <mxCell id="ilYr97FoI9NhehEPjmdF-4" value="client" style="text;html=1;strokeColor=none;fillColor=none;align=center;verticalAlign=middle;whiteSpace=wrap;rounded=0;sketch=0;fillStyle=auto;fontSize=16;fontFamily=Verdana;fontStyle=0" vertex="1" parent="w_5mYkMJSWmA52GJMwqL-1">
                    <mxGeometry x="20" y="124" width="270" height="30" as="geometry"/>
                </mxCell>
                <mxCell id="ilYr97FoI9NhehEPjmdF-6" value="&lt;span&gt;nocc g++ 1.cpp ...&lt;/span&gt;" style="shape=card;whiteSpace=wrap;html=1;sketch=0;fillStyle=auto;fontSize=14;fontColor=#000000;fillColor=default;gradientColor=none;fontFamily=MonacoB2;fontStyle=1;size=20;verticalAlign=top;spacingTop=8;" vertex="1" parent="w_5mYkMJSWmA52GJMwqL-1">
                    <mxGeometry x="20" y="260" width="270" height="140" as="geometry"/>
                </mxCell>
                <mxCell id="Z30G_G40NnTfNyK8dWTN-0" value="" style="shape=cylinder3;whiteSpace=wrap;html=1;boundedLbl=1;backgroundOutline=1;size=12;gradientColor=none;sketch=0;fillStyle=auto;fillColor=#fff2cc;strokeColor=#7A6831;" vertex="1" parent="w_5mYkMJSWmA52GJMwqL-1">
                    <mxGeometry x="380" y="120" width="420" height="280" as="geometry"/>
                </mxCell>
                <mxCell id="Z30G_G40NnTfNyK8dWTN-1" value="" style="shape=hexagon;perimeter=hexagonPerimeter2;whiteSpace=wrap;html=1;fixedSize=1;sketch=0;fillStyle=auto;fontFamily=MonacoB2;fontSize=16;strokeWidth=1;strokeColor=#000099;fontColor=#000099;" vertex="1" parent="w_5mYkMJSWmA52GJMwqL-1">
                    <mxGeometry x="400" y="160" width="380" height="100" as="geometry"/>
                </mxCell>
                <mxCell id="Z30G_G40NnTfNyK8dWTN-2" value="own pch" style="text;html=1;strokeColor=none;fillColor=none;align=center;verticalAlign=middle;whiteSpace=wrap;rounded=0;sketch=0;fillStyle=auto;fontFamily=Verdana;fontSize=16;fontColor=#000099;fontStyle=1" vertex="1" parent="w_5mYkMJSWmA52GJMwqL-1">
                    <mxGeometry x="537.5" y="160" width="105" height="30" as="geometry"/>
                </mxCell>
                <mxCell id="Z30G_G40NnTfNyK8dWTN-5" value="all-headers.h.gch" style="rounded=1;whiteSpace=wrap;html=1;sketch=0;fillStyle=auto;fontFamily=Verdana;fontSize=16;fontColor=#000099;strokeColor=#000099;strokeWidth=1;fillColor=none;gradientColor=none;" vertex="1" parent="w_5mYkMJSWmA52GJMwqL-1">
                    <mxGeometry x="550" y="201" width="190" height="35" as="geometry"/>
                </mxCell>
                <mxCell id="8DOUJ2h7b6peDzvaCOUi-0" style="edgeStyle=none;rounded=0;orthogonalLoop=1;jettySize=auto;html=1;fontFamily=Verdana;fontSize=16;fontColor=#000;strokeColor=#B266FF;strokeWidth=2;" edge="1" parent="w_5mYkMJSWmA52GJMwqL-1">
                    <mxGeometry relative="1" as="geometry">
                        <mxPoint x="290" y="317" as="sourcePoint"/>
                        <mxPoint x="380" y="317" as="targetPoint"/>
                    </mxGeometry>
                </mxCell>
                <mxCell id="8DOUJ2h7b6peDzvaCOUi-2" value="1.cpp" style="text;html=1;strokeColor=none;fillColor=none;align=right;verticalAlign=middle;whiteSpace=wrap;rounded=0;sketch=0;fillStyle=auto;fontFamily=Verdana;fontSize=16;fontColor=#000;" vertex="1" parent="w_5mYkMJSWmA52GJMwqL-1">
                    <mxGeometry x="60" y="324" width="220" height="30" as="geometry"/>
                </mxCell>
                <mxCell id="8DOUJ2h7b6peDzvaCOUi-3" value="all-headers.h.nocc-pch" style="text;html=1;strokeColor=none;fillColor=none;align=right;verticalAlign=middle;whiteSpace=wrap;rounded=0;sketch=0;fillStyle=auto;fontFamily=Verdana;fontSize=16;fontColor=#000099;" vertex="1" parent="w_5mYkMJSWmA52GJMwqL-1">
                    <mxGeometry x="60" y="300" width="220" height="30" as="geometry"/>
                </mxCell>
                <mxCell id="8DOUJ2h7b6peDzvaCOUi-4" value="" style="verticalLabelPosition=bottom;html=1;verticalAlign=top;strokeWidth=3;shape=mxgraph.lean_mapping.physical_pull;pointerEvents=1;labelBackgroundColor=none;sketch=0;fillStyle=auto;fontFamily=MonacoB2;fontSize=16;fontColor=#999900;fillColor=none;gradientColor=none;opacity=50;strokeColor=#000099;" vertex="1" parent="w_5mYkMJSWmA52GJMwqL-1">
                    <mxGeometry x="440" y="174.5" width="71" height="71" as="geometry"/>
                </mxCell>
                <mxCell id="WzU-vKE83FhqpEx7Yb3J-1" style="edgeStyle=none;rounded=0;orthogonalLoop=1;jettySize=auto;html=1;exitX=0.5;exitY=0;exitDx=0;exitDy=0;entryX=0.182;entryY=1.01;entryDx=0;entryDy=0;entryPerimeter=0;fontFamily=MonacoB2;fontSize=16;fontColor=#999900;startArrow=none;startFill=0;strokeColor=#000099;strokeWidth=1;dashed=1;" edge="1" parent="w_5mYkMJSWmA52GJMwqL-1">
                    <mxGeometry relative="1" as="geometry">
                        <mxPoint x="476" y="301" as="sourcePoint"/>
                        <mxPoint x="476" y="261" as="targetPoint"/>
                    </mxGeometry>
                </mxCell>
                <mxCell id="WzU-vKE83FhqpEx7Yb3J-0" value="compile pch" style="text;html=1;strokeColor=none;fillColor=none;align=left;verticalAlign=middle;whiteSpace=wrap;rounded=0;sketch=0;fillStyle=auto;fontFamily=Verdana;fontSize=14;fontColor=#666;" vertex="1" parent="w_5mYkMJSWmA52GJMwqL-1">
                    <mxGeometry x="402" y="301" width="88" height="30" as="geometry"/>
                </mxCell>
                <mxCell id="hKZCsUcIEKFQ98HHiYZR-0" value="/.../{clientID}" style="text;html=1;strokeColor=none;fillColor=none;align=left;verticalAlign=middle;whiteSpace=wrap;rounded=0;sketch=0;fillStyle=auto;fontFamily=Verdana;fontSize=16;fontColor=#B266FF;fontStyle=1" vertex="1" parent="w_5mYkMJSWmA52GJMwqL-1">
                    <mxGeometry x="514" y="280" width="160" height="30" as="geometry"/>
                </mxCell>
                <mxCell id="hKZCsUcIEKFQ98HHiYZR-1" value="/all-headers.h.gch" style="text;html=1;strokeColor=none;fillColor=none;align=left;verticalAlign=middle;whiteSpace=wrap;rounded=0;sketch=0;fillStyle=auto;fontFamily=Verdana;fontSize=16;fontColor=#000;" vertex="1" parent="w_5mYkMJSWmA52GJMwqL-1">
                    <mxGeometry x="550" y="306" width="160" height="30" as="geometry"/>
                </mxCell>
                <mxCell id="_F2X96iP8MvO4ew6SGdA-0" value="/1.cpp" style="text;html=1;strokeColor=none;fillColor=none;align=left;verticalAlign=middle;whiteSpace=wrap;rounded=0;sketch=0;fillStyle=auto;fontFamily=Verdana;fontSize=16;fontColor=#000;" vertex="1" parent="w_5mYkMJSWmA52GJMwqL-1">
                    <mxGeometry x="550" y="330" width="160" height="30" as="geometry"/>
                </mxCell>
                <mxCell id="vNG17UbrpUfpurahcgXA-0" value="g++ /.../1.cpp ..." style="text;html=1;strokeColor=none;fillColor=none;align=left;verticalAlign=middle;whiteSpace=wrap;rounded=0;sketch=0;fillStyle=auto;fontFamily=MonacoB2;fontSize=14;fontColor=#009900;fontStyle=1" vertex="1" parent="w_5mYkMJSWmA52GJMwqL-1">
                    <mxGeometry x="402" y="357" width="250" height="30" as="geometry"/>
                </mxCell>
                <mxCell id="N_XStKGJjYBYwC2ibwSr-0" style="edgeStyle=none;rounded=0;orthogonalLoop=1;jettySize=auto;html=1;entryX=0;entryY=0.6;entryDx=0;entryDy=0;entryPerimeter=0;fontFamily=Helvetica;fontSize=16;fontColor=#000000;strokeColor=#FF8000;strokeWidth=2;" edge="1" parent="w_5mYkMJSWmA52GJMwqL-1">
                    <mxGeometry relative="1" as="geometry">
                        <mxPoint x="380" y="372" as="sourcePoint"/>
                        <mxPoint x="290" y="372" as="targetPoint"/>
                    </mxGeometry>
                </mxCell>
                <mxCell id="ddApUJ9sOBG15mVnDIIQ-0" value="" style="endArrow=none;html=1;rounded=0;fontFamily=MonacoB2;fontSize=16;fontColor=#999900;strokeColor=#000000;strokeWidth=1;entryX=0.037;entryY=1;entryDx=0;entryDy=0;entryPerimeter=0;" edge="1" parent="w_5mYkMJSWmA52GJMwqL-1">
                    <mxGeometry width="50" height="50" relative="1" as="geometry">
                        <mxPoint x="523" y="348" as="sourcePoint"/>
                        <mxPoint x="523" y="310" as="targetPoint"/>
                    </mxGeometry>
                </mxCell>
                <mxCell id="ddApUJ9sOBG15mVnDIIQ-1" value="" style="endArrow=oval;html=1;rounded=0;fontFamily=MonacoB2;fontSize=16;fontColor=#999900;strokeColor=#000000;strokeWidth=1;endFill=1;endSize=4;" edge="1" parent="w_5mYkMJSWmA52GJMwqL-1">
                    <mxGeometry width="50" height="50" relative="1" as="geometry">
                        <mxPoint x="543" y="323" as="sourcePoint"/>
                        <mxPoint x="523" y="323" as="targetPoint"/>
                    </mxGeometry>
                </mxCell>
                <mxCell id="ddApUJ9sOBG15mVnDIIQ-2" value="" style="endArrow=oval;html=1;rounded=0;fontFamily=MonacoB2;fontSize=16;fontColor=#999900;strokeColor=#000000;strokeWidth=1;endFill=1;endSize=4;" edge="1" parent="w_5mYkMJSWmA52GJMwqL-1">
                    <mxGeometry width="50" height="50" relative="1" as="geometry">
                        <mxPoint x="543" y="347" as="sourcePoint"/>
                        <mxPoint x="523" y="347" as="targetPoint"/>
                    </mxGeometry>
                </mxCell>
                <mxCell id="gkL3B-shS3_GTLgUqCRc-0" style="edgeStyle=none;rounded=0;orthogonalLoop=1;jettySize=auto;html=1;exitX=0.75;exitY=1;exitDx=0;exitDy=0;entryX=0.75;entryY=0;entryDx=0;entryDy=0;fontFamily=MonacoB2;fontSize=16;fontColor=#FF0080;startArrow=classic;startFill=1;strokeColor=#000099;strokeWidth=2;" edge="1" parent="w_5mYkMJSWmA52GJMwqL-1" source="Z30G_G40NnTfNyK8dWTN-5" target="hKZCsUcIEKFQ98HHiYZR-1">
                    <mxGeometry relative="1" as="geometry">
                        <mxPoint x="685" y="262.5" as="sourcePoint"/>
                        <mxPoint x="550" y="300" as="targetPoint"/>
                    </mxGeometry>
                </mxCell>
            </root>
        </mxGraphModel>
    </diagram>
    <diagram id="xbKcf2FNzB4edel6Ip2n" name="final-algorithm">
        <mxGraphModel dx="946" dy="672" grid="1" gridSize="10" guides="1" tooltips="1" connect="1" arrows="1" fold="1" page="1" pageScale="1" pageWidth="827" pageHeight="1169" math="0" shadow="0">
            <root>
                <mxCell id="DIF3wpt7kHb6FpeRYJV6-0"/>
                <mxCell id="DIF3wpt7kHb6FpeRYJV6-1" parent="DIF3wpt7kHb6FpeRYJV6-0"/>
                <mxCell id="DIF3wpt7kHb6FpeRYJV6-2" value="" style="shape=cylinder3;whiteSpace=wrap;html=1;boundedLbl=1;backgroundOutline=1;size=12;gradientColor=none;sketch=0;fillStyle=auto;fillColor=#fff2cc;strokeColor=#7A6831;" vertex="1" parent="DIF3wpt7kHb6FpeRYJV6-1">
                    <mxGeometry x="530" y="90" width="270" height="370" as="geometry"/>
                </mxCell>
                <mxCell id="blWm_0tV1yRcK9DcN5FO-1" value="" style="html=1;verticalLabelPosition=bottom;align=center;labelBackgroundColor=#ffffff;verticalAlign=top;strokeWidth=1;shadow=0;dashed=0;shape=mxgraph.ios7.icons.folder;sketch=0;fillStyle=auto;fontFamily=Verdana;fontSize=16;" vertex="1" parent="DIF3wpt7kHb6FpeRYJV6-1">
                    <mxGeometry x="545" y="231" width="235" height="105" as="geometry"/>
                </mxCell>
                <mxCell id="DIF3wpt7kHb6FpeRYJV6-3" value="" style="rounded=0;whiteSpace=wrap;html=1;fillColor=#f5f5f5;fontColor=#333333;strokeColor=#666666;" vertex="1" parent="DIF3wpt7kHb6FpeRYJV6-1">
                    <mxGeometry x="20" y="90" width="270" height="110" as="geometry"/>
                </mxCell>
                <mxCell id="DIF3wpt7kHb6FpeRYJV6-4" value="nocc-server" style="text;html=1;strokeColor=none;fillColor=none;align=center;verticalAlign=middle;whiteSpace=wrap;rounded=0;sketch=0;fillStyle=auto;fontSize=16;fontFamily=Verdana;fontColor=#7A6831;" vertex="1" parent="DIF3wpt7kHb6FpeRYJV6-1">
                    <mxGeometry x="530" y="86" width="270" height="30" as="geometry"/>
                </mxCell>
                <mxCell id="DIF3wpt7kHb6FpeRYJV6-5" value="one invocation" style="text;html=1;strokeColor=none;fillColor=none;align=center;verticalAlign=middle;whiteSpace=wrap;rounded=0;sketch=0;fillStyle=auto;fontSize=16;fontFamily=Verdana;" vertex="1" parent="DIF3wpt7kHb6FpeRYJV6-1">
                    <mxGeometry x="20" y="94" width="270" height="30" as="geometry"/>
                </mxCell>
                <mxCell id="DIF3wpt7kHb6FpeRYJV6-6" value="sha256 of dependencies&lt;br&gt;+&lt;br&gt;cmd line" style="edgeStyle=none;rounded=0;orthogonalLoop=1;jettySize=auto;html=1;exitX=1;exitY=0.5;exitDx=0;exitDy=0;exitPerimeter=0;entryX=0;entryY=0.6;entryDx=0;entryDy=0;entryPerimeter=0;fontFamily=Verdana;fontSize=18;fontColor=#666;fontStyle=2;labelPosition=center;verticalLabelPosition=top;align=center;verticalAlign=bottom;strokeColor=#666;strokeWidth=1;" edge="1" parent="DIF3wpt7kHb6FpeRYJV6-1">
                    <mxGeometry relative="1" as="geometry">
                        <mxPoint x="290" y="190" as="sourcePoint"/>
                        <mxPoint x="530" y="190" as="targetPoint"/>
                    </mxGeometry>
                </mxCell>
                <mxCell id="DIF3wpt7kHb6FpeRYJV6-7" value="" style="shape=card;whiteSpace=wrap;html=1;sketch=0;fillStyle=auto;fontSize=14;fontColor=#000000;fillColor=default;gradientColor=none;fontFamily=MonacoB2;fontStyle=1;size=20;verticalAlign=top;spacingTop=4;" vertex="1" parent="DIF3wpt7kHb6FpeRYJV6-1">
                    <mxGeometry x="20" y="130" width="270" height="330" as="geometry"/>
                </mxCell>
                <mxCell id="DIF3wpt7kHb6FpeRYJV6-8" style="edgeStyle=none;rounded=0;orthogonalLoop=1;jettySize=auto;html=1;exitX=1;exitY=0.5;exitDx=0;exitDy=0;exitPerimeter=0;entryX=0;entryY=0.6;entryDx=0;entryDy=0;entryPerimeter=0;fontFamily=Helvetica;fontSize=18;fontColor=#000000;strokeColor=#FF8000;strokeWidth=2;" edge="1" parent="DIF3wpt7kHb6FpeRYJV6-1">
                    <mxGeometry relative="1" as="geometry">
                        <mxPoint x="530" y="434" as="sourcePoint"/>
                        <mxPoint x="290" y="434" as="targetPoint"/>
                    </mxGeometry>
                </mxCell>
                <mxCell id="DIF3wpt7kHb6FpeRYJV6-9" value="obj file" style="edgeLabel;html=1;align=center;verticalAlign=bottom;resizable=0;points=[];fontSize=18;fontFamily=Verdana;fontColor=#FF8000;fontStyle=2;labelPosition=center;verticalLabelPosition=top;" vertex="1" connectable="0" parent="DIF3wpt7kHb6FpeRYJV6-8">
                    <mxGeometry x="-0.0167" relative="1" as="geometry">
                        <mxPoint as="offset"/>
                    </mxGeometry>
                </mxCell>
                <mxCell id="ASp8yk8l7W9i409RT2ep-1" value="missing indexes" style="edgeStyle=none;rounded=0;orthogonalLoop=1;jettySize=auto;html=1;exitX=1;exitY=0.5;exitDx=0;exitDy=0;exitPerimeter=0;entryX=0;entryY=0.6;entryDx=0;entryDy=0;entryPerimeter=0;fontFamily=Verdana;fontSize=18;fontColor=#666;fontStyle=2;labelPosition=center;verticalLabelPosition=top;align=center;verticalAlign=bottom;strokeColor=#666;strokeWidth=1;" edge="1" parent="DIF3wpt7kHb6FpeRYJV6-1">
                    <mxGeometry relative="1" as="geometry">
                        <mxPoint x="530" y="240" as="sourcePoint"/>
                        <mxPoint x="290" y="240" as="targetPoint"/>
                    </mxGeometry>
                </mxCell>
                <mxCell id="ASp8yk8l7W9i409RT2ep-2" value="" style="edgeStyle=none;rounded=0;orthogonalLoop=1;jettySize=auto;html=1;exitX=1;exitY=0.5;exitDx=0;exitDy=0;exitPerimeter=0;entryX=0;entryY=0.6;entryDx=0;entryDy=0;entryPerimeter=0;fontFamily=Verdana;fontSize=18;fontColor=#666;fontStyle=2;labelPosition=center;verticalLabelPosition=top;align=center;verticalAlign=bottom;strokeColor=#B266FF;strokeWidth=2;" edge="1" parent="DIF3wpt7kHb6FpeRYJV6-1">
                    <mxGeometry relative="1" as="geometry">
                        <mxPoint x="290" y="320" as="sourcePoint"/>
                        <mxPoint x="530" y="320" as="targetPoint"/>
                    </mxGeometry>
                </mxCell>
                <mxCell id="ASp8yk8l7W9i409RT2ep-6" value="upload missing" style="edgeLabel;html=1;align=center;verticalAlign=bottom;resizable=0;points=[];fontSize=18;fontFamily=Verdana;fontColor=#B266FF;labelPosition=center;verticalLabelPosition=top;fontStyle=2" vertex="1" connectable="0" parent="ASp8yk8l7W9i409RT2ep-2">
                    <mxGeometry x="-0.0167" y="2" relative="1" as="geometry">
                        <mxPoint as="offset"/>
                    </mxGeometry>
                </mxCell>
                <mxCell id="OaHIE62GF7oqvs05u7ZF-0" value="g++ /tmp/1.cpp ..." style="text;html=1;strokeColor=none;fillColor=none;align=left;verticalAlign=middle;whiteSpace=wrap;rounded=0;sketch=0;fillStyle=auto;fontFamily=MonacoB2;fontSize=14;fontColor=#009900;fontStyle=1" vertex="1" parent="DIF3wpt7kHb6FpeRYJV6-1">
                    <mxGeometry x="552" y="417" width="178" height="30" as="geometry"/>
                </mxCell>
                <mxCell id="nKTcdJUF6YOGJ8iPCYJI-0" value="" style="shape=hexagon;perimeter=hexagonPerimeter2;whiteSpace=wrap;html=1;fixedSize=1;sketch=0;fillStyle=auto;fontFamily=MonacoB2;fontSize=16;strokeWidth=1;strokeColor=#CC0066;" vertex="1" parent="DIF3wpt7kHb6FpeRYJV6-1">
                    <mxGeometry x="675" y="156" width="110" height="54" as="geometry"/>
                </mxCell>
                <mxCell id="nKTcdJUF6YOGJ8iPCYJI-1" value="src cache" style="text;html=1;strokeColor=none;fillColor=none;align=center;verticalAlign=middle;whiteSpace=wrap;rounded=0;sketch=0;fillStyle=auto;fontFamily=Verdana;fontSize=16;fontColor=#FF0080;fontStyle=0" vertex="1" parent="DIF3wpt7kHb6FpeRYJV6-1">
                    <mxGeometry x="675" y="168" width="110" height="30" as="geometry"/>
                </mxCell>
                <mxCell id="nKTcdJUF6YOGJ8iPCYJI-2" value="check if files&lt;br&gt;were already&lt;br&gt;uploaded" style="text;html=1;strokeColor=none;fillColor=none;align=left;verticalAlign=top;whiteSpace=wrap;rounded=0;labelBackgroundColor=none;sketch=0;fillStyle=auto;fontFamily=Verdana;fontSize=16;fontColor=#000000;opacity=50;" vertex="1" parent="DIF3wpt7kHb6FpeRYJV6-1">
                    <mxGeometry x="550" y="150" width="120" height="70" as="geometry"/>
                </mxCell>
                <mxCell id="yvulm593-EkwJgmnSAdA-1" value="" style="shape=hexagon;perimeter=hexagonPerimeter2;whiteSpace=wrap;html=1;fixedSize=1;sketch=0;fillStyle=auto;fontFamily=MonacoB2;fontSize=16;strokeWidth=1;strokeColor=#009900;" vertex="1" parent="DIF3wpt7kHb6FpeRYJV6-1">
                    <mxGeometry x="675" y="356" width="110" height="54" as="geometry"/>
                </mxCell>
                <mxCell id="DjDZZMBZ7He_OwN5dt8J-0" value="/.../{clientID}" style="text;html=1;strokeColor=none;fillColor=none;align=left;verticalAlign=middle;whiteSpace=wrap;rounded=0;sketch=0;fillStyle=auto;fontFamily=Verdana;fontSize=16;fontColor=#B266FF;fontStyle=1" vertex="1" parent="DIF3wpt7kHb6FpeRYJV6-1">
                    <mxGeometry x="554" y="250" width="180" height="30" as="geometry"/>
                </mxCell>
                <mxCell id="pCcU0BUeWKuTpoe35n5Q-0" value="/1.cpp" style="text;html=1;strokeColor=none;fillColor=none;align=left;verticalAlign=middle;whiteSpace=wrap;rounded=0;sketch=0;fillStyle=auto;fontFamily=Verdana;fontSize=16;fontColor=#000;" vertex="1" parent="DIF3wpt7kHb6FpeRYJV6-1">
                    <mxGeometry x="590" y="276" width="160" height="30" as="geometry"/>
                </mxCell>
                <mxCell id="pCcU0BUeWKuTpoe35n5Q-1" value="/1.h" style="text;html=1;strokeColor=none;fillColor=none;align=left;verticalAlign=middle;whiteSpace=wrap;rounded=0;sketch=0;fillStyle=auto;fontFamily=Verdana;fontSize=16;fontColor=#000;" vertex="1" parent="DIF3wpt7kHb6FpeRYJV6-1">
                    <mxGeometry x="590" y="300" width="160" height="30" as="geometry"/>
                </mxCell>
                <mxCell id="pCcU0BUeWKuTpoe35n5Q-2" value="" style="endArrow=none;html=1;rounded=0;fontFamily=MonacoB2;fontSize=16;fontColor=#999900;strokeColor=#000000;strokeWidth=1;entryX=0.037;entryY=1;entryDx=0;entryDy=0;entryPerimeter=0;" edge="1" parent="DIF3wpt7kHb6FpeRYJV6-1">
                    <mxGeometry width="50" height="50" relative="1" as="geometry">
                        <mxPoint x="563" y="318" as="sourcePoint"/>
                        <mxPoint x="563" y="280" as="targetPoint"/>
                    </mxGeometry>
                </mxCell>
                <mxCell id="pCcU0BUeWKuTpoe35n5Q-3" value="" style="endArrow=oval;html=1;rounded=0;fontFamily=MonacoB2;fontSize=16;fontColor=#999900;strokeColor=#000000;strokeWidth=1;endFill=1;endSize=4;" edge="1" parent="DIF3wpt7kHb6FpeRYJV6-1">
                    <mxGeometry width="50" height="50" relative="1" as="geometry">
                        <mxPoint x="583" y="293" as="sourcePoint"/>
                        <mxPoint x="563" y="293" as="targetPoint"/>
                    </mxGeometry>
                </mxCell>
                <mxCell id="pCcU0BUeWKuTpoe35n5Q-4" value="" style="endArrow=oval;html=1;rounded=0;fontFamily=MonacoB2;fontSize=16;fontColor=#999900;strokeColor=#000000;strokeWidth=1;endFill=1;endSize=4;" edge="1" parent="DIF3wpt7kHb6FpeRYJV6-1">
                    <mxGeometry width="50" height="50" relative="1" as="geometry">
                        <mxPoint x="583" y="317" as="sourcePoint"/>
                        <mxPoint x="563" y="317" as="targetPoint"/>
                    </mxGeometry>
                </mxCell>
                <mxCell id="i5W3luSULlP4kLSoyZMO-0" style="edgeStyle=none;rounded=0;orthogonalLoop=1;jettySize=auto;html=1;exitX=0.5;exitY=1;exitDx=0;exitDy=0;fontFamily=Verdana;fontSize=16;fontColor=#000000;startArrow=classic;startFill=1;strokeColor=#FF0080;strokeWidth=2;" edge="1" parent="DIF3wpt7kHb6FpeRYJV6-1">
                    <mxGeometry relative="1" as="geometry">
                        <mxPoint x="730" y="210" as="sourcePoint"/>
                        <mxPoint x="730" y="270" as="targetPoint"/>
                    </mxGeometry>
                </mxCell>
                <mxCell id="r_JQrVEGZZsRv0GsnM60-0" value="if not&amp;nbsp;already&lt;br&gt;compiled" style="text;html=1;strokeColor=none;fillColor=none;align=left;verticalAlign=top;whiteSpace=wrap;rounded=0;labelBackgroundColor=none;sketch=0;fillStyle=auto;fontFamily=Verdana;fontSize=16;fontColor=#000000;opacity=50;" vertex="1" parent="DIF3wpt7kHb6FpeRYJV6-1">
                    <mxGeometry x="550" y="360" width="120" height="50" as="geometry"/>
                </mxCell>
                <mxCell id="1kAolHIyvVfATSbY7G21-0" value="obj cache" style="text;html=1;strokeColor=none;fillColor=none;align=center;verticalAlign=middle;whiteSpace=wrap;rounded=0;sketch=0;fillStyle=auto;fontFamily=Verdana;fontSize=16;fontColor=#009900;fontStyle=0" vertex="1" parent="DIF3wpt7kHb6FpeRYJV6-1">
                    <mxGeometry x="675" y="368" width="110" height="30" as="geometry"/>
                </mxCell>
                <mxCell id="2lCPnndlraG8gT-0RR5r-0" style="edgeStyle=none;rounded=0;orthogonalLoop=1;jettySize=auto;html=1;exitX=0.5;exitY=1;exitDx=0;exitDy=0;fontFamily=Verdana;fontSize=16;fontColor=#009900;startArrow=classic;startFill=1;strokeColor=#009900;strokeWidth=2;" edge="1" parent="DIF3wpt7kHb6FpeRYJV6-1">
                    <mxGeometry relative="1" as="geometry">
                        <mxPoint x="730" y="410" as="sourcePoint"/>
                        <mxPoint x="730" y="440" as="targetPoint"/>
                    </mxGeometry>
                </mxCell>
                <mxCell id="p18s8V05R2zsLQmI-t11-0" value="1) collect all&lt;br&gt;&amp;nbsp; &amp;nbsp; #include recursively&lt;br&gt;&amp;nbsp; &amp;nbsp; (calc hashes of .h/.cpp)" style="text;html=1;strokeColor=none;fillColor=none;align=left;verticalAlign=top;whiteSpace=wrap;rounded=0;labelBackgroundColor=none;sketch=0;fillStyle=auto;fontFamily=Verdana;fontSize=16;fontColor=#000000;" vertex="1" parent="DIF3wpt7kHb6FpeRYJV6-1">
                    <mxGeometry x="40" y="148" width="230" height="72" as="geometry"/>
                </mxCell>
                <mxCell id="p18s8V05R2zsLQmI-t11-1" value="2) the server responds&lt;br&gt;&amp;nbsp; &amp;nbsp; what dependencies&amp;nbsp;&lt;br&gt;&amp;nbsp; &amp;nbsp; are to be uploaded" style="text;html=1;strokeColor=none;fillColor=none;align=left;verticalAlign=top;whiteSpace=wrap;rounded=0;labelBackgroundColor=none;sketch=0;fillStyle=auto;fontFamily=Verdana;fontSize=16;fontColor=#000000;" vertex="1" parent="DIF3wpt7kHb6FpeRYJV6-1">
                    <mxGeometry x="40" y="257" width="230" height="80" as="geometry"/>
                </mxCell>
                <mxCell id="p18s8V05R2zsLQmI-t11-2" value="3) wait for obj:&lt;br&gt;&amp;nbsp; &amp;nbsp; when it&#39;s ready,&lt;br&gt;&amp;nbsp; &amp;nbsp; the server streams it" style="text;html=1;strokeColor=none;fillColor=none;align=left;verticalAlign=top;whiteSpace=wrap;rounded=0;labelBackgroundColor=none;sketch=0;fillStyle=auto;fontFamily=Verdana;fontSize=16;fontColor=#000000;" vertex="1" parent="DIF3wpt7kHb6FpeRYJV6-1">
                    <mxGeometry x="40" y="370" width="230" height="80" as="geometry"/>
                </mxCell>
            </root>
        </mxGraphModel>
    </diagram>
    <diagram id="NOlzkW8PSi5vZAz2Rnxk" name="own-includes">
        <mxGraphModel dx="946" dy="672" grid="1" gridSize="10" guides="1" tooltips="1" connect="1" arrows="1" fold="1" page="1" pageScale="1" pageWidth="827" pageHeight="1169" math="0" shadow="0">
            <root>
                <mxCell id="UHbUMME38jx-3VkRbECZ-0"/>
                <mxCell id="UHbUMME38jx-3VkRbECZ-1" parent="UHbUMME38jx-3VkRbECZ-0"/>
                <mxCell id="UHbUMME38jx-3VkRbECZ-2" value="#include &amp;lt;iostream&amp;gt;" style="text;html=1;strokeColor=none;fillColor=none;align=left;verticalAlign=middle;whiteSpace=wrap;rounded=0;labelBackgroundColor=none;sketch=0;fillStyle=auto;fontFamily=MonacoB2;fontSize=18;fontColor=#009900;" vertex="1" parent="UHbUMME38jx-3VkRbECZ-1">
                    <mxGeometry x="40" y="50" width="220" height="30" as="geometry"/>
                </mxCell>
                <mxCell id="UHbUMME38jx-3VkRbECZ-3" value="/usr/include/c++/iostream" style="text;html=1;strokeColor=none;fillColor=none;align=left;verticalAlign=middle;whiteSpace=wrap;rounded=0;labelBackgroundColor=none;sketch=0;fillStyle=auto;fontFamily=Verdana;fontSize=18;fontColor=#000000;" vertex="1" parent="UHbUMME38jx-3VkRbECZ-1">
                    <mxGeometry x="380" y="50" width="340" height="30" as="geometry"/>
                </mxCell>
                <mxCell id="UHbUMME38jx-3VkRbECZ-4" value="/usr/include/c++/__config" style="text;html=1;strokeColor=none;fillColor=none;align=left;verticalAlign=middle;whiteSpace=wrap;rounded=0;labelBackgroundColor=none;sketch=0;fillStyle=auto;fontFamily=Verdana;fontSize=18;fontColor=#000000;" vertex="1" parent="UHbUMME38jx-3VkRbECZ-1">
                    <mxGeometry x="400" y="80" width="340" height="30" as="geometry"/>
                </mxCell>
                <mxCell id="UHbUMME38jx-3VkRbECZ-5" value="/usr/include/c++/cdefs.h" style="text;html=1;strokeColor=none;fillColor=none;align=left;verticalAlign=middle;whiteSpace=wrap;rounded=0;labelBackgroundColor=none;sketch=0;fillStyle=auto;fontFamily=Verdana;fontSize=18;fontColor=#000000;" vertex="1" parent="UHbUMME38jx-3VkRbECZ-1">
                    <mxGeometry x="420" y="110" width="340" height="30" as="geometry"/>
                </mxCell>
                <mxCell id="UHbUMME38jx-3VkRbECZ-6" value="/usr/include/c++/_symbol_aliasing.h" style="text;html=1;strokeColor=none;fillColor=none;align=left;verticalAlign=middle;whiteSpace=wrap;rounded=0;labelBackgroundColor=none;sketch=0;fillStyle=auto;fontFamily=Verdana;fontSize=18;fontColor=#000000;" vertex="1" parent="UHbUMME38jx-3VkRbECZ-1">
                    <mxGeometry x="420" y="140" width="340" height="30" as="geometry"/>
                </mxCell>
                <mxCell id="UHbUMME38jx-3VkRbECZ-7" value="/usr/include/c++/_availability.h" style="text;html=1;strokeColor=none;fillColor=none;align=left;verticalAlign=middle;whiteSpace=wrap;rounded=0;labelBackgroundColor=none;sketch=0;fillStyle=auto;fontFamily=Verdana;fontSize=18;fontColor=#000000;" vertex="1" parent="UHbUMME38jx-3VkRbECZ-1">
                    <mxGeometry x="420" y="170" width="340" height="30" as="geometry"/>
                </mxCell>
                <mxCell id="UHbUMME38jx-3VkRbECZ-8" value="/usr/include/c++/ios" style="text;html=1;strokeColor=none;fillColor=none;align=left;verticalAlign=middle;whiteSpace=wrap;rounded=0;labelBackgroundColor=none;sketch=0;fillStyle=auto;fontFamily=Verdana;fontSize=18;fontColor=#000000;" vertex="1" parent="UHbUMME38jx-3VkRbECZ-1">
                    <mxGeometry x="400" y="200" width="340" height="30" as="geometry"/>
                </mxCell>
                <mxCell id="UHbUMME38jx-3VkRbECZ-9" value="/usr/include/c++/iosfwd" style="text;html=1;strokeColor=none;fillColor=none;align=left;verticalAlign=middle;whiteSpace=wrap;rounded=0;labelBackgroundColor=none;sketch=0;fillStyle=auto;fontFamily=Verdana;fontSize=18;fontColor=#000000;" vertex="1" parent="UHbUMME38jx-3VkRbECZ-1">
                    <mxGeometry x="420" y="230" width="340" height="30" as="geometry"/>
                </mxCell>
                <mxCell id="UHbUMME38jx-3VkRbECZ-10" value="..." style="text;html=1;strokeColor=none;fillColor=none;align=left;verticalAlign=middle;whiteSpace=wrap;rounded=0;labelBackgroundColor=none;sketch=0;fillStyle=auto;fontFamily=Verdana;fontSize=18;fontColor=#000000;" vertex="1" parent="UHbUMME38jx-3VkRbECZ-1">
                    <mxGeometry x="420" y="260" width="340" height="30" as="geometry"/>
                </mxCell>
            </root>
        </mxGraphModel>
    </diagram>
</mxfile>